<svg xmlns="http://www.w3.org/2000/svg"><defs><font id="linecons" horiz-adv-x="1024"><font-face units-per-em="1024" ascent="960" descent="-64"/><glyph horiz-adv-x="512"/><glyph unicode="" d="M934.176 791.52c-116.128 115.072-301.824 117.472-422.112 9.216-120.32 108.256-305.952 105.856-422.144-9.216-119.712-118.528-119.712-310.688 0-429.28 34.208-33.888 353.696-350.112 353.696-350.112 37.856-37.504 99.072-37.504 136.896 0 0 0 349.824 346.304 353.696 350.112 119.744 118.592 119.744 310.752-.032 429.28zm-45.6-384.096L534.88 57.312c-12.576-12.512-33.088-12.512-45.6 0L135.584 407.424c-94.4 93.44-94.4 245.472 0 338.912 91.008 90.08 237.312 93.248 333.088 7.104l43.392-39.04 43.36 39.04c95.808 86.144 242.112 83.008 333.12-7.104 94.4-93.408 94.4-245.44.032-338.912zm-592.48 312.544c8.864 0 16-7.168 16-16s-7.168-16-16-16h-.032c-57.408 0-103.968-46.56-103.968-103.968v-.032c0-8.832-7.168-16-16-16s-16 7.168-16 16c0 75.072 60.832 135.904 135.872 135.968.064 0 .064.032.128.032z"/><glyph unicode="" d="M829.248 539.424C815.264 685.44 693.696 800 544 800c-115.808 0-214.944-68.736-260.672-167.36-13.76 4.352-28.096 7.36-43.296 7.36-79.52 0-144-64.512-144-144 0-15.808 3.168-30.752 7.872-44.928C42.048 415.008.032 348.832.032 272.064c0-114.88 93.12-208 208-208V64L784 64.064c132.576 0 240 107.424 240 240 0 116.992-83.872 214.176-194.752 235.36zM784 128.064V128H208.032c-79.392.064-144 64.64-144 144.064 0 51.2 26.976 97.44 72.128 123.744 43.872 25.184 46.88 30.176 28.48 75.424-3.104 9.312-4.608 17.408-4.608 24.736 0 44.128 35.872 80 80 80 0 0 20.992 1.504 43.296-7.36 36.704-14.624 40.704-.64 58.048 37.088C378.08 684.832 457.6 736 544 736c115.2 0 210.432-87.136 221.568-202.688 3.936-45.824 3.936-45.824 51.68-56.736C900 460.768 960 388.192 960 304.064c0-97.056-78.944-176-176-176z"/><glyph unicode="" d="M1020.192 558.176c-8.864 25.568-31.616 44.288-59.008 48.352l-266.432 39.616-115.808 240.448C566.752 911.84 540.672 928 512 928s-54.752-16.16-66.944-41.408L329.248 646.144 62.784 606.528c-27.36-4.064-50.112-22.784-58.944-48.352-8.8-25.632-2.144-53.856 17.184-73.12l195.264-194.944-45.28-270.432c-4.608-27.232 7.2-54.56 30.336-70.496C214.048-59.552 228.992-64 243.936-64a75.782 75.782 0 0 1 35.776 8.992L512 70.048 744.32-55.008A75.751 75.751 0 0 1 780.064-64c14.944 0 29.888 4.448 42.624 13.184 23.136 15.936 34.88 43.264 30.304 70.496L807.68 290.112l195.328 194.944c19.296 19.296 25.92 47.52 17.184 73.12zM754.816 340.384c-16.384-16.32-23.808-39.328-20.064-61.888L780.064 8.064l-232.32 124.992c-11.136 6.016-23.424 8.992-35.776 8.992a75.564 75.564 0 0 1-35.744-8.992L243.904 8.064l45.312 270.432c3.776 22.56-3.648 45.568-20.032 61.888L73.92 535.328l266.432 39.68c24.352 3.616 45.312 18.848 55.776 40.576L512 855.968l115.84-240.416c10.496-21.728 31.424-36.928 55.744-40.576l266.496-39.68-195.264-194.912z"/><glyph unicode="" d="M709.44 684.032c-86.624 17.824-174.56 26.848-261.28 26.848s-174.624-9.024-261.28-26.848c-11.2-2.304-20.352-10.432-23.968-21.344-46.144-140.192-46.144-282.336 0-422.528 3.584-10.88 12.736-19.008 23.968-21.312C273.536 201.056 361.44 192 448.16 192c86.688 0 174.656 9.056 261.28 26.88a32.04 32.04 0 0 1 24 21.312c46.112 140.192 46.112 282.336 0 422.528a32.09 32.09 0 0 1-24 21.312zm-6.432-433.856c-169.888-34.88-339.808-34.88-509.664 0-44.192 134.176-44.192 268.32 0 402.528 169.888 34.912 339.808 34.912 509.664 0 44.192-134.176 44.192-268.32 0-402.528zm284.32 507.584c-6.176 26.048-28 45.504-54.56 48.704C793.248 823.424 651.744 832 512.16 832c-139.552 0-281.056-8.576-420.576-25.504-26.56-3.232-48.352-22.656-54.528-48.736-48.928-205.536-48.928-413.952 0-619.52 6.176-26.048 27.968-45.504 54.528-48.672 67.232-8.192 134.912-14.176 202.592-18.432-3.648-2.336-6.016-4.704-6.016-7.136 0-17.696 100.288-32 224-32s224 14.304 224 32c0 2.432-2.368 4.8-6.016 7.136 67.68 4.256 135.36 10.24 202.56 18.432 26.56 3.2 48.384 22.624 54.56 48.672 48.992 205.568 48.992 413.984.064 619.52zm-62.272-604.704c-275.264-33.376-550.528-33.376-825.76 0-46.816 196.64-46.816 393.28 0 589.888 275.264 33.408 550.528 33.408 825.76 0 46.816-196.608 46.816-393.248 0-589.888zM848.192 576c26.496 0 48 21.504 48 48s-21.504 48-48 48-48-21.504-48-48 21.504-48 48-48zm0 64c8.8 0 16-7.2 16-16s-7.2-16-16-16-16 7.2-16 16 7.168 16 16 16zm32-384c8.8 0 16-7.136 16-16 0-8.8-7.2-16-16-16h-96c-8.864 0-16 7.2-16 16 0 8.864 7.136 16 16 16h96zm32 96c8.8 0 16-7.136 16-16 0-8.8-7.2-16-16-16h-96c-8.864 0-16 7.2-16 16 0 8.864 7.136 16 16 16h96zm0 96c8.8 0 16-7.168 16-16s-7.2-16-16-16h-96c-8.864 0-16 7.168-16 16s7.136 16 16 16h96zM432.16 582.272c8.832.352 16-6.528 16-15.36s-7.2-16.256-16-16.576l-119.968-8.224c-8.736-.896-16.864-8.768-18.048-17.472L288.8 464c-.352-8.8-7.84-16-16.576-16-8.768 0-15.584 7.2-15.136 16l9.76 89.152c1.472 8.704 9.824 16.64 18.56 17.632l146.752 11.488z"/><glyph unicode="" d="M863.936 511.904c0 158.784-129.184 288-288 287.968V800c-8.8.032-15.936 7.2-15.936 16 0 8.832 7.136 16 16 16 .32 0 .576-.128.8-.192 176.256-.416 318.944-143.264 319.136-319.552 0-.096.064-.16.064-.256 0-8.832-7.2-15.968-16-15.968s-15.936 7.104-16 15.872h-.064zm-572.064 420C273.536 950.272 248.96 960 223.968 960a95.502 95.502 0 0 1-36.672-7.296C151.392 937.856 128 902.848 128 864l-.032-440.224-99.84-99.904c-37.504-37.44-37.504-98.24 0-135.744l224-224C270.88-54.624 295.424-64 320-64s49.12 9.376 67.872 28.128L487.744 64h440.192c38.88 0 73.888 23.36 88.672 59.264 14.88 35.872 6.688 77.184-20.8 104.64l-703.936 704zm150.624-822.656L342.624 9.376C334.464 1.248 324.928 0 320 0s-14.464 1.248-22.624 9.376l-224 224C65.216 241.568 64 251.072 64 256s1.216 14.496 9.376 22.624l99.84 99.872c.288.32.384.672.672.992l269.6-269.632c-.288-.224-.704-.288-.992-.608zM487.744 128c-4.96 0-9.568-1.76-14.304-2.816l-284.32 284.32c1.088 4.736 2.848 9.344 2.848 14.272L192 809.248 873.184 128h-385.44zm469.76 19.744c-4.928-12-16.576-19.744-29.568-19.744h-9.504L192 854.496V864c0 12.992 7.744 24.608 19.744 29.568A31.68 31.68 0 0 0 223.968 896c8.576 0 16.608-3.328 22.624-9.344L950.56 182.624c9.184-9.184 11.936-22.88 6.944-34.88zM575.936 896c-17.632.032-31.936 14.368-31.936 32 0 17.696 14.304 32 32 32 .32 0 .576-.128.8-.16 246.944-.448 446.944-200.608 447.136-447.584 0-.096.064-.16.064-.256 0-17.696-14.304-32-32-32-17.632 0-31.936 14.272-32 31.872h-.064c0 211.744-172.256 384-384 384V896z"/><glyph unicode="" d="M960 768h-28.384c-16.8 0-32.928-6.624-44.928-18.432L800 664.064V704c0 53.024-43.008 96-96 96H96c-52.928 0-96-43.04-96-96V192c0-52.992 42.976-96 96-96h608c52.992 0 96 43.008 96 96v39.072l86.688-85.504c12-11.808 28.128-18.432 44.928-18.432H960c35.328 0 64 28.64 64 64V704c0 35.36-28.672 64-64 64zM96 160c-17.664 0-32 14.368-32 32v512c0 17.696 14.304 32 32 32h608c17.632 0 32-14.336 32-32V192c0-17.632-14.368-32-32-32H96zm864 31.136h-32l-128 128V320l-32 32v192l160 160h32V191.136z"/><glyph unicode="" d="M959.36 741.792c-3.072 50.24-44.384 90.112-95.36 90.112h-96v32.064c0 53.024-43.008 96-96 96H352c-53.024 0-96-42.976-96-96v-32.032h-96c-51.04 0-92.32-39.872-95.392-90.112H64v-69.856c0-35.328 28.672-64 64-64v-544c0-70.688 57.312-128 128-128h512c70.688 0 128 57.312 128 128v544c35.328 0 64 28.672 64 64v69.824h-.64zM320 863.936c0 17.696 14.304 32 32 32h320c17.696 0 32-14.304 32-32v-32H320v32zm512-800c0-35.264-28.736-64-64-64H256c-35.296 0-64 28.736-64 64v544h640v-544zm64 640.032v-32H128v63.968c0 17.696 14.304 32 32 32h704c17.696 0 32-14.304 32-32v-31.968zM288 63.808h64c17.696 0 32 14.304 32 32v416c0 17.696-14.304 32-32 32h-64c-17.696 0-32-14.304-32-32v-416c0-17.696 14.304-32 32-32zm0 448.032h64v-416h-64v416zM480 63.808h64c17.696 0 32 14.304 32 32v416c0 17.696-14.304 32-32 32h-64c-17.696 0-32-14.304-32-32v-416c0-17.696 14.304-32 32-32zm0 448.032h64v-416h-64v416zM672 63.808h64c17.696 0 32 14.304 32 32v416c0 17.696-14.304 32-32 32h-64c-17.696 0-32-14.304-32-32v-416c0-17.696 14.304-32 32-32zm0 448.032h64v-416h-64v416z"/><glyph unicode="" d="M995.52 53.248c-6.432 4.256-123.136 80.8-296.736 118.368 63.68 80.672 104.576 189.184 121.952 261.408 24.128 100.096 14.752 295.936-81.376 417.984C683.168 922.336 604.544 960 512 960c-92.544 0-171.168-37.696-227.328-108.992-96.128-122.016-105.472-317.856-81.376-417.952 17.376-72.224 58.24-180.736 121.952-261.408C151.648 134.08 34.944 57.536 28.544 53.28 5.088 37.664-5.408 8.48 2.784-18.464 10.912-45.504 35.84-64 64-64h896c28.192 0 53.056 18.496 61.248 45.504 8.224 26.944-2.272 56.128-25.728 71.744zM648.544 211.264l-10.432-13.248c-76.32-87.68-175.84-87.68-252.128 0l-10.464 13.248c-89.12 112.928-133.344 262.304-114.304 404.8C278.656 752.992 357.12 896 512 896s233.376-143.04 250.816-279.968c18.976-142.56-25.088-291.776-114.272-404.768zM64 0c4.416 2.944 112.832 74.048 274.752 109.056l79.488 17.184C446.624 107.616 477.76 96 512 96c34.272 0 65.376 11.616 93.76 30.24l79.488-17.184C845.888 74.304 953.92 4 960 0H64z"/><glyph unicode="" d="M704.128 960c-176.736 0-320-143.296-320-320 0-41.12 8.608-80.032 22.816-116.128L18.176 135.136C6.944 123.872 0 113.184 0 96V0c0-34.24 29.728-64 64-64h96c17.152 0 28 6.88 39.232 18.048L245.152 0h74.976c35.328 0 64 28.672 64 64v64h64c35.328 0 64 28.672 64 64v75.008l75.808 75.872C624.064 328.64 662.944 320 704.128 320c176.672 0 320 143.296 320 320s-143.328 320-320 320zm0-576c-47.36 0-91.264 13.76-129.312 36.224l-11.008-10.976-96.96-96.992a63.965 63.965 0 0 1-18.752-45.248V192h-64c-35.328 0-64-28.64-64-64V64h-74.944a64.02 64.02 0 0 1-45.248-18.752L154.528-.128 64.096 0 64 91.2l373.28 372.608s0-.032.032-.064l47.008 47.008c-22.464 38.048-36.224 81.92-36.224 129.28 0 141.376 114.656 256 256 256s256-114.624 256-256S845.504 384 704.128 384zM890.24 696.352c-35.872 49.984-79.552 93.6-129.76 129.728-8.16 5.92-18.72 7.392-28.224 4.064-44.448-15.648-74.88-46.048-90.432-90.496a30.452 30.452 0 0 1-1.76-10.208 30.852 30.852 0 0 1 5.824-18.016c36-50.048 79.616-93.696 129.696-129.696a30.9 30.9 0 0 1 28.192-4.096c44.512 15.552 74.944 46.016 90.56 90.496a30.452 30.452 0 0 1 1.76 10.208c-.032 6.368-2.048 12.672-5.856 18.016zm-96-88.672c-47.296 34.016-88.48 75.2-122.24 121.376 12.384 35.296 35.552 58.464 69.824 71.072 47.328-34.08 88.448-75.168 122.112-121.952-12.512-35.04-35.616-58.08-69.696-70.496z"/><glyph unicode="" d="M640 959.84c-212.064 0-384-171.936-384-384 0-64.832 16.224-125.856 44.64-179.456L33.632 129.44l.224-.192C12.992 108.736 0 80.32 0 48.736 0-13.632 50.56-64.192 112.928-64.192c31.52 0 59.968 12.992 80.48 33.888l-.064.064 266.912 266.88c53.632-28.512 114.752-44.8 179.744-44.8 212.064 0 384 171.936 384 384s-171.936 384-384 384zM153.44 9.696C143.136-.992 128.864-7.68 112.928-7.68c-31.2 0-56.48 25.248-56.48 56.448 0 15.936 6.72 30.176 17.376 40.512l-.288.256 258.112 258.112c22.56-30.432 49.44-57.312 79.808-79.936L153.44 9.696zM640 255.808c-176.704 0-320 143.328-320 320 0 176.704 143.296 320 320 320 176.672 0 320-143.296 320-320 0-176.672-143.328-320-320-320zm0 544.032c8.8 0 16-7.168 16-16s-7.2-16-16-16c-106.048 0-192-85.984-192-192 0-8.832-7.168-16-16-16s-16 7.168-16 16c0 123.712 100.256 224 224 224z"/><glyph unicode="" d="M1022.88 455.168c-.32 1.344-.128 2.784-.64 4.096-.192.544-.672.832-.864 1.344-.32.768-.256 1.632-.672 2.368-92.8 177.632-294.816 304.896-507.936 304.896-213.152 0-415.136-127.072-508-304.672-.416-.736-.352-1.6-.672-2.368-.224-.512-.672-.8-.864-1.344-.512-1.312-.32-2.752-.64-4.096-.576-2.4-1.12-4.704-1.12-7.168s.576-4.736 1.12-7.168c.32-1.344.128-2.784.64-4.096.192-.544.672-.832.864-1.344.32-.768.256-1.632.672-2.368 92.832-177.632 294.848-304.896 508-304.896 213.12 0 415.136 127.072 507.936 304.672.448.736.384 1.6.672 2.368.192.512.672.8.864 1.344.512 1.312.32 2.752.64 4.096.544 2.432 1.12 4.736 1.12 7.168s-.576 4.768-1.12 7.168zM512.736 192.384c-179.68 0-355.584 102.112-443.232 255.84 88.128 153.92 263.776 255.68 443.232 255.68 179.616 0 355.552-102.144 443.2-255.84-88.128-153.952-263.744-255.68-443.2-255.68zm0 383.648c8.832 0 15.936-7.136 15.936-16 0-8.8-7.136-15.968-15.936-15.968v-.032c-52.928 0-95.968-43.04-95.968-95.904 0-8.832-7.168-16-15.968-16-8.832 0-16 7.168-16 16 0 70.56 57.184 127.744 127.744 127.872.064 0 .128.032.192.032zM512 672c-123.744 0-224-100.288-224-224s100.288-224 224-224c123.68 0 224 100.32 224 224 0 123.744-100.32 224-224 224zm0-416c-105.888 0-192 86.112-192 192s86.112 192 192 192 192-86.112 192-192-86.112-192-192-192z"/><glyph unicode="" d="M512 736c8.832 0 16-7.168 16-16s-7.2-16-16-16c-170.464 0-320-89.728-320-192 0-8.832-7.168-16-16-16s-16 7.168-16 16c0 121.408 161.184 224 352 224zm0 160C229.216 896 0 724.064 0 512c0-132.064 88.928-248.512 224.256-317.632 0-.864-.256-1.44-.256-2.368 0-57.376-42.848-119.136-61.696-151.552h.064A29.107 29.107 0 0 1 160 28.992C160 12.992 172.96 0 188.992 0c3.008 0 8.288.8 8.16.448 100 16.384 194.208 108.256 216.096 134.88C445.216 130.624 478.176 128 512 128c282.72 0 512 171.936 512 384S794.752 896 512 896zm0-704c-29.344 0-59.456 2.24-89.472 6.624-3.104.512-6.208.672-9.28.672-19.008 0-37.216-8.448-49.472-23.36-13.696-16.672-52.672-53.888-98.72-81.248 12.48 28.64 22.24 60.736 22.912 93.824.192 2.048.288 4.128.288 5.888a63.98 63.98 0 0 1-34.88 56.992C134.784 311.936 64 409.376 64 512c0 176.448 200.96 320 448 320 246.976 0 448-143.552 448-320S759.008 192 512 192z"/><glyph unicode="" d="M1021.568 369.44L893.504 849.632C885.76 876.928 860.448 896 832 896H192c-28.48 0-53.76-19.072-61.504-46.368L2.432 369.44C.8 363.616 0 357.76 0 352V128C0 57.312 57.312 0 128 0h768c70.688 0 128 57.312 128 128v224c0 5.76-.8 11.616-2.432 17.44zM960 128c0-35.264-28.736-64-64-64H128c-35.296 0-64 28.736-64 64v224l128.032 480.032h639.904L960 352V128zM759.744 768H264.256c-14.496 0-27.2-9.76-30.944-23.776l-110.24-384c-2.528-9.632-.512-19.872 5.568-27.744S144.064 320 153.984 320H300.16l46.304-92.64c10.88-21.664 33.024-35.36 57.28-35.36h216.512c24.256 0 46.368 13.696 57.248 35.36L723.808 320h146.176c9.952 0 19.328 4.64 25.376 12.512s8.064 18.112 5.568 27.744l-110.24 384C786.944 758.272 774.24 768 759.744 768zm17.248-384h-53.184c-24.384 0-46.304-13.504-57.248-35.36L620.256 256H403.744l-46.304 92.64C346.496 370.496 324.576 384 300.192 384H170.688l93.568 352h495.488l93.568-352h-76.32z"/><glyph unicode="" d="M899.552 799.296l-38.88 116.96C852 942.4 827.552 960 800 960H224c-27.584 0-52-17.6-60.736-43.744l-39.2-117.024C90.656 797.088 64 769.952 64 736v-96c0-35.328 28.672-64 64-64h33.088c0-2.4-.96-4.672-.672-7.072l64-576C228-39.424 255.36-64 288-64h448c32.64 0 60 24.576 63.552 56.928l64 576c.32 2.4-.672 4.672-.672 7.072H896c35.328 0 64 28.672 64 64v96c0 34.08-26.88 61.344-60.448 63.296zM224 896h576l32-96H192l32 96zM288 0l-10.656 96h469.312L736 0H288zm462.176 128H273.76l-35.552 320H785.76l-35.584-320zm39.136 352H234.656L224 576h576l-10.688-96zM896 640H128v96h768v-96z"/><glyph unicode="" d="M768 960H256c-53.056 0-96-42.976-96-96V32c0-53.056 42.976-96 96-96h512c52.992 0 96 43.008 96 96v832c0 53.056-43.008 96-96 96zm32-928c0-17.632-14.368-32-32-32H256c-17.664 0-32 14.304-32 32v64.128h576V32zm0 96.128H224V768h576V128.128zM800 800H224v64c0 17.664 14.336 32 32 32h512c17.632 0 32-14.336 32-32v-64zm-224 48c0-8.832-7.2-16-16-16h-96c-8.864 0-16 7.168-16 16 0 8.864 7.136 16 16 16h96c8.8 0 16-7.136 16-16zM544 48.128c0-8.8-7.2-16-16-16h-32c-8.832 0-16 7.2-16 16 0 8.864 7.168 16 16 16h32c8.8 0 16-7.136 16-16z"/><glyph unicode="" d="M928 960H224c-53.024 0-96-42.944-96-96v-64H96c-53.024 0-96-42.944-96-96V64C0-6.688 57.312-64 128-64h768c70.688 0 128 57.312 128 128v800c0 53.056-43.008 96-96 96zm32-896c0-35.264-28.736-64-64-64H128C92.704 0 64 28.736 64 64v640c0 17.664 14.336 32 32 32h32V96c0-17.696 14.304-32 32-32s32 14.304 32 32v768c0 17.664 14.336 32 32 32h704c17.632 0 32-14.336 32-32V64zM623.936 543.84c-8.8 0-16 7.168-16 16s7.2 16 16 16h256c8.864 0 16-7.168 16-16s-7.136-16-16-16h-256zm0 96c-8.8 0-16 7.168-16 16s7.2 16 16 16h256c8.864 0 16-7.168 16-16s-7.136-16-16-16h-256zm0 96c-8.8 0-16 7.168-16 16s7.2 16 16 16h256c8.864 0 16-7.168 16-16s-7.136-16-16-16h-256zM528 95.872c8.832 0 16-7.2 16-16 0-8.864-7.2-16-16-16H272c-8.832 0-16 7.136-16 16 0 8.8 7.168 16 16 16h256zm0 96c8.832 0 16-7.2 16-16 0-8.864-7.2-16-16-16H272c-8.832 0-16 7.136-16 16 0 8.8 7.168 16 16 16h256zm0 96c8.832 0 16-7.2 16-16 0-8.864-7.2-16-16-16H272c-8.832 0-16 7.136-16 16 0 8.8 7.168 16 16 16h256zm352-192c8.8 0 16-7.2 16-16 0-8.864-7.2-16-16-16H624c-8.864 0-16 7.136-16 16 0 8.8 7.136 16 16 16h256zm0 96c8.8 0 16-7.2 16-16 0-8.864-7.2-16-16-16H624c-8.864 0-16 7.136-16 16 0 8.8 7.136 16 16 16h256zm0 96c8.8 0 16-7.2 16-16 0-8.864-7.2-16-16-16H624c-8.864 0-16 7.136-16 16 0 8.8 7.136 16 16 16h256zm0 192c8.8 0 16-7.168 16-16s-7.2-16-16-16H272c-8.832 0-16 7.168-16 16s7.168 16 16 16h608zm0-96c8.8 0 16-7.2 16-16 0-8.864-7.2-16-16-16H272c-8.832 0-16 7.136-16 16 0 8.8 7.168 16 16 16h608zM288 544h224c17.696 0 32 14.304 32 32v223.872c0 17.696-14.304 32-32 32H288c-17.696 0-32-14.304-32-32V576c0-17.664 14.304-32 32-32zm32 224h160V608H320v160z"/><glyph unicode="" d="M896 800H128C57.312 800 0 742.656 0 672V256c0-70.688 57.312-128 128-128h768c70.688 0 128 57.312 128 128v416c0 70.656-57.312 128-128 128zM64 632l223.968-168L64 296v336zm896-376c0-35.328-28.736-64-64-64H128c-35.296 0-64 28.672-64 64l250.624 188L454.4 339.136c17.056-12.736 37.312-19.2 57.6-19.2 20.256 0 40.512 6.432 57.568 19.2L709.376 444 960 256zm0 40L736 464l224 168V296zm-409.632 68.736c-11.168-8.384-24.416-12.8-38.368-12.8s-27.232 4.448-38.4 12.8L64 672c0 35.296 28.704 64 64 64h768c35.264 0 64-28.704 64-64L550.368 364.736z"/><glyph unicode="" d="M933.248 624.896c-40 10.496-134.048 10.368-271.616 14.016 6.496 30.016 8 57.088 8 105.152C669.632 858.88 585.984 960 512 960c-52.256 0-95.328-42.72-96-95.264-.704-64.448-20.64-175.744-128-232.192-7.872-4.16-30.4-15.264-33.696-16.704L256 614.4c-16.8 14.496-40.096 25.6-64 25.6H96c-52.928 0-96-43.072-96-96V32c0-52.928 43.072-96 96-96h96c38.08 0 69.952 23.008 85.376 55.264.384-.128 1.056-.32 1.504-.384 2.112-.576 4.608-1.184 7.648-1.984.576-.16.864-.224 1.472-.384 18.432-4.576 53.92-13.056 129.76-30.496C434.016-45.696 519.904-64 608.864-64h174.944c53.312 0 91.744 20.512 114.624 61.696.32.64 7.68 15.008 13.696 34.432 4.512 14.624 6.176 35.328.736 56.32 34.368 23.616 45.44 59.328 52.64 82.56 12.064 38.112 8.448 66.752.064 87.264 19.328 18.24 35.808 46.048 42.752 88.512 4.32 26.304-.32 53.376-12.448 75.904 18.112 20.352 26.368 45.952 27.328 69.632l.384 6.688c.224 4.192.416 6.784.416 16 0 40.416-28 91.968-90.752 109.888zM224 32c0-17.696-14.304-32-32-32H96C78.304 0 64 14.304 64 32v512c0 17.696 14.304 32 32 32h96c17.696 0 32-14.304 32-32V32zm735.264 462.88C958.624 479.072 952 448 896 448h-64c-8.864 0-16-7.168-16-16s7.136-16 16-16h62.016c48 0 54.304-39.808 51.2-59.008C941.248 333.12 930.048 288 876 288h-76c-8.864 0-16-7.136-16-16 0-8.8 7.136-16 16-16h63.008c54.016 0 49.248-41.184 41.504-65.76C894.304 157.952 888.064 128 820 128h-52.192c-8.864 0-16-7.136-16-16 0-8.8 7.136-16 16-16h50.176c35.008 0 36.64-33.12 32.992-44.992-4-12.992-8.736-22.624-8.928-23.072C832.384 10.496 816.8 0 783.808 0H608.864c-87.872 0-175.04 19.936-177.28 20.448-132.928 30.624-139.936 32.992-148.288 35.36 0 0-27.072 4.576-27.072 28.192L256 525.984c0 15.008 9.568 28.576 25.408 33.344 1.984.768 4.672 1.6 6.592 2.4C434.176 622.272 478.688 755.008 480 864c.192 15.328 12 32 32 32 33.824 0 93.632-67.904 93.632-151.936 0-75.872-3.072-88.992-29.632-168.064 320 0 317.76-4.608 345.984-12C956.992 553.984 960 524.992 960 515.008c0-10.976-.32-9.376-.736-20.128zM144 128c-26.496 0-48-21.504-48-48s21.504-48 48-48 48 21.504 48 48-21.504 48-48 48zm0-64c-8.8 0-16 7.2-16 16s7.2 16 16 16 16-7.2 16-16-7.2-16-16-16z"/><glyph unicode="" d="M864 960H160c-70.688 0-128-57.312-128-128V64C32-6.688 89.312-64 160-64h704c70.688 0 128 57.312 128 128v768c0 70.688-57.312 128-128 128zm64-896c0-35.264-28.736-64-64-64H160c-35.296 0-64 28.736-64 64v768c0 35.296 28.704 64 64 64h704c35.264 0 64-28.704 64-64V64zm-96 768H192c-17.696 0-32-14.304-32-32V224c0-17.696 14.304-32 32-32h640c17.696 0 32 14.304 32 32v576c0 17.696-14.304 32-32 32zm0-32V356.192l-104 112.96C721.888 476.064 713.184 480 704 480s-17.952-3.936-24-10.848l-83.328-94.4L344 661.152C337.92 668.064 329.184 672 320 672s-17.92-3.936-24-10.848L192 541.216V800h640zM192 492.8L320 640l276.672-313.632L685.056 224H192v268.8zM727.68 224L617.984 350.56 704 448l128-140.128V224H727.68zM640 544c52.992 0 96 42.976 96 96s-43.008 96-96 96c-53.056 0-96-42.976-96-96s42.944-96 96-96zm0 160c35.264 0 64-28.704 64-64s-28.736-64-64-64c-35.328 0-64 28.704-64 64s28.672 64 64 64z"/><glyph unicode="" d="M1005.248 717.28l-192 192c-12 12-28.32 18.72-45.248 18.72H96c-52.928 0-96-43.04-96-96V64c0-52.928 43.072-96 96-96h832c52.928 0 96 43.072 96 96v608a64.04 64.04 0 0 1-18.752 45.28zM960 64c0-17.696-14.304-32-32-32H96c-17.696 0-32 14.304-32 32v768c0 17.696 14.304 32 32 32h640V736h-.064c0-53.024 43.008-96 96-96H960V64zm-96.064 608h-32c-35.264 0-64 28.704-64 64H768v128l192-192h-96.064zM496 704c-8.832 0-16 7.136-16 16s7.168 16 16 16h160c8.8 0 16-7.168 16-16s-7.2-16-16-16H496zm0-96c-8.832 0-16 7.168-16 16s7.168 16 16 16h160c8.8 0 16-7.168 16-16s-7.2-16-16-16H496zm-16-80c0 8.864 7.168 16 16 16h384c8.8 0 16-7.168 16-16s-7.2-16-16-16H496c-8.832 0-16 7.168-16 16zm400-176c8.8 0 16-7.136 16-16 0-8.8-7.2-16-16-16H144c-8.832 0-16 7.2-16 16 0 8.864 7.168 16 16 16h736zm0-96c8.8 0 16-7.136 16-16 0-8.8-7.2-16-16-16H144c-8.832 0-16 7.2-16 16 0 8.864 7.168 16 16 16h736zm0-96c8.8 0 16-7.136 16-16 0-8.8-7.2-16-16-16H144c-8.832 0-16 7.2-16 16 0 8.864 7.168 16 16 16h736zm0 288c8.8 0 16-7.168 16-16s-7.2-16-16-16H144c-8.832 0-16 7.136-16 16s7.168 16 16 16h736zm-720 64h224c17.696 0 32 14.304 32 32v192c0 17.696-14.304 32-32 32H160c-17.696 0-32-14.304-32-32V544c0-17.664 14.304-32 32-32zm32 192h160V576H192v128z"/><glyph unicode="" d="M944 288h-86.112c-1.44 7.648-3.2 15.136-5.12 22.592l153.568 76.768c15.808 7.904 22.176 27.136 14.304 42.944-7.936 15.808-27.072 22.144-42.944 14.304L831.2 371.392C775.328 491.968 653.44 576 512 576c-172.224 0-315.68-124.416-345.888-288H80c-44.096 0-80-35.872-80-80 0-15.68 5.76-30.816 16.16-42.528L128 39.648V16c0-44.128 35.904-80 80-80h608c44.128 0 80 35.872 80 80v23.648l111.808 125.824A63.938 63.938 0 0 1 1024 208c0 44.128-35.872 80-80 80zm-118.432 0h-17.984l15.936 8c.608-2.688 1.472-5.28 2.048-8zM512 544c128.928 0 240-76.8 290.624-186.912l-28.512-14.24C728.8 442.528 628.64 512 512 512c-137.024 0-251.488-95.776-280.64-224h-32.896C228.192 433.888 357.472 544 512 544zm146.432-256C633.696 344.416 577.44 384 512 384s-121.664-39.584-146.432-96H331.2c26.432 74.432 97.376 128 180.8 128 78.88 0 146.816-47.872 176.256-116.064L658.432 288zM512 320c-28.256 0-53.44-12.512-71.04-32h-39.168C424 326.048 464.832 352 512 352c47.136 0 88-25.952 110.176-64h-39.2c-17.536 19.488-42.72 32-70.976 32zm0 128c-101.28 0-186.944-67.584-214.56-160h-33.024C292.96 398.208 392.96 480 512 480c103.872 0 193.376-62.336 233.44-151.488l-28.576-14.272C682.048 392.864 603.36 448 512 448zM832 64V16c0-8.832-7.2-16-16-16H208c-8.832 0-16 7.168-16 16v48L64 208c0 8.832 7.168 16 16 16h864c8.8 0 16-7.168 16-16L832 64zM255.264 585.216c-.224.448-.384.864-.576 1.344-16.608 40.096-.096 79.424 14.816 114.912 14.112 33.664 26.624 63.488 13.696 92.576-.064.128-.096.256-.16.384l-.096.288c-.032.064-.032.128-.032.192-.64 1.696-1.024 3.488-1.024 5.408 0 8.64 7.008 15.68 15.68 15.68 6.656 0 12.32-4.16 14.592-10.016 17.856-40.672 1.632-80.672-13.504-116.704-14.016-33.344-25.408-64.32-13.408-92.544a1.09 1.09 0 0 0 0-.64c.352-1.28.576-2.624.576-4 0-8.864-7.2-16.096-16.064-16.096-6.208 0-11.52 3.52-14.176 8.64h-.064c-.096.192-.16.384-.256.576zm389.664 4.672c-.192.416-.352.864-.512 1.28-16.608 40.096-.128 79.456 14.752 114.944 14.144 33.664 26.624 63.488 13.696 92.576 0 .128-.064.256-.128.384-.064.096-.064.192-.128.288v.192c-.608 1.696-1.056 3.488-1.056 5.408 0 8.64 7.04 15.68 15.68 15.68 6.688 0 12.32-4.128 14.624-10.016 17.856-40.672 1.632-80.672-13.504-116.704-14.016-33.344-25.376-64.32-13.44-92.544.128-.224.128-.416.064-.64.32-1.28.576-2.624.576-4 0-8.864-7.264-16.096-16.128-16.096-6.176 0-11.488 3.552-14.176 8.672h-.064c-.064.192-.128.384-.256.576zm-164.32 139.328c-.224.448-.384.864-.608 1.312-16.64 40.096-.128 79.456 14.784 114.944 14.112 33.664 26.624 63.488 13.696 92.576-.032.128-.096.256-.128.384l-.096.288c-.032.064-.032.128-.032.192-.64 1.696-1.024 3.488-1.024 5.408 0 8.64 7.04 15.68 15.68 15.68 6.688 0 12.32-4.16 14.624-10.048C555.36 909.28 539.136 869.28 524 833.248c-14.016-33.344-25.408-64.32-13.408-92.544a1.09 1.09 0 0 0 0-.64c.352-1.28.576-2.624.576-4 0-8.864-7.2-16.096-16.064-16.096-6.176 0-11.488 3.552-14.176 8.672h-.064c-.096.192-.16.384-.256.576z"/><glyph unicode="" d="M1000 753.984l-160 128A64.09 64.09 0 0 1 800 896H224a64.024 64.024 0 0 1-40-14.016l-160-128c-20.928-16.768-29.184-44.8-20.704-70.24l64-192a63.986 63.986 0 0 1 39.968-40.288A64.072 64.072 0 0 1 128 448a64.051 64.051 0 0 1 32 8.576V64c0-35.328 28.672-64 64-64h576c35.328 0 64 28.672 64 64v392.576A64.051 64.051 0 0 1 896 448a63.93 63.93 0 0 1 20.736 3.456c18.88 6.464 33.632 21.376 39.936 40.288l64 192c8.512 25.44.256 53.472-20.672 70.24zM632.128 832c-17.696-37.152-64.576-64-120.128-64s-102.464 26.848-120.128 64h240.256zM896 512l-96 64V64H224v512l-96-64-64 192 160 128h133.664c17.824-55.104 79.872-96 154.336-96 74.432 0 136.512 40.896 154.304 96H800l160-128-64-192z"/><glyph unicode="" d="M704 672c-1.984-85.6-66.24-157.888-66.24-157.888C637.76 673.344 512 800 512 800s-1.696-94.784-65.376-190.336C382.944 832.608 191.84 960 191.84 960 287.392 609.664 160 482.24 160 227.456 160 77.984 286.528-64 480-64c286.624 0 342.048 105.216 371.68 223.776C892.512 323.008 831.36 512.768 704 672zm85.632-496.672C769.056 93.12 745.824 0 480 0 319.744 0 224 115.648 224 227.456c0 85.632 15.616 155.936 32.128 230.368 20.992 94.368 42.496 190.976 33.184 318.752 98.688-136.608 133.824-317.6 133.824-317.6s91.872 128.992 116.576 188.896C558.624 609.376 576 480 576 352c0 0 84.992 70.016 148.736 175.296 67.136-120.384 91.328-246.24 64.896-351.968zM717.824 422.56l5.952-33.12c13.312-74.176 5.856-161.856-18.944-223.424-2.496-6.24-8.512-10.016-14.816-10.016-2.016 0-4.064.384-6.016 1.152-8.192 3.296-12.192 12.608-8.864 20.8 18.688 46.368 26.56 111.648 21.568 171.296-32.128-35.904-72.608-73.312-159.104-114.4l-16.192-7.648-5.824 16.896c-11.584 33.6-23.264 67.552-28.32 114.88-17.312-27.296-33.12-51.616-59.68-87.776l-16.256-22.144-11.264 25.088c-27.552 61.6-48.544 109.696-65.184 152C319.488 376.704 308 319.52 308 204.032c0-8.832-7.2-16-16-16-8.864 0-16 7.168-16 16 0 150.688 20 208.736 41.12 270.208l16.64 48.32 15.328-43.2c16.48-46.432 38.176-97.6 68.864-166.784 20.224 28.576 33.792 50.08 50.176 76.032l48.576 76.096v-54.688c0-61.568 11.072-101.792 23.264-138.336 85.088 42.816 116.96 80.064 150.656 119.36l27.2 31.52z"/><glyph unicode="" d="M939.616 811.616c112.512-112.448 112.512-294.816 0-407.264L588.672 53.376c-12.512-12.544-32.736-12.544-45.248 0-12.576 12.512-12.576 32.704 0 45.248l346.432 346.464c87.488 87.488 87.488 229.248-.064 316.768-87.36 87.488-229.248 87.488-316.736 0L110.752 304.992c-62.496-62.464-62.496-163.776 0-226.24 62.496-62.496 163.744-62.496 226.24 0l466.88 461.344c37.44 37.44 37.44 98.336 0 135.776-37.44 37.408-98.304 37.408-135.744 0L317.12 324.864c-12.512-12.512-32.736-12.512-45.248 0-12.512 12.544-12.512 32.736 0 45.28L622.848 721.12c62.432 62.464 163.744 62.464 226.24 0 62.496-62.496 62.496-163.776 0-226.272L382.208 33.472c-87.296-87.328-229.408-87.328-316.736 0s-87.328 229.472 0 316.8l466.88 461.344c112.448 112.512 294.816 112.512 407.264 0z"/><glyph unicode="" d="M1004.8 601.6l-96 127.936c-3.744 5.024-8.192 9.376-12.8 13.536V896c0 35.328-28.672 64-64 64H192c-35.36 0-64-28.672-64-64V743.04c-4.608-4.128-9.056-8.448-12.8-13.44L19.232 601.632C6.816 585.12 0 564.672 0 544v-32c0-52.928 43.072-96 96-96V0c0-35.328 28.672-64 64-64h704c35.328 0 64 28.672 64 64v416c52.928 0 96 43.072 96 96v32c0 20.672-6.816 41.12-19.2 57.6zM832 896V768H192v128h640zM326.176 480H192.128l128 224h70.048l-64-224zm97.312 224H496V480H359.488l64 224zM528 704h72.512l64-224H528v224zm105.76 0h70.048l128-224H697.76l-64 224zM64 512v32c0 6.944 2.24 13.664 6.4 19.2l96 128A31.978 31.978 0 0 0 192 704h91.264l-128-224H96c-17.664 0-32 14.304-32 32zM640 0H400v320h240V0zm224 0H672v320c0 17.696-14.368 32-32 32H400c-17.664 0-32-14.304-32-32V0H160v416h704V0zm96 512c0-17.696-14.304-32-32-32h-59.328l-128 224H832c10.048 0 19.552-4.736 25.568-12.8l96-128A31.735 31.735 0 0 0 960 544v-32z"/><glyph unicode="" d="M938.688 864H800v64c0 17.696-14.304 32-32 32s-32-14.304-32-32v-64H544v64c0 17.696-14.336 32-32 32s-32-14.304-32-32v-64H288v64c0 17.696-14.336 32-32 32s-32-14.304-32-32v-64H85.344C38.208 864 0 825.824 0 778.688V21.344C0-25.792 38.208-64 85.344-64h853.344C985.824-64 1024-25.792 1024 21.344v757.344c0 47.136-38.176 85.312-85.312 85.312zM960 21.344C960 9.568 950.432 0 938.688 0H85.344C73.568 0 64 9.568 64 21.344v757.344C64 790.432 73.568 800 85.344 800H224v-64c0-17.696 14.336-32 32-32s32 14.304 32 32v64h192v-64c0-17.696 14.336-32 32-32s32 14.304 32 32v64h192v-64c0-17.696 14.304-32 32-32s32 14.304 32 32v64h138.688c11.744 0 21.312-9.568 21.312-21.312V21.344zM224 576h128v-96H224zm0-160h128v-96H224zm0-160h128v-96H224zm224 0h128v-96H448zm0 160h128v-96H448zm0 160h128v-96H448zm224-320h128v-96H672zm0 160h128v-96H672zm0 160h128v-96H672z"/><glyph unicode="" d="M512 320c0 35.346 28.654 64 64 64s64-28.654 64-64c0-35.346-28.654-64-64-64-35.346 0-64 28.654-64 64zm416.032 224c-.032 0-.032 0 0 0L928 736v96c0 53.024-43.008 96-96 96H176C78.944 928 0 849.024 0 752V112C0 14.976 78.944-64 176-64h576c97.024 0 176 78.976 176 176v48h.032c127.936 96.032 127.936 287.968 0 384zM176 864h656c17.632 0 32-14.336 32-32V634.112c-10.048 3.584-20.736 5.888-32 5.888h-.032v160c0 17.696-14.336 32-32 32h-672c-17.664 0-32-14.304-32-32V673.824C76.224 694.016 64 721.536 64 752c0 61.856 50.112 112 112 112zm623.968-96h-672v32h672v-32zm0-32v-32h-672v32h672zm0-64v-32H176c-17.28 0-33.408 4.224-48 11.2V672h671.968zM864 112C864 50.144 813.856 0 752 0H176C114.112 0 64 50.144 64 112v504.352C94.432 591.168 133.472 576 176 576h656c17.632 0 32-14.336 32-32v-64H576c-88.384 0-160-71.616-160-160s71.648-160 160-160h288v-48zm40.864 112H576c-52.928 0-96 43.072-96 96s43.072 96 96 96h288c19.744.256 39.328 9.824 51.264 25.728 3.328 4.48 5.92 9.504 8 14.752.288.704.8 1.248 1.056 1.984C947.328 428.288 960 391.296 960 352c0-49.216-19.872-94.88-55.136-128z"/><glyph unicode="" d="M702.432 923.2c-262.464 105.088-560.48-22.464-665.6-284.96C-68.32 375.712 59.296 77.664 321.792-27.424c262.496-105.12 560.512 22.464 665.632 284.96 105.152 262.528-22.496 560.512-284.992 665.664zM345.6 31.968C116.288 123.808 4.416 385.056 96.224 614.4c91.84 229.312 353.12 341.216 582.464 249.344 229.312-91.808 341.184-353.088 249.376-582.4C836.192 52 574.944-59.84 345.6 31.968zm190.368 475.328c-32.8 13.152-70.08-2.816-83.232-35.616s2.816-70.048 35.584-83.2c32.8-13.152 70.112 2.816 83.232 35.584 13.12 32.8-2.816 70.048-35.584 83.232zm-35.744-89.152c-16.384 6.592-24.352 25.216-17.824 41.632 6.592 16.384 25.248 24.352 41.632 17.824 16.352-6.56 24.32-25.216 17.792-41.632-6.56-16.384-25.216-24.352-41.6-17.824zm83.264 207.936c-98.432 39.424-210.176-8.448-249.6-106.848-39.424-98.432 8.448-210.176 106.848-249.6 98.432-39.424 210.176 8.416 249.6 106.848s-8.384 210.208-106.848 249.6zM464.576 329.056c-65.536 26.208-97.472 100.896-71.264 166.4 26.24 65.504 100.864 97.472 166.368 71.264 65.568-26.24 97.504-100.928 71.328-166.432-26.272-65.504-100.928-97.504-166.432-71.232zm285.248 23.648h-.064c-26.144-65.248-76.256-113.792-136.192-139.712-.224-.096-.352-.352-.672-.48a15.99 15.99 0 0 0-20.992 8.448c-3.488 8.096.32 17.504 8.384 20.96 52.672 22.56 96.8 65.216 119.808 122.688v-.032c3.296 8.224 12.608 12.224 20.8 8.896 8.192-3.264 12.192-12.576 8.928-20.768zm109.856-26.752c8.192-3.296 12.192-12.608 8.928-20.8-39.2-97.856-114.432-170.72-204.32-209.536-.384-.16-.672-.512-1.056-.704-8.128-3.456-17.504.256-20.992 8.416-3.488 8.128.32 17.536 8.384 20.992 82.816 35.456 152.128 102.496 188.256 192.736 3.296 8.192 12.608 12.192 20.8 8.896zm-59.424 23.776c8.192-3.296 12.192-12.608 8.928-20.8-32.672-81.568-95.36-142.24-170.24-174.592-.352-.192-.544-.48-.864-.64-8.128-3.456-17.504.288-20.992 8.416-3.488 8.128.32 17.536 8.448 21.024h-.064c67.808 29.024 124.48 83.84 153.984 157.696 3.296 8.224 12.608 12.192 20.8 8.896zm-367.84 325.088c3.488-8.16-.288-17.536-8.416-21.056-52.672-22.528-96.8-65.216-119.776-122.624h-.032c-3.264-8.192-12.576-12.192-20.8-8.896-8.192 3.296-12.192 12.576-8.896 20.8h.032c26.112 65.216 76.256 113.792 136.192 139.712.224.096.384.352.672.448 8.128 3.488 17.536-.224 21.024-8.384zm-50.4 117.664c3.488-8.128-.288-17.504-8.384-21.024C290.816 736 221.536 668.96 185.376 578.752c-3.296-8.224-12.608-12.192-20.8-8.896-8.224 3.264-12.224 12.576-8.896 20.832 39.2 97.856 114.4 170.688 204.32 209.536.32.16.608.512.992.672 8.128 3.456 17.536-.288 21.024-8.416zm16.768-79.808v-.096C331.04 683.584 274.336 628.736 244.8 554.88c-3.296-8.224-12.608-12.16-20.8-8.896-8.16 3.328-12.192 12.608-8.864 20.832 32.64 81.536 95.328 142.272 170.24 174.656.32.128.512.448.832.576 8.128 3.488 17.536-.288 21.024-8.384 3.488-8.16-.32-17.536-8.416-20.992z"/><glyph unicode="" d="M794.624 593.76A32.041 32.041 0 0 1 768 608h-32c-17.696 0-32-14.304-32-32V384c0-17.696 14.304-32 32-32h128c17.696 0 32 14.304 32 32v48a32.177 32.177 0 0 1-5.376 17.76l-96 144zM864 384H736v192h32l96-144v-48zm143.872 85.248l-128 192C862.016 688.032 832.128 704 800 704H672v64c0 52.928-43.072 96-96 96H96c-52.928 0-96-43.072-96-96V416c0-52.928 43.072-96 96-96v-96c0-52.928 43.072-96 96-96h36.544c14.304-55.072 64-96 123.488-96 59.424 0 109.12 40.928 123.424 96H644.48c14.304-55.072 64-96 123.488-96 59.424 0 109.12 40.928 123.424 96H928c52.928 0 96 43.072 96 96v192c0 19.008-5.568 37.44-16.128 53.248zM96 384c-17.664 0-32 14.304-32 32v352c0 17.696 14.336 32 32 32h480c17.696 0 32-14.304 32-32V416c0-17.696-14.304-32-32-32H96zM352.032 96c-35.36 0-64 28.672-64 64s28.64 64 64 64c35.328 0 64-28.672 64-64s-28.704-64-64-64zM768 96c-35.36 0-64 28.672-64 64s28.64 64 64 64c35.328 0 64-28.672 64-64s-28.672-64-64-64zm192 128c0-17.696-14.304-32-32-32h-36.576c-14.304 55.072-64 96-123.424 96-59.488 0-109.184-40.928-123.488-96H475.488c-14.304 55.072-64 96-123.424 96-59.488 0-109.184-40.928-123.488-96H192c-17.664 0-32 14.304-32 32v96h416c52.928 0 96 43.072 96 96v224h128a32.041 32.041 0 0 0 26.624-14.24l128-192A32.177 32.177 0 0 0 960 416V224z"/><glyph unicode="" d="M496 960C222.048 960 0 737.952 0 464S222.048-32 496-32s496 222.048 496 496-222.048 496-496 496zm431.2-480H735.328c-1.76 70.88-14.368 138.592-36.736 200.576 43.2 18.016 83.136 41.984 119.552 70.304C882.88 678.208 923.36 583.84 927.2 480zM478.304 32.896c-53.184 44.288-97.792 101.792-130.432 168.576C389.76 214.56 434.144 221.728 480 223.2V32.832c-.576 0-1.12.032-1.696.064zm35.328 862.208c60.352-50.24 109.6-117.536 142.912-196.032-45.632-15.584-94.112-24.64-144.576-26.24V895.2c.608-.032 1.12-.064 1.664-.096zm53.312-5.44c88.32-14.688 167.552-55.936 229.248-115.648-33.504-25.696-70.112-47.456-109.696-63.936-29.12 69.024-69.984 130.048-119.552 179.584zM480 895.2V672.832c-50.464 1.632-98.976 10.656-144.576 26.24 33.312 78.496 82.56 145.792 142.912 196.032.576.032 1.088.064 1.664.096zM305.472 710.048c-39.52 16.48-76.16 38.24-109.664 63.936 61.664 59.712 140.928 100.96 229.248 115.648-49.6-49.504-90.432-110.528-119.584-179.584zm17.888-40.48c49.344-17.12 101.92-27.104 156.64-28.768V480H288.672c1.728 67.008 13.6 131.04 34.688 189.568zM480 448V255.2c-50.464-1.536-99.264-9.792-145.248-24.608C307.04 296.576 290.688 370.08 288.672 448H480zM425.056 38.336C345.92 51.488 274.048 85.952 215.616 136c31.52 21.856 65.6 40.352 102.016 54.4 27.904-57.856 64.416-109.216 107.424-152.064zM512 32.8v190.368c45.824-1.472 90.24-8.64 132.128-21.728-32.672-66.784-77.248-124.288-130.432-168.576-.544 0-1.12-.032-1.696-.064zm162.368 157.6c36.384-14.048 70.432-32.576 102.016-54.4-58.432-50.016-130.304-84.512-209.44-97.664 43.008 42.848 79.488 94.208 107.424 152.064zm-17.12 40.192C611.232 245.408 562.432 253.664 512 255.2V448h191.328c-2.016-77.92-18.4-151.424-46.08-217.408zM512 480v160.8c54.688 1.664 107.264 11.616 156.64 28.736 21.056-58.528 32.928-122.56 34.688-189.568H512zM173.888 750.88c36.416-28.32 76.352-52.288 119.52-70.304C271.04 618.592 258.432 550.88 256.672 480H64.8c3.84 103.84 44.32 198.208 109.088 270.88zM64.8 448h191.872c1.984-81.76 19.072-158.976 48.096-228.384-40.544-15.808-78.336-36.864-113.216-61.792C116.416 232.608 68.992 334.848 64.8 448zm735.648-290.144c-34.88 24.896-72.672 45.984-113.248 61.792 29.056 69.408 46.112 146.624 48.128 228.384H927.2c-4.192-113.184-51.648-215.424-126.752-290.176z"/><glyph unicode="" d="M480 640c0 17.673 14.327 32 32 32s32-14.327 32-32c0-17.673-14.327-32-32-32-17.673 0-32 14.327-32 32zm0-384c0 17.673 14.327 32 32 32s32-14.327 32-32c0-17.673-14.327-32-32-32-17.673 0-32 14.327-32 32zM288 448c0 17.673 14.327 32 32 32s32-14.327 32-32c0-17.673-14.327-32-32-32-17.673 0-32 14.327-32 32zm384 0c0 17.673 14.327 32 32 32s32-14.327 32-32c0-17.673-14.327-32-32-32-17.673 0-32 14.327-32 32zM344.224 312.256c0 17.673 14.327 32 32 32s32-14.327 32-32c0-17.673-14.327-32-32-32-17.673 0-32 14.327-32 32zm0 271.52c0 17.673 14.327 32 32 32s32-14.327 32-32c0-17.673-14.327-32-32-32-17.673 0-32 14.327-32 32zm271.52-271.52c0 17.673 14.327 32 32 32s32-14.327 32-32c0-17.673-14.327-32-32-32-17.673 0-32 14.327-32 32zM832 512c-2.24 0-4.128-1.056-6.304-1.28-11.136 55.84-37.44 105.792-73.504 147.008L706.24 907.712C700.64 938.016 674.176 960 643.328 960h-256c-30.848 0-57.28-22.016-62.944-52.32l-44.8-241.568C225.824 608.928 192 532.736 192 448c0-82.656 32.448-156.96 83.872-213.696l45.184-246.016C326.688-41.984 353.152-64 384-64h256c30.816 0 57.248 22.016 62.944 52.32l45.568 245.824c38.048 41.952 65.696 93.44 77.184 151.2 2.176-.288 4.064-1.344 6.304-1.344 35.328 0 64 28.672 64 64 0 35.36-28.672 64-64 64zM387.328 896h256l32-172.384C628.064 751.104 573.952 768 515.328 768c-58.592 0-112.736-16.896-160-44.384l32 172.384zM640 0H384l-32 172.384C399.232 144.928 453.376 128 512 128c58.592 0 112.768 16.928 160 44.384L640 0zM512 192c-141.152 0-256 114.88-256 256 0 141.152 114.848 256 256 256s256-114.848 256-256c0-141.12-114.88-256-256-256zm158.112 415.168c3.872-3.872 4.256-10.112.896-14.368l-77.632-96.672-59.136-71.2c-6.048-5.824-14.368-8.8-22.368-8.864-8.608.064-16.64 3.392-22.624 9.344-5.984 5.952-9.248 13.92-9.248 22.336 0 8.704 3.36 16.832 9.472 22.976l166.144 137.12c4.384 3.52 10.624 3.2 14.496-.672z"/><glyph unicode="" d="M1009.376 954.88A32.05 32.05 0 0 1 992 960c-6.176 0-12.384-1.76-17.76-5.376l-960-640A31.849 31.849 0 0 1 .192 284.672c1.216-11.808 8.896-22.016 19.936-26.368l250.368-100.192L388.224-47.904c5.632-9.888 16.096-16 27.424-16.128H416c11.232 0 21.664 5.952 27.424 15.552l66.464 110.816 310.24-124.064C823.936-63.264 827.936-64 832-64c5.44 0 10.816 1.376 15.68 4.128 8.448 4.736 14.24 13.056 15.872 22.624l160 960a32.072 32.072 0 0 1-14.176 32.128zM100.352 295.136l741.6 494.432-539.2-577.184c-2.848 1.696-5.376 3.936-8.512 5.184l-193.888 77.568zm225.696-105.248c-.064.128-.16.192-.224.32L932 839.008 415.232 33.824l-89.184 156.064zM806.944 12.512L533.632 121.824c-6.496 2.56-13.248 3.424-19.936 3.808L934.56 778.048 806.944 12.512z"/><glyph unicode="" d="M256 767.328V864c0 52.928-43.072 96-96 96s-96-43.072-96-96v-96.672C25.344 738.048 0 692.192 0 640s25.344-98.048 64-127.264V32c0-52.928 43.072-96 96-96s96 43.072 96 96v480.736c38.656 29.184 64 75.072 64 127.264s-25.344 98.048-64 127.328zM128 864c0 17.696 14.304 32 32 32s32-14.304 32-32v-67.2c-10.336 2.08-21.024 3.2-32 3.2s-21.664-1.12-32-3.2V864zm64-832c0-17.696-14.304-32-32-32s-32 14.304-32 32v451.264c10.336-2.144 21.024-3.264 32-3.264s21.664 1.12 32 3.264V32zm59.68 581.12c-.512-1.696-.96-3.36-1.568-5.056-3.04-8.448-6.944-16.448-12.096-23.552-.128-.192-.32-.32-.448-.512a96.827 96.827 0 0 0-19.712-20.064c-.128-.128-.224-.192-.32-.256a94.79 94.79 0 0 0-25.568-13.76C181.952 546.304 171.296 544 160 544s-21.952 2.304-32 5.952a94.79 94.79 0 0 0-25.568 13.76c-.096.064-.192.128-.32.256A96.827 96.827 0 0 0 82.4 584.032c-.128.192-.32.32-.448.512-5.152 7.136-9.056 15.136-12.096 23.552-.608 1.696-1.056 3.36-1.568 5.056C65.76 621.696 64 630.624 64 640c0 9.44 1.76 18.368 4.32 26.944.512 1.696.96 3.36 1.568 4.992 3.008 8.448 6.912 16.448 12.096 23.616.128.192.32.32.448.512 5.568 7.552 12.192 14.368 19.712 20.064.128.064.224.192.32.256 7.68 5.728 16.288 10.432 25.536 13.728 10.048 3.584 20.704 5.888 32 5.888s21.952-2.304 32-5.888a98.47 98.47 0 0 0 25.568-13.76c.096-.064.192-.192.32-.256 7.52-5.696 14.144-12.512 19.712-20.064.128-.192.32-.32.448-.512 5.152-7.136 9.056-15.136 12.064-23.584.608-1.632 1.088-3.296 1.568-4.992C254.24 658.368 256 649.44 256 640c0-9.376-1.76-18.304-4.32-26.88zM960 767.328V864c0 52.928-43.072 96-96 96s-96-43.072-96-96v-96.672c-38.688-29.28-64-75.136-64-127.328s25.312-98.048 64-127.264V32c0-52.928 43.072-96 96-96s96 43.072 96 96v480.736c38.624 29.184 64 75.072 64 127.264s-25.376 98.048-64 127.328zM832 864c0 17.696 14.304 32 32 32s32-14.304 32-32v-67.2a162.469 162.469 0 0 1-32 3.2c-11.008 0-21.696-1.12-32-3.2V864zm64-832c0-17.696-14.304-32-32-32s-32 14.304-32 32v451.264c10.304-2.144 20.992-3.264 32-3.264 10.944 0 21.632 1.12 32 3.264V32zm59.68 581.12c-.512-1.696-.992-3.36-1.568-5.056-3.072-8.448-6.944-16.448-12.128-23.552-.128-.192-.32-.32-.448-.512a97.479 97.479 0 0 0-19.68-20.064c-.128-.128-.256-.192-.32-.256-7.744-5.824-16.32-10.496-25.568-13.76C885.952 546.304 875.264 544 864 544c-11.328 0-21.952 2.304-32 5.952a94.316 94.316 0 0 0-25.568 13.76c-.128.064-.192.128-.32.256a96.188 96.188 0 0 0-19.744 20.064c-.128.192-.32.32-.448.512-5.12 7.136-9.056 15.136-12.064 23.552-.64 1.696-1.056 3.36-1.568 5.056C769.76 621.696 768 630.624 768 640c0 9.44 1.76 18.368 4.32 26.944.512 1.696.928 3.36 1.568 4.992 3.008 8.448 6.944 16.448 12.064 23.616.128.192.32.32.448.512 5.568 7.552 12.192 14.368 19.744 20.064.128.064.192.192.32.256a97.957 97.957 0 0 0 25.568 13.76C842.048 733.696 852.672 736 864 736c11.264 0 21.952-2.304 32-5.888 9.248-3.328 17.824-8 25.568-13.76.064-.064.192-.192.32-.256 7.488-5.696 14.112-12.512 19.68-20.064.128-.192.32-.32.448-.512 5.184-7.2 9.056-15.2 12.128-23.616.576-1.632 1.056-3.328 1.568-4.992C958.24 658.368 960 649.44 960 640c0-9.376-1.76-18.304-4.32-26.88zM608 383.328V864c0 52.928-43.072 96-96 96s-96-43.072-96-96V383.328C377.344 354.08 352 308.192 352 256s25.344-98.048 64-127.264V32c0-52.928 43.072-96 96-96s96 43.072 96 96v96.736c38.624 29.184 64 75.072 64 127.264s-25.376 98.048-64 127.328zM480 864c0 17.696 14.304 32 32 32s32-14.304 32-32V412.8c-10.368 2.048-21.056 3.2-32 3.2-10.976 0-21.664-1.12-32-3.2V864zm64-832c0-17.696-14.304-32-32-32s-32 14.304-32 32v67.264A157.314 157.314 0 0 1 512 96c10.944 0 21.632 1.12 32 3.264V32zm59.68 197.12c-.512-1.696-.992-3.36-1.568-5.056-3.072-8.448-6.944-16.448-12.128-23.552-.128-.192-.32-.32-.448-.512a97.479 97.479 0 0 0-19.68-20.064c-.128-.128-.256-.192-.32-.256-7.744-5.824-16.32-10.496-25.568-13.76C533.952 162.304 523.264 160 512 160c-11.296 0-21.952 2.304-32 5.952a94.79 94.79 0 0 0-25.568 13.76c-.096.064-.192.128-.32.256a96.827 96.827 0 0 0-19.712 20.064c-.128.192-.32.32-.448.512-5.152 7.136-9.056 15.136-12.096 23.552-.608 1.696-1.056 3.36-1.568 5.056C417.76 237.696 416 246.624 416 256c0 9.44 1.76 18.368 4.32 26.944.512 1.696.96 3.36 1.568 4.992 3.04 8.448 6.944 16.448 12.096 23.616.128.192.32.32.448.512 5.568 7.552 12.192 14.368 19.712 20.064.128.064.224.192.32.256a98.47 98.47 0 0 0 25.568 13.76C490.048 349.696 500.704 352 512 352c11.264 0 21.952-2.304 32-5.888 9.248-3.328 17.824-8 25.568-13.76.064-.064.192-.192.32-.256 7.488-5.696 14.112-12.512 19.68-20.064.128-.192.32-.32.448-.512 5.184-7.2 9.056-15.2 12.128-23.616.576-1.632 1.056-3.328 1.568-4.992C606.24 274.368 608 265.44 608 256c0-9.376-1.76-18.304-4.32-26.88z"/><glyph unicode="" d="M1005.28 621.248l-320 320c-15.872 15.872-38.88 22.24-60.672 16.864-11.488-2.816-21.76-8.736-29.888-16.864-7.264-7.264-12.736-16.256-15.872-26.304-14.496-47.008-39.552-87.872-76.64-124.928-49.536-49.504-114.048-87.008-182.304-126.656-72.448-41.984-147.296-85.504-208.64-146.816-52.128-52.192-87.616-110.24-108.416-177.632A64.08 64.08 0 0 1 18.72 274.72l320-320c15.872-15.872 38.88-22.24 60.672-16.864 11.488 2.88 21.76 8.736 29.888 16.864 7.264 7.264 12.736 16.256 15.872 26.368 14.528 47.008 39.584 87.872 76.704 124.928C571.36 155.52 635.84 192.96 704.16 232.576c72.384 42.048 147.264 85.568 208.576 146.88 52.128 52.128 87.616 110.24 108.448 177.632 6.976 22.72.832 47.424-15.904 64.16zM384 0C278.016 105.984 169.984 214.048 64 320c90.944 294.432 485.12 281.568 576 576 105.984-105.952 214.048-214.016 320.064-320C869.088 281.632 474.912 294.432 384 0zm241.984 483.2c-10.432 8.736-20.928 14.688-31.488 17.632-10.496 2.944-20.992 4.128-31.616 3.36-10.496-.8-21.248-3.2-32-7.328-10.752-4.192-21.568-8.736-32.448-14.016-17.184 19.744-34.368 39.264-51.552 57.376 7.744 7.008 15.264 10.56 22.496 10.816a72.28 72.28 0 0 0 20.864-2.112c6.752-1.696 12.928-3.136 18.624-4.256 5.76-1.12 10.752.128 15.136 3.808 4.64 4 7.2 9.184 7.552 15.424.32 6.304-2.048 12.448-7.328 18.432-6.752 7.744-14.88 12.448-24.64 14.176-9.632 1.696-19.488 1.568-29.76-.672-10.112-2.304-19.744-6.112-28.864-11.488s-16.448-10.88-21.888-16.256c-2.08 1.984-4.16 3.936-6.24 5.888-2.304 2.112-5.184 3.264-8.64 3.2-3.488 0-6.368-1.504-8.736-4.256-2.304-2.688-3.36-5.824-2.944-9.12.32-3.424 1.696-6.048 4.064-8.064 2.08-1.76 4.16-3.488 6.24-5.312-8.192-9.888-14.944-20.8-20.256-32.32-5.376-11.552-8.576-23.008-9.76-34.112-1.248-11.2-.064-21.44 3.36-30.944 3.424-9.568 9.76-17.696 19.008-25.376 15.072-12.512 32.8-17.824 53.376-16.64 20.512 1.248 42.624 7.36 66.4 20.128 18.88-21.824 37.824-43.488 56.736-63.616-8-6.752-15.008-10.624-21.184-11.872-6.176-1.312-11.68-1.184-16.672.32a53.032 53.032 0 0 0-13.888 6.688c-4.256 2.944-8.448 5.44-12.64 7.488-4.128 2.048-8.384 3.2-12.736 3.264s-8.992-2.048-14.112-6.432c-5.248-4.576-7.872-9.888-7.872-15.872 0-5.952 2.752-12 8.128-18.112 5.44-6.112 12.512-11.264 21.056-15.328s18.208-6.624 28.832-7.328c10.624-.736 21.824.864 33.632 5.248 11.872 4.32 23.616 12.128 35.2 23.744 5.568-5.44 11.2-10.624 16.8-15.616 2.368-2.048 5.248-3.072 8.736-2.816 3.36.128 6.304 1.696 8.64 4.512 2.368 2.88 3.36 6.048 3.008 9.376-.32 3.36-1.696 5.952-4 7.808a419.228 419.228 0 0 0-16.864 14.24c9.568 11.744 17.248 24.128 22.944 36.384 5.696 12.32 9.056 24.192 10.176 35.2 1.12 11.072-.192 21.056-3.808 30.112-3.584 9.184-9.952 17.056-19.072 24.64zm-178.912-21.696c-9.056-.384-16.96 2.624-23.872 9.312-2.944 2.816-4.992 6.24-6.24 10.304-1.312 4.064-1.76 8.512-1.248 13.376.448 4.8 1.888 9.824 4.384 14.88 2.368 5.056 5.888 10.112 10.368 15.008 16.224-16.128 32.416-33.824 48.64-52.128-12.288-6.752-22.976-10.368-32.032-10.752zm150.944-64.064c-2.88-5.312-6.176-10.048-10.048-14.176-17.952 18.112-35.872 38.016-53.76 58.432 4.576 2.048 9.376 4.192 14.56 6.368s10.368 3.616 15.552 4.512c5.312.8 10.56.576 15.808-.672 5.184-1.312 10.112-4.128 14.688-8.576 4.512-4.512 7.36-9.184 8.512-14.24 1.248-5.12 1.312-10.304.448-15.616-.928-5.344-2.816-10.656-5.76-16.032zm-127.072-147.2c6.304 5.088 15.584 4.832 21.376-1.056 6.272-6.24 6.272-16.448 0-22.688-.512-.512-1.056-.864-1.632-1.312l.064-.064c-20.256-15.392-36.896-29.248-54.848-47.2-16.224-16.192-30.88-33.248-43.552-50.56l-20.448-28a15.054 15.054 0 0 0-2.368-3.2c-6.272-6.24-16.48-6.24-22.72 0-5.44 5.44-6.112 13.824-2.112 20.064l-.064.064 21.888 29.888c13.664 18.688 29.376 36.992 46.752 54.368 18.08 18.144 37.6 34.336 57.6 49.696h.064zm117.152 462.88c16.192 16.192 30.816 33.184 43.52 50.592l21.248 29.12c.768 1.376 1.632 2.752 2.816 3.936 6.304 6.304 16.512 6.304 22.816 0 5.984-6.016 6.24-15.52.8-21.888l.064-.064-21.888-30.016c-13.696-18.688-29.376-36.928-46.752-54.304-18.08-18.08-37.568-34.336-57.568-49.696l-.128.064c-6.368-5.856-16.256-5.728-22.368.448-6.304 6.304-6.304 16.576 0 22.88 1.12 1.184 2.432 2.016 3.744 2.752 18.816 14.368 36.96 29.44 53.696 46.176z"/><glyph unicode="" d="M512 960c-215.808 0-448-65.056-448-208V144C64 1.12 296.192-64 512-64c215.776 0 448 65.12 448 208v608c0 142.944-232.256 208-448 208zm384-816C896 64.512 724.064 0 512 0 299.904 0 128 64.512 128 144v119.552C194.112 195.424 353.6 160 512 160s317.888 35.424 384 103.552V144zm0 192h-.128c0-.32.128-.672.128-.992C896 256 724.064 192 512 192s-384 64-384 143.008c0 .32.128.672.128.992H128v119.552C194.112 387.424 353.6 352 512 352s317.888 35.424 384 103.552V336zm0 192h-.128c0-.32.128-.672.128-.992C896 448 724.064 384 512 384s-384 64-384 143.008c0 .32.128.672.128.992H128v109.952C211.872 574.048 365.6 544 512 544s300.128 30.048 384 93.952V528zm-384 80c-212.096 0-384 64.512-384 144 0 79.552 171.904 144 384 144 212.064 0 384-64.448 384-144 0-79.488-171.936-144-384-144zm256-480c0 17.673 14.327 32 32 32s32-14.327 32-32c0-17.673-14.327-32-32-32-17.673 0-32 14.327-32 32zm0 192c0 17.673 14.327 32 32 32s32-14.327 32-32c0-17.673-14.327-32-32-32-17.673 0-32 14.327-32 32zm0 192c0 17.673 14.327 32 32 32s32-14.327 32-32c0-17.673-14.327-32-32-32-17.673 0-32 14.327-32 32z"/><glyph unicode="" d="M1001.152 944.992c-11.616 9.76-26.176 15.008-41.12 15.008-3.68 0-7.424-.32-11.136-.992l-544.064-96c-30.592-5.376-52.864-31.936-52.864-63.008V250.56C319.488 274.112 277.344 288 230.56 288c-27.2 0-54.4-4.512-80.928-13.312C88.896 254.432 40.192 213.824 16 163.2-2.688 124.064-5.088 81.504 9.152 43.328 33.504-21.888 102.688-64 185.408-64c27.2 0 54.4 4.448 80.896 13.312 60.704 20.192 109.408 60.8 133.6 111.36 10.4 21.824 15.264 44.672 15.456 67.328h.576v512c3.68 0 7.424.32 11.136.928l532.96 94.048V346.56C927.52 370.112 885.408 384 838.592 384c-27.2 0-54.432-4.512-80.928-13.312-60.736-20.256-109.44-60.864-133.568-111.488-18.688-39.136-21.12-81.696-6.88-119.872C641.6 74.112 710.72 32 793.472 32c27.2 0 54.432 4.448 80.928 13.312 60.672 20.192 109.376 60.8 133.568 111.36 10.432 21.824 15.264 44.672 15.488 67.328h.576v672c0 18.88-8.384 36.864-22.88 48.992zM246.016 9.984C169.344-15.584 90.08 9.408 69.088 65.664 48.032 121.984 93.12 188.352 169.76 213.92c76.672 25.568 155.936.64 176.928-55.68 21.088-56.288-24-122.688-100.672-148.256zm606.88 96c-76.736-25.568-156-.576-176.992 55.68-21.056 56.32 24.064 122.688 100.672 148.256 76.736 25.568 156 .64 176.992-55.68 21.088-56.288-23.968-122.688-100.672-148.256zM958.72 800l-544.064-96v96l544.064 96v-96z"/><glyph unicode="" d="M800 960c-65.696 0-117.312-45.12-154.368-114.752l-.672.384C591.136 740.256 511.008 672 423.232 672H128C56.224 672 0 601.696 0 512c0-89.76 56.224-160 128-160 35.296-.128 63.84-28.672 63.84-64V0c0-35.36 28.672-64 64-64h128c35.328 0 64 28.64 64 64v32c0 32-32 46.304-32 64v224c0 .736.512 1.248.576 1.984.32 4.576 1.568 8.8 3.584 12.64.576 1.056 1.184 1.888 1.888 2.816 2.56 3.808 5.792 6.944 9.728 9.376.192.128.256.32.448.448.128 0 .224.128.352.128 2.56 1.44 5.632 1.76 8.512 2.56 80.768-8.576 153.888-73.76 204.064-171.936l.8.384C682.88 108.992 734.368 64 800 64c147.072 0 224 225.376 224 448s-76.928 448-224 448zM640 512c0 33.184 1.952 65.248 5.248 96H736c35.328 0 64-43.008 64-96 0-53.056-28.672-96-64-96h-90.752c-3.296 30.752-5.248 62.752-5.248 96zm-576 0c0 52.992 28.672 96 64 96h224.448C332.608 584.672 320 550.816 320 512c0-38.88 12.608-72.736 32.448-96H128c-35.328 0-64 42.944-64 96zM383.84 0h-128v288c0 23.328-6.24 45.12-17.184 64h22.336v-.384h96.256c-3.424-9.952-5.408-20.512-5.408-31.616V96c0-30.816 17.216-51.328 27.488-63.552 1.408-1.696 3.072-3.424 4.512-5.312V0zm39.392 415.616H416V416c-35.328 0-64 42.944-64 96 0 52.992 28.672 96 64 96h7.232c60.352 0 116.864 23.744 166.592 64.576C580.672 621.056 576 566.496 576 512c0-54.688 4.672-109.44 13.888-160.992-49.76 40.864-106.304 64.608-166.656 64.608zM800 128c-64.576 0-120 91.872-145.312 224H736c71.744 0 128 70.24 128 160 0 89.696-56.256 160-128 160h-81.312C680 804.064 735.424 896 800 896c88.384 0 160-171.936 160-384s-71.616-384-160-384z"/><glyph unicode="" d="M1024 704c0 44.992-30.624 83.456-74.432 93.568l-416.416 96.096C526.176 895.232 519.072 896 512 896s-14.176-.768-21.6-2.432l-415.968-96C30.592 787.456 0 748.992 0 704s30.624-83.456 74.4-93.568l85.6-19.744V320c0-84.928 97.216-160 352-160s352 75.072 352 160v270.688l85.568 19.744C993.376 620.544 1024 659.008 1024 704zM800 320c0-35.36-96-96-288-96s-288 60.64-288 96v255.904l266.816-61.568C497.792 512.768 504.928 512 512 512s14.208.768 21.568 2.432L800 575.904V320zM519.2 576.8c-2.4-.512-4.8-.8-7.2-.8s-4.832.288-7.2.8l-416 96C74.272 676.16 64 689.088 64 704s10.272 27.84 24.8 31.2l416 96c2.368.512 4.768.8 7.2.8s4.832-.288 7.2-.8l416-96c14.496-3.36 24.8-16.288 24.8-31.2s-10.304-27.84-24.8-31.2l-416-96zM928 544c0 17.696 14.304 32 32 32 17.664 0 32-14.304 32-32V256c0-17.696-14.336-32-32-32-17.696 0-32 14.304-32 32v288zm32-352c35.328 0 64-92.672 64-128S995.328 0 960 0c-35.36 0-64 28.672-64 64s28.64 128 64 128z"/><glyph unicode="" d="M661.824 840.576C646.688 855.68 626.624 864 605.248 864s-41.44-8.32-56.64-23.456l-45.12-45.184C488.352 780.256 480 760.16 480 738.752c0-15.072 4.128-29.504 11.872-42.016L57.408 522.688C28.352 509.92 7.52 483.712 1.664 452.64c-5.92-31.264 4-63.328 26.688-85.984l407.04-402.56c17.536-17.536 40.832-27.488 65.44-28.064.576-.032 1.92-.032 2.496-.032 6.464 0 13.024.672 19.52 1.984 31.808 6.592 57.856 28.576 69.664 58.496l170.944 428.032c12.864-8.48 28-13.024 43.744-13.024 21.44 0 41.504 8.352 56.576 23.456L908.8 480c15.264 15.168 23.616 35.296 23.616 56.736s-8.384 41.6-23.424 56.576L661.824 840.576zM533.088 20.256C529.12 10.24 520.384 2.848 509.824.672c-2.432-.512-4.896-.704-7.328-.672-8.128.192-15.968 3.456-21.824 9.344L73.376 412.16c-7.488 7.456-10.784 18.144-8.8 28.576a31.95 31.95 0 0 0 18.624 23.36l198.944 79.68c134.048-44.576 268.128-1.632 402.24-144.704L533.088 20.256zM863.744 525.44l-45.248-45.216c-6.24-6.272-16.384-6.272-22.624 0l-56.576 56.544-45.824-114.848 3.808 9.696c-96.32 96.16-194.208 108.288-282.528 119.136-28.384 3.488-55.904 7.136-82.944 12.96L603.52 672.544l-54.88 54.88c-6.24 6.24-6.24 16.384 0 22.624l45.248 45.28c6.24 6.24 16.384 6.24 22.624 0l247.2-247.264a15.868 15.868 0 0 0 .032-22.624zM528 288c44.096 0 80 35.872 80 80s-35.872 80-80 80-80-35.872-80-80 35.904-80 80-80zm0 128c26.496 0 48-21.504 48-48s-21.504-48-48-48c-26.528 0-48 21.504-48 48s21.472 48 48 48zm416 544c-44.128 0-80-35.872-80-80s35.872-80 80-80 80 35.872 80 80-35.872 80-80 80zm0-128c-26.496 0-48 21.504-48 48s21.504 48 48 48 48-21.504 48-48-21.504-48-48-48zM256 416c0-35.296 28.704-64 64-64s64 28.704 64 64-28.704 64-64 64-64-28.704-64-64zm64 32c17.664 0 32-14.304 32-32s-14.336-32-32-32-32 14.304-32 32 14.336 32 32 32zm64-224c0 17.673 14.327 32 32 32s32-14.327 32-32c0-17.673-14.327-32-32-32-17.673 0-32 14.327-32 32zm512 480c0 17.673 14.327 32 32 32s32-14.327 32-32c0-17.673-14.327-32-32-32-17.673 0-32 14.327-32 32z"/><glyph unicode="" d="M512.064 392.128c105.888 0 192 86.144 192 192s-86.112 192-192 192-192-86.112-192-192 86.112-192 192-192zm0 352c88.256 0 160-71.744 160-160s-71.744-160-160-160-160 71.744-160 160 71.744 160 160 160zM512 960c-211.776 0-384-170.112-384-384.032 0-224 192.032-453.152 332.032-614.208.512-.64 22.976-25.76 50.752-25.76h2.464c27.744 0 50.24 25.12 50.752 25.76 140.064 161.056 332.064 390.176 332.064 614.208C896.064 789.888 723.808 960 512 960zm3.744-956.256c-.672-.64-2.624-2.048-4.32-3.136-.32.864-2.688 2.752-4.128 4.256C390.016 139.808 192 367.552 192 575.968 192 752.416 335.584 896 512 896c176.512 0 320.064-143.584 320.064-320.064 0-208.384-198.016-436.128-316.32-572.192z"/><glyph unicode="" d="M864 800.128L160 800c-17.696 0-32-14.176-32-31.872v-448c0-17.696 14.304-32 32-32h704c17.696 0 32 14.304 32 32v448c0 17.696-14.304 32-32 32zM864 320H160v448.128h704V320zm64 608H96c-53.024 0-96-42.944-96-96V192c0-52.928 42.816-95.808 95.68-95.936H416V57.12L216.256 31.168C201.984 27.616 192 14.816 192 .128c0-17.696 14.304-32 32-32h576c17.696 0 32 14.304 32 32 0 14.688-9.984 27.488-24.256 31.072L608 57.12v38.944h320.32c52.864.128 95.68 43.008 95.68 95.936v640c0 53.056-43.008 96-96 96zm32-736c0-17.632-14.368-32-32-32H96c-17.664 0-32 14.368-32 32v640c0 17.664 14.336 32 32 32h832c17.632 0 32-14.336 32-32V192z"/><glyph unicode="" d="M1005.248 650.336l-162.56 162.592c-12 12-28.32 18.752-45.248 18.752H226.592a64.02 64.02 0 0 1-45.248-18.752L18.784 650.336C6.208 637.792-.064 621.248 0 604.672c.096-15.04 5.472-30.048 16.192-42.112L464.16 85.504C476.32 71.808 493.728 64 512 64s35.68 7.808 47.808 21.504l448 477.056c10.944 12.32 16.32 27.744 16.192 43.136-.128 16.192-6.432 32.32-18.752 44.64zm-422.24-42.656H440.96L512 666.848l71.008-59.168zm-45.984 80l87.424 72.896L689.024 696 608 628.512l-70.976 59.168zM416 628.512L334.976 696l64.576 64.576 87.456-72.896L416 628.512zm175.68-52.832L512 177.184 432.32 575.68h159.36zm32.64 0h156.992L545.824 183.072 624.32 575.68zm8.608 32l78.816 65.632 65.632-65.632H632.928zm29.696 160h112.384l-61.312-51.104-51.072 51.104zM512 708.48l-71.04 59.2h142.016L512 708.48zm-201.728 8.096L248.96 767.68h112.416l-51.104-51.104zm1.984-43.264l78.784-65.632H246.624l65.632 65.632zm87.424-97.632l78.496-392.608-235.52 392.608H399.68zm6.848-335.296L91.648 575.68h113.728l201.152-335.296zM818.624 575.68h113.76L617.44 240.32l201.184 335.36zm4 32l-86.176 86.176 73.504 61.28L957.376 607.68H822.624zM213.952 755.2l73.632-61.344-86.208-86.176H64.192l149.76 147.52z"/><glyph unicode="" d="M940.64 877.44C888 930.016 818.688 960 750.368 960c-57.632 0-110.688-21.376-149.44-60.064L445.184 743.008c-.48-.448-1.024-.736-1.504-1.216-.256-.256-.416-.608-.672-.832l.064-.064-330.528-333.088c-15.232-15.136-26.272-33.984-32.416-54.56L4.96 80.992C4.896 80.256 0 58.88 0 48 0-13.824 50.208-64 112.128-64c12.32 0 36.16 5.888 37.024 6.016l271.296 71.328a128.673 128.673 0 0 1 54.56 32.512l488.416 492.256C1052.256 627.008 1042.24 776 940.64 877.44zM512.448 198.56c-2.624 28.864-10.784 57.184-23.008 84.064L792 585.152c18.496-58.432 8.992-119.552-31.552-160.128-.256-.256-.576-.416-.8-.672l.448-.416L512.8 174.656c0 7.968.384 15.776-.352 23.904zm-39.072 113.248c-11.936 19.616-25.504 38.56-42.304 55.328-19.552 19.552-41.984 34.88-65.408 47.744l305.024 305.024c23.936-10.624 46.88-25.76 67.136-46.016 17.312-17.248 30.688-36.576 40.992-56.672l-305.44-305.408zM335.552 430.016c-29.632 11.936-60.672 18.752-91.776 19.168l246.496 248.384c37.728 36.8 92.672 47.392 146.784 33.984L335.552 430.016zM133.344 4.064c-3.488-.8-14.336-3.552-21.696-4.064C85.344.32 64 21.696 64 48c.384 5.376 2.528 14.624 3.264 17.984l33.696 122.048c36.576.992 75.936-13.248 106.88-44.256 31.424-31.36 46.208-71.488 44.608-108.512l-119.104-31.2zm150.624 39.552c-.768 42.944-18.24 87.616-53.504 122.816-33.344 33.376-76.992 52.64-120.512 54.368l31.872 115.424c2.304 7.68 6.88 15.264 12.512 21.888 64.192 45.952 162.912 32.384 231.488-36.256 72.544-72.512 83.744-178.752 27.872-242.176-3.712-1.952-7.456-3.808-11.488-4.992l-118.24-31.072zm634.144 539.68l-53.888-54.304c0 7.232.864 14.176.192 21.568-5.632 61.92-34.496 121.792-81.376 168.608-52.128 52.16-121.248 82.08-189.696 82.272l52.992 53.44C672.864 881.344 709.888 896 750.368 896c51.488 0 104.384-23.296 145.056-63.84 38.176-38.112 60.928-85.472 64.192-133.376 3.008-44.704-11.744-85.696-41.504-115.488z"/><glyph unicode="" d="M512 960c-194.432 0-352-157.568-352-352 0-128.992 118.016-265.696 160.992-385.76C385.088 43.2 377.984-64 512-64c136 0 126.88 106.688 191.008 285.504C746.112 341.824 864 480 864 608c0 194.432-157.632 352-352 352zm82.944-869.632L436.288 70.56c-5.664 16.384-11.744 35.552-19.136 60.576-.096.32-.224.672-.288.992l198.016 24.736c-2.816-9.44-5.824-19.36-8.448-28.256-4.192-14.368-7.936-26.848-11.488-38.24zm-187.392 72.576c-5.824 19.264-12.384 39.552-19.68 61.056h248.512c-3.936-11.488-7.872-23.008-11.264-33.888l-217.568-27.168zM512 0c-32.416 0-47.328 3.744-63.904 40l135.616 16.992C564.064 4.064 549.76 0 512 0zm149.504 288H362.848c-15.936 34.56-35.072 69.12-53.952 102.944C267.136 465.664 224 542.944 224 608c0 158.816 129.184 288 288 288s288-129.184 288-288c0-64.576-43.2-142.272-84.992-217.44-18.688-33.696-37.696-68.192-53.504-102.56zM512 800c8.8 0 16-7.168 16-16s-7.168-16-16-16c-88.224 0-160-71.776-160-160 0-8.832-7.168-16-16-16s-16 7.168-16 16c0 105.888 86.112 192 192 192z"/><glyph unicode="" d="M800 544v128c0 159.072-128.928 288-288 288S224 831.072 224 672V544c-53.024 0-96-42.976-96-96V224C128 64.928 256.928-64 416-64h192c159.072 0 288 128.928 288 288v224c0 53.056-43.008 96-96 96zM288 672c0 123.712 100.288 224 224 224s224-100.288 224-224V544h-64v127.936c0 88.384-71.616 160-160 160s-160-71.616-160-160V544h-64v128zm352 0V544H384v128c0 70.688 57.312 128 128 128s128-57.312 128-128zm192-320V224C832 100.512 731.488 0 608 0H416C292.512 0 192 100.512 192 224v224c0 17.664 14.336 32 32 32h576c17.632 0 32-14.336 32-32v-96zm-320 0c35.328 0 64-28.64 64-64 0-19.488-10.496-56.576-21.312-85.824-8.736-23.616-17.664-42.112-42.688-42.112-23.008 0-33.952 18.688-42.656 42.432C458.656 231.68 448 268.576 448 288c0 35.36 28.672 64 64 64z"/><glyph unicode="" d="M1004.512 515.744l-160 256c-23.36 37.408-64.384 60.16-108.512 60.16H128c-70.688 0-128-57.312-128-128v-512c0-70.688 57.312-128 128-128h608c44.128 0 85.12 22.752 108.512 60.192l160 256c25.984 41.44 25.984 94.144 0 135.648zM950.24 414.016l-160-256.064c-11.744-18.816-32.064-30.048-54.24-30.048H128c-35.296 0-64 28.736-64 64v512c0 35.296 28.704 64 64 64h608c22.176 0 42.496-11.264 54.24-30.048l160-256c12.896-20.64 12.896-47.264 0-67.84zM736 543.904c-53.056 0-96-42.976-96-96s42.944-96 96-96c52.992 0 96 43.008 96 96 0 53.024-43.008 96-96 96zm0-160.032c-35.36 0-64 28.672-64 64s28.64 64 64 64c35.328 0 64-28.672 64-64 0-35.296-28.672-64-64-64z"/><glyph unicode="" d="M512 639.968c-141.408 0-256-114.592-256-256 0-141.376 114.592-256 256-256 141.376 0 256 114.624 256 256s-114.624 256-256 256zm145.76-380.96c-68.992-80.512-190.176-89.824-270.688-20.8-80.544 68.992-89.824 190.208-20.8 270.688 68.96 80.544 190.176 89.824 270.688 20.8 80.48-68.96 89.792-190.208 20.8-270.688zM512 511.968c8.832 0 16-7.168 16-16s-7.168-16-16-16c-53.024 0-95.968-42.976-96-95.968v-.064c0-8.8-7.168-16-16-16s-16 7.2-16 16V384c.032 70.656 57.312 127.968 128 127.968zm431.744 158.688l-138.688 23.136L761.12 803.68C746.432 840.32 711.424 864 672 864H352c-39.424 0-74.432-23.68-89.152-60.352l-43.904-109.856-138.656-23.136C33.76 662.944 0 623.136 0 576V96C0 43.072 43.072 0 96 0h832c52.928 0 96 43.072 96 96v480c0 47.136-33.76 86.944-80.256 94.656zM960 96c0-17.696-14.304-32-32-32H96c-17.696 0-32 14.304-32 32v480c0 15.648 11.328 28.992 26.752 31.552l174.208 29.024 57.312 143.296C327.168 792 338.912 800 352 800h320c13.056 0 24.8-7.968 29.696-20.128l57.312-143.296 174.24-29.024C948.672 604.992 960 591.648 960 576V96z"/><glyph unicode="" d="M972.512 554.24l-98.048 19.648c-4.928 14.176-10.752 27.936-17.184 41.248l55.552 83.328c16.928 25.376 13.568 59.2-8 80.736l-61.568 61.568c-12.384 12.384-28.736 18.752-45.312 18.752-12.256 0-24.64-3.52-35.424-10.752l-83.328-55.52c-13.376 6.464-27.136 12.224-41.312 17.152l-19.648 98.08c-5.952 29.952-32.256 51.456-62.752 51.456h-87.04c-30.496 0-56.768-21.536-62.752-51.456l-19.648-98.08c-14.176-4.928-27.936-10.72-41.248-17.152l-83.296 55.52a63.817 63.817 0 0 1-35.488 10.752c-16.544 0-32.896-6.368-45.28-18.752L119.2 779.2c-21.568-21.568-24.928-55.36-8-80.736l55.52-83.328c-6.464-13.344-12.224-27.104-17.152-41.28L51.456 554.24C21.536 548.256 0 521.984 0 491.488v-87.04c0-30.496 21.536-56.8 51.456-62.752l98.08-19.68c4.928-14.176 10.72-27.936 17.152-41.248L111.2 197.44c-16.928-25.376-13.568-59.2 8-80.736l61.568-61.568c12.384-12.384 28.736-18.752 45.28-18.752a63.818 63.818 0 0 1 35.456 10.752l83.328 55.552c13.344-6.496 27.104-12.256 41.28-17.184l19.616-98.048c5.984-29.952 32.256-51.488 62.752-51.488h87.04c30.496 0 56.8 21.568 62.752 51.488l19.68 98.048c14.176 4.928 27.936 10.752 41.248 17.184l83.328-55.552c10.816-7.2 23.2-10.752 35.424-10.752 16.576 0 32.928 6.368 45.312 18.752l61.568 61.568c21.568 21.568 24.928 55.36 8 80.736l-55.552 83.328c6.496 13.376 12.256 27.136 17.184 41.312l98.048 19.616c29.92 5.92 51.488 32.256 51.488 62.752v87.04c0 30.496-21.568 56.768-51.488 62.752zM861.888 384.8a63.897 63.897 0 0 1-47.872-41.76c-4.128-11.808-8.928-23.264-14.304-34.368-9.952-20.448-8.256-44.576 4.32-63.424l55.552-83.328-61.568-61.568-83.328 55.552a63.895 63.895 0 0 1-35.488 10.752 64.082 64.082 0 0 1-27.872-6.368c-11.136-5.376-22.56-10.24-34.432-14.368-21.376-7.424-37.248-25.632-41.696-47.872L555.52-.064h-87.04l-19.616 98.112c-4.448 22.24-20.32 40.448-41.728 47.872a325.47 325.47 0 0 0-34.4 14.304c-8.832 4.32-18.368 6.432-27.904 6.432a63.818 63.818 0 0 1-35.488-10.752l-83.328-55.552-61.568 61.568 55.52 83.328c12.576 18.88 14.208 43.008 4.384 63.36-5.376 11.136-10.208 22.56-14.336 34.432-7.424 21.376-25.664 37.248-47.872 41.696l-98.08 19.68L64 491.488l98.112 19.616c22.208 4.448 40.448 20.32 47.872 41.728a318.86 318.86 0 0 0 14.304 34.4 63.83 63.83 0 0 1-4.352 63.392l-55.488 83.328 61.536 61.568L309.312 740a63.895 63.895 0 0 1 35.488-10.752c9.504 0 19.04 2.112 27.872 6.368 11.104 5.376 22.56 10.208 34.4 14.336 21.408 7.424 37.28 25.664 41.728 47.872l19.648 98.08 87.04.032 19.616-98.112c4.448-22.208 20.32-40.448 41.76-47.872a318.343 318.343 0 0 0 34.368-14.304 63.94 63.94 0 0 1 27.936-6.4c12.448 0 24.8 3.616 35.488 10.752l83.328 55.52 61.568-61.568L804 650.624c-12.576-18.88-14.176-42.976-4.384-63.36 5.376-11.104 10.24-22.56 14.368-34.4 7.424-21.408 25.632-37.28 47.872-41.728l98.048-19.648.096-87.04-98.112-19.648zM512 671.968c-123.68 0-224-100.32-224-224 0-123.712 100.32-224 224-224s224 100.32 224 224-100.32 224-224 224zm0-420.032c-108.224 0-196 87.808-196 196 0 108.224 87.776 196 196 196 108.192 0 196-87.776 196-196 0-108.192-87.808-196-196-196zm0 324.032c-70.72 0-128-57.28-128-128 0-70.688 57.28-128 128-128 70.688 0 128 57.312 128 128s-57.312 128-128 128zm0-224.032c-52.992 0-96 43.008-96 96s43.008 96 96 96 96-43.008 96-96-43.008-96-96-96z"/></font>
</defs>
</svg>
