<svg id="a005c1f1-b3b3-4619-88c3-014c36de33df" data-name="Слой 1" xmlns="http://www.w3.org/2000/svg" width="40" height="43.33" viewBox="0 0 40 43.33"><path d="M40,13.33V6.67C40,3,31.05,0,20,0S0,3,0,6.67v6.66a3.35,3.35,0,0,0,1.47,2.5A3.39,3.39,0,0,0,0,18.33V25a3.37,3.37,0,0,0,1.47,2.5A3.35,3.35,0,0,0,0,30v6.67c0,3.68,9,6.66,20,6.66s20-3,20-6.66V30a3.35,3.35,0,0,0-1.47-2.5A3.37,3.37,0,0,0,40,25V18.33a3.39,3.39,0,0,0-1.47-2.5A3.35,3.35,0,0,0,40,13.33ZM20,1.16c10.09,0,18.26,2.47,18.26,5.51s-8.17,5.5-18.26,5.5S1.74,9.71,1.74,6.67,9.91,1.16,20,1.16ZM38.26,30c0,3-8.17,5.51-18.26,5.51S1.74,33,1.74,30a2.4,2.4,0,0,1,.91-1.69c3.45,2,9.92,3.36,17.35,3.36s13.9-1.36,17.35-3.36A2.4,2.4,0,0,1,38.26,30Zm0-11.67c0,3-8.17,5.51-18.26,5.51S1.74,21.37,1.74,18.33a2.4,2.4,0,0,1,.91-1.69C6.1,18.65,12.57,20,20,20s13.9-1.35,17.35-3.36A2.4,2.4,0,0,1,38.26,18.33Z" fill="#E4BC4F"/></svg>