<svg id="e0d4aae3-c6a9-4443-ba41-c51ec6e288a1" data-name="00588ac8-bb8b-4919-be09-64ecc2b7f818" xmlns="http://www.w3.org/2000/svg" xmlns:xlink="http://www.w3.org/1999/xlink" width="70" height="28.29" viewBox="0 0 70 28.29"><defs><clipPath id="b942bef8-0e38-49ef-8c8e-c8b6c71ab6a8"><rect x="19.58" y="0.12" width="39.19" height="13.74" fill="none"/></clipPath><filter id="ee7a8d12-bb08-44b8-83f0-c56436fde3bd" x="7.55" y="-0.09" width="17.7" height="17.7" name="bb212177-bc30-43eb-99a0-18339f31f301"><feFlood result="bg" flood-color="#fff"/></filter><clipPath id="bf65bc19-f2af-45d6-ba4c-ae3d81ec46dd"><rect x="19.58" y="0.12" width="39.17" height="13.74" fill="none"/></clipPath><clipPath id="b3913996-2eaa-4e0f-b009-1e87f252abab"><rect x="17.58" y="0.12" width="41.22" height="41.22" fill="none"/></clipPath><linearGradient id="be8ac413-fdf6-49ac-a13d-0444f4debd2c" x1="-1629.27" y1="-475.59" x2="-1626.95" y2="-475.59" gradientTransform="translate(-2767.8 9613.21) rotate(90) scale(5.9)" gradientUnits="userSpaceOnUse"><stop offset="0" stop-color="#1d1d1b"/><stop offset="0.16" stop-color="#494947"/><stop offset="0.46" stop-color="#969695"/><stop offset="0.72" stop-color="#cfcfce"/><stop offset="0.9" stop-color="#f2f2f2"/><stop offset="1" stop-color="#fff"/></linearGradient><mask id="e1553311-ad9c-4cd6-989c-34b4c939957b" x="17.58" y="0.08" width="41.22" height="41.25" maskUnits="userSpaceOnUse"><g id="f985891b-04f4-4608-9962-0360b1b35d5f" data-name="61a24326-80ca-492a-89c0-d504b94d12d5"><g clip-path="url(#b942bef8-0e38-49ef-8c8e-c8b6c71ab6a8)"><g filter="url(#ee7a8d12-bb08-44b8-83f0-c56436fde3bd)"><g clip-path="url(#b942bef8-0e38-49ef-8c8e-c8b6c71ab6a8)"><g clip-path="url(#bf65bc19-f2af-45d6-ba4c-ae3d81ec46dd)"><g clip-path="url(#b3913996-2eaa-4e0f-b009-1e87f252abab)"><rect x="17.58" y="0.12" width="41.22" height="41.22" fill="url(#be8ac413-fdf6-49ac-a13d-0444f4debd2c)"/></g></g></g></g></g></g></mask><clipPath id="adbaccaf-b446-4953-9d58-db9e054d9c25"><rect x="30.99" y="0.91" width="2.91" height="0.16" fill="none"/></clipPath></defs><path d="M24.1,6C26.64,13.76,27.59,27.55,35,27.55h0a9.69,9.69,0,0,0,1.7-.16h0C30,25.83,29.16,12.18,25,5.12h0l-1,.91" fill="#06bff9"/><path d="M25.08,5.12c4.1,7,4.89,20.71,11.64,22.27h0A11,11,0,0,0,38.31,27h0C32.28,24,30.6,10.67,26,4.4h0l-.83.75" fill="#0096d9"/><path d="M31,.91a8.82,8.82,0,0,0-1.7.16A13.2,13.2,0,0,0,24.61,3a10.61,10.61,0,0,1,1.19,1.4,16.22,16.22,0,0,1,4.66-2.82,10.23,10.23,0,0,1,1.72-.49A5.42,5.42,0,0,0,31,.91" fill="#0065a8"/><path d="M43,24.22c.62-.5,1.24-1,1.86-1.63C42.29,14.9,41.36.91,33.93.91a7.9,7.9,0,0,0-1.61.14C39.1,2.72,40,17.49,43,24.19" fill="#06bff9"/><g mask="url(#e1553311-ad9c-4cd6-989c-34b4c939957b)"><g clip-path="url(#adbaccaf-b446-4953-9d58-db9e054d9c25)"><path d="M32.3,1.07A5.44,5.44,0,0,0,31,.91h2.94a7.9,7.9,0,0,0-1.61.14" fill="#008cbe"/></g></g><path d="M42.85,25.94A10.29,10.29,0,0,1,42,25a15.23,15.23,0,0,1-3.75,2,5.61,5.61,0,0,0,1.4.46,5.91,5.91,0,0,0,1.18.12,7.91,7.91,0,0,0,3.4-.7,6.36,6.36,0,0,1-1.39-1" fill="#0096d9"/><path d="M30.58,1.56C36.63,4.73,37.26,19.12,41.92,25h0l1-.72h0c-3-6.73-3.81-21.59-10.59-23.17h0a10,10,0,0,0-1.72.49" fill="#0096d9"/><path d="M25.92,4.38C30.58,10.76,32.23,24,38.26,26.94h0a15.26,15.26,0,0,0,3.66-2h0c-4.66-5.84-5.29-20.23-11.34-23.4h0a16.09,16.09,0,0,0-4.66,2.82" fill="#0065a8"/><path d="M24,3.49,23.31,4A19.17,19.17,0,0,1,24.1,6l1-.91a13.85,13.85,0,0,0-1.12-1.63" fill="#0094da"/><path d="M24.73,3,24,3.49a12.74,12.74,0,0,1,1.12,1.63l.84-.74A11.42,11.42,0,0,0,24.73,3" fill="#0065a8"/><path d="M66.13.33C62.71,13.58,55.54,24.19,49.51,26.9h0l-.33.14h-1a2.52,2.52,0,0,0,.86.16C54.75,27.2,60.5,17,70,0Z" fill="#06bff9"/><path d="M21.12,5.84A27.85,27.85,0,0,1,23.29,4c-.16-.34-.33-.68-.52-1A12.36,12.36,0,0,0,21.1,5.84" fill="#0096d9"/><path d="M21.66,1.54A5.44,5.44,0,0,1,22.8,3l.32-.31a6.64,6.64,0,0,0-1.53-1.16h0" fill="#007cc1"/><path d="M4,21.8C9.85,10.53,12.62,3.38,17.51,1.44h0C12.46,3.42,6.78,10.76,4,21.8" fill="#06bff9"/><path d="M23.12,2.65,22.8,3a9.4,9.4,0,0,1,.51,1L24,3.56a10.29,10.29,0,0,0-.84-.91" fill="#00b0ea"/><path d="M6.66,28.27H6.19a9.62,9.62,0,0,0,10-7.45c1-3.26,1.86-6,2.59-8.32a117.15,117.15,0,0,0-7.48,12.32,6.1,6.1,0,0,1-4.66,3.4" fill="#06bff9"/><path d="M6.66,28.27h0a6.14,6.14,0,0,0,4.66-3.4h0a117.7,117.7,0,0,1,7.43-12.39h0c.66-2.26,1.44-4.48,2.32-6.66h0C16.3,10.55,11.22,18.37,6.66,28.27" fill="#0096d9"/><path d="M19.4,1H17.51C12.62,2.89,9.85,10,4,21.31H4a54.5,54.5,0,0,0-1.23,7H6.66c4.66-9.83,9.55-17.65,14.48-22.36h0A12.4,12.4,0,0,1,22.82,3h0a5.44,5.44,0,0,0-1.16-1.49h-1l-.17-.45h0L20.14,1H19.4" fill="#0065a8"/><path d="M52.72,7.66c-1.12,3.61-2,6.64-2.82,9h0a98.08,98.08,0,0,0,9-15.72h0a9.32,9.32,0,0,0-6.2,6.75" fill="#06bff9"/><path d="M50,26.66l-.47.24c6-2.71,13.18-13.32,16.6-26.57h-.69C57.54,14.41,55,23.85,50,26.66" fill="#0096d9"/><path d="M46.06,25.48a28.81,28.81,0,0,0,3.84-8.85,42.91,42.91,0,0,1-5,5.89h0a15.71,15.71,0,0,0,1.23,2.86" fill="#0096d9"/><path d="M46.06,25.48a5.39,5.39,0,0,1-1.44,1.25l-.35.19a5,5,0,0,0,1.84.58H48a4.08,4.08,0,0,1-2-1.91" fill="#0096d9"/><path d="M34.93,27.55a9.69,9.69,0,0,0,1.7-.16A10.49,10.49,0,0,0,38.21,27a6.16,6.16,0,0,0,2.59.58Z" fill="#0065a8"/><path d="M40.84,27.55a7.77,7.77,0,0,0,3.4-.63,5,5,0,0,0,1.84.58H40.84Z" fill="#0065a8"/><path d="M46.74,27.55H48a2.54,2.54,0,0,0,.86.14Z" fill="#fff"/><path d="M44.83,22.61h0c-.62.59-1.24,1.13-1.87,1.63L42,25a11.94,11.94,0,0,0,.83.91,6.7,6.7,0,0,0,1.42,1.07l.35-.18A5.32,5.32,0,0,0,46,25.5a15.55,15.55,0,0,1-1.24-2.87" fill="#0065a8"/><path d="M63.25.33H59.19l-.25.55h0a97.6,97.6,0,0,1-9,15.75h0a29,29,0,0,1-3.82,8.78h0a4.13,4.13,0,0,0,2,1.91h1l.32-.14h0l.47-.24h0C55,23.85,57.56,14.41,65.44.33H63.25Z" fill="#0065a8"/><path d="M19.61,1h1.16l.19.28h.35a6.58,6.58,0,0,1,1.81,1.42,6.44,6.44,0,0,1,.56-.48A6,6,0,0,0,20.1.93h-.47" fill="#06bff9"/><path d="M23.12,2.65a10.29,10.29,0,0,1,.84.91l.77-.51a7.42,7.42,0,0,0-1.05-.88,6.44,6.44,0,0,0-.56.48" fill="#0096d9"/><path d="M19.61,1h.46a6.09,6.09,0,0,1,3.59,1.17A6.43,6.43,0,0,1,27.94.91H19.61" fill="#0096d9"/><path d="M27.94.91a6.47,6.47,0,0,0-4.28,1.16A8.83,8.83,0,0,1,24.71,3a12.9,12.9,0,0,1,4.65-1.91A8.76,8.76,0,0,1,31,.91Z" fill="#06bff9"/><path d="M49.9,16.63c.8-2.45,1.7-5.43,2.84-9A9.31,9.31,0,0,1,58.94.91l.25-.58a9.31,9.31,0,0,0-9.31,7.28c-2.33,7.25-3.63,12-5,15a43.45,43.45,0,0,0,5-5.93" fill="#0096d9"/><path d="M21.12,5.84c-.89,2.18-1.66,4.41-2.33,6.66A49.49,49.49,0,0,1,24.15,6,21,21,0,0,0,23.29,4,26.41,26.41,0,0,0,21.1,5.84" fill="#00b0ea"/><path d="M17.77,1.47h1.56C12.83.93,4,12.83,0,28.27H.77c1.28-2.33,2.33-4.42,3.47-6.45C7,10.9,12.71,3.45,17.77,1.47" fill="#0094da"/><path d="M4.26,21.8c-1,2-2.19,4.14-3.47,6.47H3.12a54.33,54.33,0,0,1,1.23-6.45" fill="#0094da"/></svg>