<svg data-name="Слой 1" xmlns="http://www.w3.org/2000/svg" width="24" height="22.02"><path d="M3.15 8.52A2.18 2.18 0 111 10.7a2.19 2.19 0 012.15-2.18m0-1a3.16 3.16 0 103.16 3.18 3.16 3.16 0 00-3.16-3.16z" fill="#8a95b4"/><path d="M17.36 21.89a.49.49 0 01-.28-.09L4.93 13.58a.49.49 0 01-.13-.68.48.48 0 01.67-.13L17.63 21a.49.49 0 01-.27.89zm6.15-10.18H6.33a.49.49 0 01-.49-.49.48.48 0 01.49-.48h17.18a.48.48 0 01.49.48.49.49 0 01-.49.49z" fill="#8a95b4"/><path d="M21.37 13.68a.51.51 0 01-.36-.15.49.49 0 010-.69l2.14-2a.49.49 0 01.66.72l-2.14 2a.52.52 0 01-.3.12zm-3.93 8.17a.48.48 0 01-.47-.36l-.75-2.82a.49.49 0 11.94-.25l.75 2.82a.49.49 0 01-.35.6z" fill="#8a95b4"/><path d="M14.37 22a.49.49 0 010-1l2.91-.13a.47.47 0 01.51.46.49.49 0 01-.46.51l-2.94.16zM5.2 9.37a.48.48 0 01-.4-.21.49.49 0 01.13-.68L17.08.26a.49.49 0 01.68.13.48.48 0 01-.13.67L5.47 9.29a.5.5 0 01-.27.08z" fill="#8a95b4"/><path d="M16.69 4a.25.25 0 01-.12 0 .48.48 0 01-.35-.59L17 .57a.49.49 0 11.94.25l-.75 2.82a.48.48 0 01-.5.36z" fill="#8a95b4"/><path d="M17.28 1.15L14.35 1a.5.5 0 01-.47-.51.48.48 0 01.51-.49l2.92.14a.49.49 0 010 1zm6.23 10.56a.5.5 0 01-.33-.13L21 9.6a.49.49 0 010-.69.5.5 0 01.69 0l2.14 2a.49.49 0 010 .69.46.46 0 01-.32.11zM3.78 0v1a9.73 9.73 0 010 19.46v1A10.7 10.7 0 003.78 0z" fill="#8a95b4"/><path d="M3.78 3.4a6.37 6.37 0 00-1 .08v4.1h.35a3.2 3.2 0 01.63.07V4.38A6.32 6.32 0 013.78 17v-3.21a3.21 3.21 0 01-.63.06H2.8v4.1a6.37 6.37 0 001 .07 7.3 7.3 0 000-14.59z" fill="#8a95b4"/></svg>