<svg id="a9337edb-dad2-4061-9ee0-2769e6e75382" data-name="Capa 1" xmlns="http://www.w3.org/2000/svg" width="95.9" height="98.9" viewBox="0 0 95.9 98.9"><path d="M73.8,30.2H25A2.8,2.8,0,0,0,22.2,33v9.6A2.8,2.8,0,0,0,25,45.4H73.8a2.8,2.8,0,0,0,2.8-2.8V33A2.73,2.73,0,0,0,73.8,30.2ZM27.3,36.9A1.7,1.7,0,1,1,29,35.2,1.63,1.63,0,0,1,27.3,36.9ZM69.2,42H56.9V37.9H69.2V42Z" transform="translate(-1.4)" fill="#86A2ED"/><path d="M73.8,47.1H25a2.8,2.8,0,0,0-2.8,2.8v9.6A2.8,2.8,0,0,0,25,62.3H73.8a2.8,2.8,0,0,0,2.8-2.8V49.9A2.68,2.68,0,0,0,73.8,47.1ZM27.3,53.8A1.7,1.7,0,1,1,29,52.1,1.69,1.69,0,0,1,27.3,53.8Zm41.9,5H56.9V54.7H69.2v4.1Z" transform="translate(-1.4)" fill="#86A2ED"/><path d="M73.8,63.9H25a2.8,2.8,0,0,0-2.8,2.8v9.6A2.8,2.8,0,0,0,25,79.1H73.8a2.8,2.8,0,0,0,2.8-2.8V66.7A2.73,2.73,0,0,0,73.8,63.9ZM27.3,70.6A1.7,1.7,0,1,1,29,68.9,1.69,1.69,0,0,1,27.3,70.6Zm41.9,5.1H56.9V71.6H69.2v4.1Z" transform="translate(-1.4)" fill="#86A2ED"/><polygon points="56.5 88.4 51.3 88.4 51.3 80.8 44.8 80.8 44.8 88.4 39.6 88.4 39.6 90.4 21.4 90.4 21.4 96.9 39.6 96.9 39.6 98.9 56.5 98.9 56.5 96.9 74.7 96.9 74.7 90.4 56.5 90.4 56.5 88.4" fill="#86A2ED"/><path d="M78.3,14.7a2.74,2.74,0,0,1-1.8-1A21,21,0,0,0,59.6,5.2H58.3a2.2,2.2,0,0,1-1.6-.5A23.43,23.43,0,0,0,42.6,0,23.72,23.72,0,0,0,21.3,13.5a2.71,2.71,0,0,1-1.9,1.4A20.93,20.93,0,0,0,18,56.1V49.9a5.38,5.38,0,0,1,.4-2.2,12.71,12.71,0,0,1,3.9-24.8,3.08,3.08,0,0,1,1,.1,4.11,4.11,0,0,0,4.3-3.1,15.58,15.58,0,0,1,15-11.6,15,15,0,0,1,10.7,4.4A4,4,0,0,0,57,13.8a11.53,11.53,0,0,1,2.6-.3A12.6,12.6,0,0,1,71,20.7,4,4,0,0,0,75.1,23c.4,0,.9-.1,1.3-.1a12.71,12.71,0,0,1,3.9,24.8,7.8,7.8,0,0,1,.4,2.2v6.2A20.92,20.92,0,0,0,97.3,35.6,20.68,20.68,0,0,0,78.3,14.7Z" transform="translate(-1.4)" fill="#86A2ED"/></svg>