<svg id="b21f57ff-5380-4c22-9baf-ae74763b0c25" data-name="Слой 1" xmlns="http://www.w3.org/2000/svg" width="64.01" height="62.1" viewBox="0 0 64.01 62.1"><path d="M31.8,1a4.35,4.35,0,0,0-1.65.44L7.86,12a4.23,4.23,0,0,0-2.3,2.86L.11,38.75A4.11,4.11,0,0,0,.71,42a2.62,2.62,0,0,0,.24.34l15.4,19.14a4.23,4.23,0,0,0,3.32,1.57h24.7a4.35,4.35,0,0,0,3.33-1.58L63.09,42.31a4.1,4.1,0,0,0,.8-3.57L58.4,14.86A4.21,4.21,0,0,0,56.1,12L33.85,1.39A4.27,4.27,0,0,0,31.78,1Z" transform="translate(0 -0.95)" fill="#326ce5"/><path d="M32,9.08a1.42,1.42,0,0,0-1.31,1.48v.38a10.8,10.8,0,0,0,.19,1.27A13.05,13.05,0,0,1,31,14.63a1.54,1.54,0,0,1-.44.69l0,.56a17.61,17.61,0,0,0-2.4.37,17.12,17.12,0,0,0-8.71,5L19,20.88a1,1,0,0,1-.79-.08,12,12,0,0,1-1.79-1.62c-.28-.32-.57-.64-.88-.93L15.2,18a1.53,1.53,0,0,0-.93-.35,1.25,1.25,0,0,0-1.06.47,1.4,1.4,0,0,0,.33,2l.27.22a10.37,10.37,0,0,0,1.11.65,11.73,11.73,0,0,1,2,1.4,1.52,1.52,0,0,1,.27.77l.43.4a17.22,17.22,0,0,0-2.71,12l-.56.16a2,2,0,0,1-.57.58,13.09,13.09,0,0,1-2.39.39,10.86,10.86,0,0,0-1.28.1l-.36.08h0a1.34,1.34,0,0,0-1.14,1.51,1.31,1.31,0,0,0,.37.75,1.34,1.34,0,0,0,1.37.33h0l.36,0a10.07,10.07,0,0,0,1.2-.43,12.58,12.58,0,0,1,2.32-.68,1.43,1.43,0,0,1,.77.27l.6-.1a17.31,17.31,0,0,0,7.68,9.6l-.25.51a1.25,1.25,0,0,1,.12.76,13.23,13.23,0,0,1-1.2,2.18,11.11,11.11,0,0,0-.72,1.07L21,53a1.34,1.34,0,0,0,.49,1.83,1.34,1.34,0,0,0,1.92-.7l.16-.34A10.19,10.19,0,0,0,24,52.52a9.29,9.29,0,0,1,1-2.39,1.14,1.14,0,0,1,.57-.28l.3-.54a17.24,17.24,0,0,0,12.29,0l.27.51a1.06,1.06,0,0,1,.68.41A12.52,12.52,0,0,1,40,52.5c.11.41.24.82.39,1.22l.16.34a1.35,1.35,0,0,0,1.73.78,1.33,1.33,0,0,0,.65-.52,1.35,1.35,0,0,0,0-1.4l-.17-.36a11,11,0,0,0-.72-1.06,14.27,14.27,0,0,1-1.2-2.12,1,1,0,0,1,.14-.8,4.38,4.38,0,0,1-.23-.54,17.37,17.37,0,0,0,7.65-9.64l.57.1a1.06,1.06,0,0,1,.74-.27,14.17,14.17,0,0,1,2.33.68,10.81,10.81,0,0,0,1.19.46l.35.07h0a1.34,1.34,0,1,0,.6-2.59l-.39-.09a9.08,9.08,0,0,0-1.28-.1,12.83,12.83,0,0,1-2.39-.4,1.42,1.42,0,0,1-.57-.57l-.54-.16a17.3,17.3,0,0,0-2.78-12l.48-.44a1.07,1.07,0,0,1,.24-.75A12.18,12.18,0,0,1,49,21a12.37,12.37,0,0,0,1.11-.65l.29-.24a1.34,1.34,0,0,0-.27-2.4,1.35,1.35,0,0,0-1.39.32l-.29.24a11.1,11.1,0,0,0-.88.93,12.85,12.85,0,0,1-1.74,1.64,1.41,1.41,0,0,1-.81.09l-.51.36a17.46,17.46,0,0,0-11.07-5.34c0-.2,0-.5,0-.59a1.08,1.08,0,0,1-.43-.67,12.2,12.2,0,0,1,.15-2.41c.08-.42.14-.84.18-1.27v-.4A1.42,1.42,0,0,0,32,9.09ZM30.34,19.42l-.4,7h0a1.22,1.22,0,0,1-.67,1A1.11,1.11,0,0,1,28,27.3l-5.73-4.06a13.17,13.17,0,0,1,8-3.82Zm3.33,0a13.83,13.83,0,0,1,8,3.84L36,27.3a1.18,1.18,0,0,1-1.24.14,1.16,1.16,0,0,1-.67-1.05ZM20.23,25.87l5.24,4.68v0a1.17,1.17,0,0,1-.46,2v0l-6.72,1.94a13.69,13.69,0,0,1,1.94-8.68Zm23.51,0a14,14,0,0,1,2,8.65L39,32.58v0a1.17,1.17,0,0,1-.46-2l5.2-4.65Zm-12.81,5h2.14l1.31,1.66-.47,2.08L32,35.58l-1.93-.93-.45-2.08Zm6.87,5.68a1.22,1.22,0,0,1,.27,0L45,37.76a13.57,13.57,0,0,1-5.55,7l-2.68-6.49a1.18,1.18,0,0,1,.63-1.54.89.89,0,0,1,.39-.09Zm-11.65,0a1.16,1.16,0,0,1,1.06,1.63v0l-2.66,6.43A13.74,13.74,0,0,1,19,37.8l6.88-1.17h.24ZM32,39.42A1.15,1.15,0,0,1,33,40h0l3.39,6.12-1.36.4a13.81,13.81,0,0,1-7.51-.39L31,40a1.16,1.16,0,0,1,1-.59Z" transform="translate(0 -0.95)" fill="#fff" stroke="#fff" stroke-miterlimit="8" stroke-width="0.11"/></svg>