<svg id="bd159ab1-17e8-480c-91ca-60bd31fde2c7" data-name="Слой 1" xmlns="http://www.w3.org/2000/svg" width="52" height="41.83" viewBox="0 0 52 41.83"><circle cx="26" cy="35.83" r="6" fill="#2B986E"/><circle cx="26" cy="10.5" r="7.33" fill="#2B986E"/><path d="M26,21A10.5,10.5,0,1,1,36.5,10.5,10.51,10.51,0,0,1,26,21ZM26,1a9.5,9.5,0,1,0,9.5,9.5A9.51,9.51,0,0,0,26,1Z" fill="#2B986E"/><circle cx="6" cy="30.5" r="6" fill="#2B986E"/><circle cx="46" cy="30.5" r="6" fill="#2B986E"/><rect x="25.5" y="22.5" width="1" height="5.33" fill="#2B986E"/><rect x="11.84" y="22.67" width="5.66" height="1" transform="translate(-12.09 17.18) rotate(-45.05)" fill="#2B986E"/><rect x="36.83" y="20.34" width="1" height="5.66" transform="translate(-5.45 33.18) rotate(-45)" fill="#2B986E"/></svg>