<svg width="312" height="30" viewBox="0 0 312 30" fill="none" xmlns="http://www.w3.org/2000/svg">
<path d="M40.1541 12.6511H39.9982L39.6557 9.77838H36.9019V29.1718H40.5094V16.8682C41.3707 14.5079 43.1252 13.2006 45.612 12.9131V9.71832C43.0294 9.62247 41.147 10.9336 40.1579 12.6575" fill="black"/>
<path d="M23.4712 2.29645L14.0633 23.8048L13.9036 24.316H13.7451L13.5854 23.8048L4.11356 2.29645H0L12.1503 29.1796H15.4984L27.5848 2.29645H23.4712Z" fill="black"/>
<path d="M76.305 21.263C76.305 26.4921 73.5306 30 68.2056 30C62.8806 30 60.0731 26.4921 60.105 21.263V9.71841H63.8109V20.9115C63.8109 24.9932 65.7878 26.588 68.212 26.588C70.6362 26.588 72.5492 24.9932 72.6131 20.9115V9.71841H76.3113L76.305 21.263Z" fill="black"/>
<path d="M31.0159 9.72238H27.2524V29.1759H31.0159V9.72238Z" fill="black"/>
<path d="M48.146 22.0592C48.146 26.6519 50.3465 29.3624 54.938 29.3624H55.9604V26.1676C52.6762 26.1037 51.7829 24.5728 51.7829 20.8413V12.8442H56.5341V9.71847H51.7816V2.28748H48.146V22.0592Z" fill="black"/>
<path d="M115.84 9.71463H103.562V12.7765H110.386L103.084 29.1681H116.414V26.1063H108.441L115.84 9.71463Z" fill="black"/>
<path d="M131.211 9.71463H118.933V12.7765H125.759L118.455 29.1681H131.817V26.1063H123.844L131.211 9.71463Z" fill="black"/>
<path d="M90.5715 8.94537C84.6407 8.94537 80.1438 13.5369 80.1438 19.4689C80.1438 25.4009 84.6407 29.9924 90.5715 29.9924C96.5022 29.9924 101 25.4009 101 19.4689C101 13.5369 96.5035 8.94537 90.5715 8.94537ZM90.5715 26.5804C86.7774 26.5804 84.0031 23.3601 84.0031 19.4689C84.0031 15.5777 86.7774 12.3574 90.5715 12.3574C94.3656 12.3574 97.1412 15.579 97.1412 19.4689C97.1412 23.3588 94.3668 26.5804 90.5715 26.5804Z" fill="black"/>
<path d="M143.585 8.94537C137.653 8.94537 133.157 13.5458 133.157 19.4727C133.157 25.3996 137.654 29.9962 143.586 29.9962C149.518 29.9962 154.014 25.4047 154.014 19.4727C154.014 13.5407 149.514 8.94537 143.585 8.94537ZM143.585 26.5804C139.79 26.5804 137.015 23.3601 137.015 19.4689C137.015 15.5777 139.79 12.3574 143.585 12.3574C147.38 12.3574 150.153 15.579 150.153 19.4689C150.153 23.3588 147.379 26.5804 143.585 26.5804Z" fill="black"/>
<path fill-rule="evenodd" clip-rule="evenodd" d="M181.602 12.9448C181.602 15.1293 180.86 16.8038 179.376 17.9682C177.892 19.1327 175.79 19.7149 173.07 19.7149H169.577V29.0508H168V6.45289H173.534C178.913 6.45289 181.602 8.61685 181.602 12.9448ZM169.577 18.3547H172.683C175.229 18.3547 177.068 17.9373 178.202 17.1027C179.335 16.2577 179.902 14.8923 179.902 13.0066C179.902 11.2651 179.366 9.97705 178.294 9.14238C177.223 8.29741 175.564 7.87492 173.317 7.87492H169.577V18.3547ZM195.946 26.3922L196.332 29.0508H197.461V17.8755C197.461 15.8455 197.002 14.3513 196.085 13.393C195.178 12.4347 193.803 11.9555 191.958 11.9555C190.155 11.9555 188.331 12.3883 186.486 13.2539L187.058 14.5832C188.728 13.7176 190.34 13.2848 191.896 13.2848C193.339 13.2848 194.385 13.6918 195.034 14.5059C195.683 15.32 196.008 16.5256 196.008 18.1228V19.2357L192.808 19.3284C190.222 19.38 188.243 19.8591 186.873 20.7659C185.513 21.6727 184.833 22.9454 184.833 24.5838C184.833 26.0779 185.291 27.2475 186.208 28.0925C187.125 28.9375 188.408 29.3599 190.057 29.3599C191.273 29.3599 192.324 29.1384 193.21 28.6953C194.107 28.2419 194.977 27.4742 195.822 26.3922H195.946ZM194.385 26.4386C193.354 27.4588 191.943 27.9688 190.15 27.9688C188.975 27.9688 188.063 27.6803 187.414 27.1032C186.775 26.5159 186.455 25.6967 186.455 24.6456C186.455 23.3266 186.955 22.358 187.955 21.7397C188.965 21.1111 190.649 20.7402 193.009 20.6268L195.946 20.5032V22.1571C195.946 23.981 195.426 25.4081 194.385 26.4386ZM213.119 29.0508L212.732 26.3922H212.608C211.764 27.4742 210.893 28.2419 209.996 28.6953C209.11 29.1384 208.059 29.3599 206.843 29.3599C205.194 29.3599 203.911 28.9375 202.994 28.0925C202.077 27.2475 201.619 26.0779 201.619 24.5838C201.619 22.9454 202.299 21.6727 203.659 20.7659C205.029 19.8591 207.008 19.38 209.594 19.3284L212.794 19.2357V18.1228C212.794 16.5256 212.469 15.32 211.82 14.5059C211.171 13.6918 210.125 13.2848 208.682 13.2848C207.126 13.2848 205.514 13.7176 203.844 14.5832L203.273 13.2539C205.117 12.3883 206.941 11.9555 208.744 11.9555C210.589 11.9555 211.964 12.4347 212.871 13.393C213.788 14.3513 214.247 15.8455 214.247 17.8755V29.0508H213.119ZM206.936 27.9688C208.729 27.9688 210.141 27.4588 211.171 26.4386C212.212 25.4081 212.732 23.981 212.732 22.1571V20.5032L209.795 20.6268C207.436 20.7402 205.751 21.1111 204.741 21.7397C203.741 22.358 203.242 23.3266 203.242 24.6456C203.242 25.6967 203.561 26.5159 204.2 27.1032C204.849 27.6803 205.761 27.9688 206.936 27.9688ZM230.477 27.7061C231.868 26.6035 232.563 25.1093 232.563 23.2236C232.563 22.1931 232.357 21.3172 231.945 20.5959C231.543 19.8643 230.899 19.2151 230.013 18.6483C229.127 18.0713 227.803 17.4788 226.04 16.8708C224.361 16.2731 223.176 15.7631 222.485 15.3406C221.795 14.9078 221.295 14.4235 220.986 13.8876C220.687 13.3518 220.538 12.6665 220.538 11.8319C220.538 10.5026 221.032 9.45152 222.022 8.67868C223.011 7.90583 224.34 7.51941 226.01 7.51941C227.72 7.51941 229.513 7.91099 231.389 8.69413L231.96 7.33393C230.095 6.53017 228.101 6.1283 225.979 6.1283C223.897 6.1283 222.192 6.66413 220.862 7.73581C219.543 8.79718 218.884 10.1728 218.884 11.8628C218.884 13.3982 219.322 14.6296 220.198 15.557C221.084 16.4741 222.681 17.3294 224.989 18.1228C226.566 18.6587 227.761 19.1584 228.575 19.6221C229.389 20.0858 229.977 20.6011 230.337 21.1678C230.698 21.7243 230.878 22.4301 230.878 23.2854C230.878 24.6662 230.332 25.7843 229.24 26.6395C228.158 27.4845 226.69 27.907 224.835 27.907C222.31 27.907 220.234 27.5618 218.606 26.8714V28.448C220.079 29.056 222.197 29.3599 224.959 29.3599C227.256 29.3599 229.096 28.8087 230.477 27.7061ZM262.72 17.5355C262.72 21.3275 261.725 24.1974 259.736 26.1449C257.748 28.0822 254.826 29.0508 250.972 29.0508H245.562V6.45289H251.668C255.275 6.45289 258.016 7.39576 259.891 9.28149C261.777 11.1672 262.72 13.9185 262.72 17.5355ZM261.004 17.5973C261.004 14.3616 260.18 11.9298 258.531 10.3016C256.892 8.66322 254.481 7.84401 251.297 7.84401H247.139V27.6597H250.88C257.629 27.6597 261.004 24.3056 261.004 17.5973ZM279.428 27.0569C280.758 25.5112 281.422 23.3678 281.422 20.6268C281.422 17.927 280.763 15.8043 279.444 14.2586C278.135 12.7026 276.327 11.9246 274.019 11.9246C271.7 11.9246 269.876 12.6923 268.547 14.2277C267.218 15.7528 266.553 17.8858 266.553 20.6268C266.553 22.3683 266.852 23.9037 267.449 25.233C268.047 26.5623 268.907 27.5824 270.031 28.2934C271.154 29.0044 272.452 29.3599 273.926 29.3599C276.265 29.3599 278.099 28.5923 279.428 27.0569ZM269.675 26.0367C268.665 24.7383 268.16 22.935 268.16 20.6268C268.16 18.298 268.66 16.4998 269.66 15.2324C270.67 13.9546 272.102 13.3157 273.957 13.3157C275.812 13.3157 277.249 13.9546 278.269 15.2324C279.3 16.5101 279.815 18.3083 279.815 20.6268C279.815 22.935 279.305 24.7383 278.285 26.0367C277.275 27.3248 275.842 27.9688 273.988 27.9688C272.133 27.9688 270.695 27.3248 269.675 26.0367ZM292.783 29.3599C290.382 29.3599 288.502 28.6026 287.141 27.0878C285.781 25.573 285.101 23.4606 285.101 20.7505C285.101 17.9682 285.807 15.8043 287.219 14.2586C288.63 12.7026 290.563 11.9246 293.015 11.9246C294.468 11.9246 295.859 12.1771 297.188 12.682L296.771 14.0422C295.318 13.5579 294.056 13.3157 292.984 13.3157C290.923 13.3157 289.362 13.9546 288.301 15.2324C287.239 16.4998 286.709 18.3289 286.709 20.7196C286.709 22.9866 287.239 24.7641 288.301 26.0522C289.362 27.3299 290.846 27.9688 292.752 27.9688C294.277 27.9688 295.694 27.6958 297.003 27.1496V28.5716C295.931 29.0972 294.525 29.3599 292.783 29.3599ZM309.832 28.1543C310.976 27.3403 311.548 26.181 311.548 24.6765C311.548 23.9243 311.373 23.2699 311.022 22.7135C310.682 22.1571 310.167 21.6624 309.477 21.2296C308.786 20.7865 307.684 20.2919 306.169 19.7458C304.355 19.0966 303.134 18.5092 302.506 17.9837C301.887 17.4582 301.578 16.7575 301.578 15.8816C301.578 15.0778 301.98 14.4492 302.784 13.9958C303.588 13.5424 304.675 13.3157 306.045 13.3157C307.457 13.3157 308.987 13.6558 310.636 14.3359L311.208 12.9448C309.58 12.2647 307.859 11.9246 306.045 11.9246C304.149 11.9246 302.67 12.2904 301.609 13.0221C300.558 13.7537 300.032 14.7481 300.032 16.0052C300.032 16.7987 300.202 17.4736 300.543 18.0301C300.893 18.5762 301.408 19.0708 302.088 19.5139C302.768 19.9467 303.948 20.4671 305.628 21.0751C307.194 21.6315 308.317 22.1983 308.997 22.7753C309.688 23.3524 310.033 24.0634 310.033 24.9084C310.033 25.8255 309.6 26.5623 308.735 27.1187C307.879 27.6648 306.622 27.9379 304.963 27.9379C303.088 27.9379 301.305 27.5154 299.615 26.6705V28.3243C300.934 29.0147 302.717 29.3599 304.963 29.3599C307.065 29.3599 308.688 28.9581 309.832 28.1543Z" fill="black"/>
</svg>
