<svg width="378" height="35" viewBox="0 0 378 35" fill="none" xmlns="http://www.w3.org/2000/svg">
<path d="M40.1542 10.6511H39.9983L39.6559 7.77841H36.902V27.1718H40.5095V14.8682C41.3708 12.5079 43.1254 11.2006 45.6122 10.9131V7.71835C43.0295 7.6225 41.1472 8.93363 40.1581 10.6575" fill="black"/>
<path d="M23.4712 0.296448L14.0633 21.8048L13.9036 22.316H13.7451L13.5854 21.8048L4.11356 0.296448H0L12.1503 27.1796H15.4984L27.5848 0.296448H23.4712Z" fill="black"/>
<path d="M76.3048 19.263C76.3048 24.4921 73.5305 28 68.2055 28C62.8805 28 60.0729 24.4921 60.1049 19.263V7.71841H63.8108V18.9115C63.8108 22.9932 65.7877 24.588 68.2119 24.588C70.6361 24.588 72.5491 22.9932 72.613 18.9115V7.71841H76.3112L76.3048 19.263Z" fill="black"/>
<path d="M31.0157 7.72238H27.2523V27.1759H31.0157V7.72238Z" fill="black"/>
<path d="M48.1461 20.0592C48.1461 24.6519 50.3467 27.3624 54.9382 27.3624H55.9605V24.1676C52.6763 24.1037 51.783 22.5728 51.783 18.8413V10.8442H56.5343V7.71847H51.7817V0.287476H48.1461V20.0592Z" fill="black"/>
<path d="M115.84 7.71466H103.562V10.7765H110.386L103.084 27.1681H116.414V24.1063H108.441L115.84 7.71466Z" fill="black"/>
<path d="M131.211 7.71466H118.933V10.7765H125.758L118.455 27.1681H131.817V24.1063H123.844L131.211 7.71466Z" fill="black"/>
<path d="M90.5713 6.9454C84.6406 6.9454 80.1437 11.5369 80.1437 17.4689C80.1437 23.4009 84.6406 27.9924 90.5713 27.9924C96.5021 27.9924 101 23.4009 101 17.4689C101 11.5369 96.5034 6.9454 90.5713 6.9454ZM90.5713 24.5804C86.7773 24.5804 84.0029 21.3601 84.0029 17.4689C84.0029 13.5777 86.7773 10.3574 90.5713 10.3574C94.3654 10.3574 97.141 13.579 97.141 17.4689C97.141 21.3589 94.3667 24.5804 90.5713 24.5804Z" fill="black"/>
<path d="M143.585 6.9454C137.653 6.9454 133.157 11.5458 133.157 17.4728C133.157 23.3997 137.654 27.9963 143.586 27.9963C149.518 27.9963 154.014 23.4048 154.014 17.4728C154.014 11.5407 149.514 6.9454 143.585 6.9454ZM143.585 24.5804C139.79 24.5804 137.015 21.3601 137.015 17.4689C137.015 13.5777 139.79 10.3574 143.585 10.3574C147.38 10.3574 150.153 13.579 150.153 17.4689C150.153 21.3589 147.379 24.5804 143.585 24.5804Z" fill="black"/>
<path fill-rule="evenodd" clip-rule="evenodd" d="M261.738 24.1121C263.529 22.0232 264.424 19.1882 264.424 15.6073C264.424 12.016 263.534 9.18623 261.753 7.11791C259.973 5.0393 257.509 4 254.36 4C251.232 4 248.762 5.03416 246.951 7.10248C245.15 9.1605 244.25 11.9851 244.25 15.5764C244.25 19.178 245.145 22.0232 246.936 24.1121C248.726 26.1907 251.191 27.23 254.329 27.23C257.478 27.23 259.948 26.1907 261.738 24.1121ZM248.124 23.1088C246.684 21.3389 245.963 18.8384 245.963 15.6073C245.963 12.3865 246.689 9.90139 248.14 8.15207C249.601 6.40275 251.674 5.52809 254.36 5.52809C257.056 5.52809 259.119 6.3976 260.55 8.13664C261.99 9.86538 262.71 12.3556 262.71 15.6073C262.71 18.8692 261.99 21.3749 260.55 23.1242C259.119 24.8735 257.046 25.7482 254.329 25.7482C251.633 25.7482 249.565 24.8684 248.124 23.1088Z" fill="black"/>
<path d="M232.473 21.1022C232.473 22.9853 231.778 24.4774 230.389 25.5784C229.01 26.6795 227.173 27.23 224.879 27.23C222.121 27.23 220.006 26.9264 218.535 26.3193V24.7449C220.161 25.4344 222.234 25.7791 224.755 25.7791C226.607 25.7791 228.074 25.3572 229.154 24.5134C230.245 23.6593 230.79 22.5428 230.79 21.1639C230.79 20.3099 230.61 19.605 230.25 19.0493C229.89 18.4834 229.304 17.9689 228.491 17.5058C227.678 17.0427 226.484 16.5437 224.91 16.0086C222.605 15.2162 221.01 14.3622 220.125 13.4463C219.25 12.5202 218.813 11.2906 218.813 9.75733C218.813 8.06975 219.471 6.69602 220.788 5.63613C222.116 4.56596 223.819 4.03087 225.897 4.03087C228.017 4.03087 230.008 4.43219 231.871 5.23482L231.3 6.59311C229.427 5.81106 227.637 5.42004 225.928 5.42004C224.261 5.42004 222.934 5.80592 221.946 6.57768C220.958 7.34944 220.464 8.39903 220.464 9.72646C220.464 10.56 220.613 11.2443 220.912 11.7793C221.221 12.3144 221.72 12.7981 222.409 13.2303C223.099 13.6522 224.282 14.1615 225.959 14.7583C227.719 15.3655 229.041 15.9571 229.926 16.5334C230.811 17.0993 231.454 17.7476 231.855 18.4782C232.267 19.1985 232.473 20.0732 232.473 21.1022Z" fill="black"/>
<path fill-rule="evenodd" clip-rule="evenodd" d="M181.583 10.8378C181.583 13.0193 180.842 14.6915 179.36 15.8542C177.879 17.017 175.779 17.5984 173.063 17.5984H169.574V26.9213H168V4.35501H173.526C178.897 4.35501 181.583 6.51594 181.583 10.8378ZM169.574 16.2401H172.677C175.219 16.2401 177.055 15.8234 178.187 14.9899C179.319 14.1461 179.885 12.7826 179.885 10.8995C179.885 9.1605 179.35 7.87424 178.28 7.04074C177.21 6.19694 175.553 5.77505 173.31 5.77505H169.574V16.2401Z" fill="black"/>
<path fill-rule="evenodd" clip-rule="evenodd" d="M196.293 26.9213L195.907 24.2664H195.783C194.94 25.3469 194.07 26.1135 193.175 26.5663C192.29 27.0087 191.24 27.23 190.026 27.23C188.38 27.23 187.098 26.8081 186.183 25.9643C185.267 25.1205 184.809 23.9526 184.809 22.4605C184.809 20.8244 185.488 19.5535 186.846 18.648C188.215 17.7425 190.191 17.264 192.774 17.2125L195.969 17.1199V16.0086C195.969 14.4136 195.644 13.2097 194.996 12.3968C194.348 11.5838 193.303 11.1774 191.863 11.1774C190.309 11.1774 188.699 11.6096 187.032 12.4739L186.461 11.1465C188.302 10.2821 190.124 9.84994 191.925 9.84994C193.767 9.84994 195.14 10.3284 196.046 11.2854C196.962 12.2424 197.42 13.7345 197.42 15.7616V26.9213H196.293ZM190.119 25.8408C191.909 25.8408 193.319 25.3315 194.348 24.3127C195.387 23.2837 195.907 21.8585 195.907 20.0372V18.3856L192.974 18.5091C190.618 18.6223 188.935 18.9927 187.927 19.6204C186.929 20.2378 186.43 21.2051 186.43 22.5222C186.43 23.5718 186.749 24.3899 187.387 24.9764C188.035 25.5527 188.946 25.8408 190.119 25.8408Z" fill="black"/>
<path fill-rule="evenodd" clip-rule="evenodd" d="M212.669 24.2664L213.055 26.9213H214.182V15.7616C214.182 13.7345 213.724 12.2424 212.808 11.2854C211.903 10.3284 210.529 9.84994 208.687 9.84994C206.886 9.84994 205.065 10.2821 203.223 11.1465L203.794 12.4739C205.461 11.6096 207.072 11.1774 208.625 11.1774C210.066 11.1774 211.111 11.5838 211.759 12.3968C212.407 13.2097 212.731 14.4136 212.731 16.0086V17.1199L209.536 17.2125C206.953 17.264 204.978 17.7425 203.609 18.648C202.251 19.5535 201.572 20.8244 201.572 22.4605C201.572 23.9526 202.029 25.1205 202.945 25.9643C203.861 26.8081 205.142 27.23 206.789 27.23C208.003 27.23 209.053 27.0087 209.937 26.5663C210.833 26.1135 211.702 25.3469 212.546 24.2664H212.669ZM211.111 24.3127C210.082 25.3315 208.672 25.8408 206.881 25.8408C205.708 25.8408 204.798 25.5527 204.149 24.9764C203.511 24.3899 203.192 23.5718 203.192 22.5222C203.192 21.2051 203.691 20.2378 204.689 19.6204C205.698 18.9927 207.38 18.6223 209.737 18.5091L212.669 18.3856V20.0372C212.669 21.8585 212.15 23.2837 211.111 24.3127Z" fill="black"/>
<path d="M296.761 26.026C297.903 25.2131 298.474 24.0555 298.474 22.5531C298.474 21.8019 298.299 21.1485 297.949 20.5928C297.609 20.0372 297.095 19.5433 296.406 19.1111C295.716 18.6686 294.615 18.1747 293.102 17.6293C291.291 16.981 290.072 16.3945 289.444 15.8697C288.827 15.3449 288.518 14.6451 288.518 13.7705C288.518 12.9679 288.919 12.3402 289.722 11.8874C290.525 11.4346 291.61 11.2082 292.979 11.2082C294.389 11.2082 295.917 11.5478 297.563 12.227L298.134 10.8378C296.508 10.1586 294.79 9.81907 292.979 9.81907C291.086 9.81907 289.609 10.1844 288.549 10.915C287.499 11.6456 286.975 12.6386 286.975 13.894C286.975 14.6863 287.144 15.3603 287.484 15.916C287.834 16.4614 288.348 16.9553 289.027 17.3978C289.707 17.8299 290.885 18.3496 292.562 18.9567C294.126 19.5124 295.248 20.0783 295.927 20.6546C296.616 21.2308 296.961 21.9409 296.961 22.7846C296.961 23.7005 296.529 24.4362 295.665 24.9919C294.811 25.5373 293.555 25.8099 291.898 25.8099C290.026 25.8099 288.245 25.3881 286.558 24.5443V26.1958C287.875 26.8853 289.655 27.23 291.898 27.23C293.998 27.23 295.618 26.8287 296.761 26.026Z" fill="black"/>
<path fill-rule="evenodd" clip-rule="evenodd" d="M328.526 15.4221C328.526 19.2088 327.533 22.0746 325.547 24.0195C323.561 25.954 320.644 26.9213 316.795 26.9213H311.393V4.35501H317.49C321.092 4.35501 323.829 5.29656 325.702 7.17965C327.585 9.06275 328.526 11.8102 328.526 15.4221ZM326.813 15.4838C326.813 12.2527 325.99 9.82422 324.343 8.19838C322.707 6.56224 320.299 5.74418 317.12 5.74418H312.967V25.5321H316.703C323.443 25.5321 326.813 22.1827 326.813 15.4838Z" fill="black"/>
<path fill-rule="evenodd" clip-rule="evenodd" d="M345.212 24.9301C346.539 23.3866 347.203 21.2463 347.203 18.5091C347.203 15.8131 346.544 13.6933 345.227 12.1498C343.92 10.596 342.114 9.81907 339.809 9.81907C337.494 9.81907 335.673 10.5857 334.345 12.1189C333.018 13.6419 332.354 15.7719 332.354 18.5091C332.354 20.2481 332.653 21.7814 333.249 23.1088C333.846 24.4362 334.705 25.4549 335.827 26.165C336.949 26.875 338.245 27.23 339.717 27.23C342.053 27.23 343.884 26.4634 345.212 24.9301ZM335.472 23.9114C334.464 22.6149 333.959 20.8141 333.959 18.5091C333.959 16.1835 334.458 14.3879 335.457 13.1222C336.465 11.8462 337.895 11.2082 339.748 11.2082C341.6 11.2082 343.035 11.8462 344.054 13.1222C345.083 14.3982 345.598 16.1938 345.598 18.5091C345.598 20.8141 345.088 22.6149 344.069 23.9114C343.061 25.1977 341.631 25.8408 339.778 25.8408C337.926 25.8408 336.491 25.1977 335.472 23.9114Z" fill="black"/>
<path d="M358.548 27.23C356.15 27.23 354.272 26.4737 352.914 24.961C351.556 23.4484 350.876 21.3389 350.876 18.6326C350.876 15.8542 351.581 13.6933 352.991 12.1498C354.401 10.596 356.33 9.81907 358.779 9.81907C360.23 9.81907 361.619 10.0712 362.947 10.5754L362.53 11.9337C361.079 11.4501 359.818 11.2082 358.748 11.2082C356.69 11.2082 355.131 11.8462 354.071 13.1222C353.012 14.3879 352.482 16.2144 352.482 18.6017C352.482 20.8655 353.012 22.6406 354.071 23.9269C355.131 25.2028 356.613 25.8408 358.517 25.8408C360.04 25.8408 361.455 25.5681 362.761 25.0228V26.4428C361.691 26.9676 360.287 27.23 358.548 27.23Z" fill="black"/>
<path d="M375.573 26.026C376.715 25.2131 377.286 24.0555 377.286 22.5531C377.286 21.8019 377.111 21.1485 376.761 20.5928C376.422 20.0372 375.907 19.5433 375.218 19.1111C374.528 18.6686 373.427 18.1747 371.915 17.6293C370.103 16.981 368.884 16.3945 368.256 15.8697C367.639 15.3449 367.33 14.6451 367.33 13.7705C367.33 12.9679 367.732 12.3402 368.534 11.8874C369.337 11.4346 370.422 11.2082 371.791 11.2082C373.201 11.2082 374.729 11.5478 376.375 12.227L376.946 10.8378C375.321 10.1586 373.602 9.81907 371.791 9.81907C369.898 9.81907 368.421 10.1844 367.361 10.915C366.312 11.6456 365.787 12.6386 365.787 13.894C365.787 14.6863 365.957 15.3603 366.296 15.916C366.646 16.4614 367.16 16.9553 367.84 17.3978C368.519 17.8299 369.697 18.3496 371.374 18.9567C372.938 19.5124 374.06 20.0783 374.739 20.6546C375.429 21.2308 375.773 21.9409 375.773 22.7846C375.773 23.7005 375.341 24.4362 374.477 24.9919C373.623 25.5373 372.367 25.8099 370.711 25.8099C368.838 25.8099 367.058 25.3881 365.37 24.5443V26.1958C366.687 26.8853 368.467 27.23 370.711 27.23C372.81 27.23 374.43 26.8287 375.573 26.026Z" fill="black"/>
<path fill-rule="evenodd" clip-rule="evenodd" d="M270.502 24.264C271.666 26.1659 273.517 27.1168 276.056 27.1168C278.181 27.1168 279.855 26.3733 281.079 24.8862C282.313 23.389 282.93 21.2848 282.93 18.5736C282.93 15.7815 282.343 13.6571 281.17 12.2003C280.007 10.7334 278.312 10 276.086 10C273.598 10 271.787 10.8902 270.654 12.6707H270.563L270.275 10.3187H269V34.2792H270.502V27.997C270.502 27.1067 270.482 26.2873 270.442 25.5387L270.396 24.264H270.502ZM279.941 23.8998C279.02 25.1543 277.715 25.7815 276.026 25.7815C274.073 25.7815 272.662 25.2301 271.792 24.1275C270.932 23.0248 270.502 21.1836 270.502 18.6039V18.1184C270.502 15.7309 270.952 14.0111 271.853 12.959C272.753 11.8968 274.164 11.3657 276.086 11.3657C279.587 11.3657 281.337 13.7886 281.337 18.6343C281.337 20.8902 280.872 22.6454 279.941 23.8998Z" fill="black"/>
</svg>
