<?xml version="1.0" encoding="utf-8"?>
<!-- Generator: Adobe Illustrator 25.2.3, SVG Export Plug-In . SVG Version: 6.00 Build 0)  -->
<svg version="1.1" id="Слой_1" xmlns="http://www.w3.org/2000/svg" xmlns:xlink="http://www.w3.org/1999/xlink" x="0px" y="0px"
	 viewBox="0 0 282.3 82" style="enable-background:new 0 0 282.3 82;" xml:space="preserve">
<style type="text/css">
	.st0{fill:#5E6981;}
	.st1{fill:#0987F7;}
	.st2{fill-rule:evenodd;clip-rule:evenodd;fill:#0064C8;}
	.st3{fill-rule:evenodd;clip-rule:evenodd;fill:url(#SVGID_1_);}
	.st4{fill-rule:evenodd;clip-rule:evenodd;fill:#0056B3;}
	.st5{opacity:0.3;fill-rule:evenodd;clip-rule:evenodd;fill:#0088FB;enable-background:new    ;}
	.st6{fill-rule:evenodd;clip-rule:evenodd;fill:url(#SVGID_2_);}
	.st7{fill:#CB333B;}
</style>
<path class="st0" d="M71,39.8h9.2v5.6c-0.1,1.4,0.4,2.7,1.3,3.8c1.2,0.9,2.7,1.3,4.2,1.2c1.5,0.1,3-0.4,4.1-1.5
	c0.7-0.9,1.1-2.8,1.1-5.8V15.8c0-1.3,0.5-2.5,1.5-3.4c0.9-0.9,2.2-1.4,3.5-1.4h4.6v32.5c0.1,2.1-0.1,4.3-0.4,6.4
	c-0.3,1.3-0.9,2.5-1.7,3.6c-1.3,1.6-3.1,2.8-5,3.5c-2.4,0.7-5,1.1-7.5,1.1c-4.2,0-9-0.9-11.9-4c-1-1-1.8-2.3-2.3-3.7
	c-0.5-2.3-0.7-4.6-0.7-7L71,39.8L71,39.8z"/>
<path class="st0" d="M129.2,46.4h6.7c-0.8,3.4-2.8,6.5-5.6,8.6c-3,2.1-6.7,3.2-10.4,3.1c-5.1,0-9.1-1.7-11.9-5s-4.3-7.8-4.3-13.8
	c0-5.7,1.4-10.2,4.2-13.4s6.8-4.9,11.9-5c5.3,0,9.5,1.6,12.5,4.8s4.4,7.8,4.3,13.8c0,0.8,0,1.6-0.1,2.4h-23.2c0.1,2.8,0.8,4.8,2,6.2
	c1.3,1.5,3.2,2.3,5.2,2.2c4.1,0,3.9-1.3,6.3-3.2C127.4,46.5,128.3,46.3,129.2,46.4L129.2,46.4z M113.1,36h13.7
	c0-1.9-0.7-3.8-1.9-5.3c-1.3-1.3-3.1-2-4.9-1.9c-1.8-0.1-3.5,0.6-4.8,1.9C113.8,32.1,113.1,34,113.1,36L113.1,36z"/>
<path class="st0" d="M139.4,11h4.8c1.2,0,2.4,0.4,3.2,1.3c0.9,0.8,1.4,2,1.3,3.1v42.7h-9.4L139.4,11L139.4,11z"/>
<path class="st0" d="M173.3,39.5c-1.7,0.8-3.4,1.4-5.2,1.7l-3.1,0.7c-2.6,0.7-4.4,1.7-4.4,4.7c-0.1,1.2,0.4,2.4,1.2,3.2
	c1,0.8,2.2,1.2,3.5,1.1c4.1,0.4,7.7-2.7,8-6.8c0-0.4,0-0.8,0-1.2V39.5L173.3,39.5z M175.5,55.9c-5.4,2.8-14.9,3.2-20-0.5
	c-2.4-1.7-3.6-4.6-3.6-8.6c0-3.8,1.1-6.4,3.3-8c5.1-3.8,18-3.1,18-7.2c0-2.8-3.7-3.2-5.9-3.2c-1.1,0-2.3,0.2-3.4,0.5
	c-1,0.4-1.7,1.1-2.1,2.1h-9c0.3-2.7,1.7-5.2,3.8-6.9c2.4-2.1,5.8-3.1,10.3-3.1c5,0,8.8,0.8,11.2,2.5c2.5,1.7,4,4.5,3.9,7.5v12.2
	c0,3.6-0.6,6.4-1.9,8.4C178.9,53.4,177.3,54.9,175.5,55.9L175.5,55.9z"/>
<path class="st0" d="M185.1,45.6h9.1c0,1.6,0.7,3.1,2,4c1.6,1,3.5,1.5,5.4,1.4c1.4,0,2.9-0.3,4.1-0.9c1-0.5,1.6-1.5,1.6-2.5
	c0-1.6-1.9-2.8-5.6-3.6c-1.2-0.2-2.4-0.5-3.6-0.8c-4.7-1.2-7.9-2.5-9.5-4.1c-1.8-1.6-2.8-4-2.7-6.4c-0.1-3.3,1.4-6.4,3.9-8.4
	c2.7-2,6.2-3.1,10.4-3.1c4.7,0,8.4,1,11.1,3.1c2.6,2.2,4.1,5.3,4.1,8.7h-5.8c-4.2,0-3.2-4.6-9.4-4.6c-1.4-0.1-2.8,0.2-4,0.8
	c-0.8,0.5-1.3,1.5-1.2,2.4c0,3.3,14.7,4.5,19,8.2c1.7,1.7,2.6,4,2.6,6.4c0.2,3.6-1.4,7-4.3,9.1c-2.7,2-6.7,3-12.1,3
	c-5.1,0-8.9-1-11.4-3.1c-2.6-2.1-3.9-5.1-3.9-9L185.1,45.6L185.1,45.6z"/>
<path class="st0" d="M234.5,57.8c-6,0.4-14.7,1.6-14.7-6.7V11.7h4.8c1.2,0,2.3,0.5,3.1,1.3c0.9,0.8,1.4,2,1.4,3.2v6h5.5v1.9
	c0,1.2-0.4,2.4-1.3,3.3c-0.9,0.8-2,1.3-3.2,1.3H229v19.8c0,1.5,0.9,2.3,2.7,2.3h2.8V57.8L234.5,57.8z"/>
<path class="st0" d="M237.5,22.5h4.8c1.2,0,2.4,0.5,3.2,1.3c0.9,0.8,1.3,2,1.3,3.2v31.1h-9.4L237.5,22.5L237.5,22.5z"/>
<path class="st0" d="M275.6,46.4h6.7c-0.8,3.4-2.8,6.5-5.6,8.6c-6.3,4.7-17.1,4.2-22.4-1.9c-2.9-3.2-4.3-7.8-4.3-13.8
	c0-5.7,1.4-10.2,4.1-13.4c5.8-6.8,18.4-6.6,24.4-0.1c1.6,2,2.8,4.3,3.5,6.8h-9.4c-0.3-0.7-0.8-1.4-1.3-2c-1.3-1.3-3.1-2-5-1.9
	c-1.8-0.1-3.5,0.6-4.8,1.9c-1.6,1.8-2.4,4.7-2.4,8.9s0.8,7,2.4,8.7c1.3,1.5,3.2,2.3,5.2,2.2c2,0.1,4-0.7,5.4-2.2
	c0.3-0.4,0.7-0.8,1.1-1.1C273.8,46.6,274.7,46.3,275.6,46.4L275.6,46.4z"/>
<path class="st1" d="M247.4,20.7c-1.4-0.7-2.9-1.2-4.5-1.5c-2.7-0.6-6.4-0.9-6.4-4.6c0-4.9,6.6-4.3,9-1.8c1.3,1.3,1.9,3.2,1.8,5
	L247.4,20.7L247.4,20.7z"/>
<polygon class="st2" points="14.9,42.3 29.8,33.7 29.8,16.4 14.9,25 "/>
<polygon class="st2" points="29.8,33.7 29.8,16.4 44.8,25 44.8,42.3 "/>
<linearGradient id="SVGID_1_" gradientUnits="userSpaceOnUse" x1="29.8687" y1="830.9004" x2="29.8687" y2="771.9404" gradientTransform="matrix(1 0 0 1 0 -771.8898)">
	<stop  offset="0" style="stop-color:#0056B3"/>
	<stop  offset="0.25" style="stop-color:#0056B3"/>
	<stop  offset="0.7" style="stop-color:#0088FB"/>
	<stop  offset="1" style="stop-color:#00ACFF"/>
</linearGradient>
<path class="st3" d="M58.9,16.9L58.9,16.9c-1.1-1.9-3-2.6-4.8-3.6L35.4,2.4C30-0.7,30-0.9,24.3,2.4l-9.4,5.4L44.8,25v17.3l-14.9,8.6
	L15,42.3V25L0,33.7v10.8C0,51,0.1,51,5.5,54.1l18.8,10.8c5.4,3.1,5.4,3.3,11.1,0l18.8-10.8c5.4-3.1,5.5-3.1,5.5-9.6V22.8
	C59.7,20.7,60,18.7,58.9,16.9z"/>
<path class="st4" d="M0,33.7v10.8C0,51,0.1,51,5.5,54.1l18.8,10.8c5.4,3.1,5.4,3.3,11.1,0l-5.5-14L15,42.3V25L0,33.7z"/>
<path class="st5" d="M58.9,16.9L58.9,16.9c-1.1-1.9-3-2.6-4.8-3.6L35.4,2.4C30-0.7,30-0.9,24.3,2.4l-9.4,5.4L44.8,25v17.3l-14.9,8.6
	L15,42.3V25L0,33.7v10.8C0,51,0.1,51,5.5,54.1l18.8,10.8c5.4,3.1,5.4,3.3,11.1,0l18.8-10.8c5.4-3.1,5.5-3.1,5.5-9.6V22.8
	C59.7,20.7,60,18.7,58.9,16.9z"/>
<polygon class="st2" points="14.9,42.3 29.8,33.7 29.8,16.4 14.9,25 "/>
<polygon class="st2" points="29.8,33.7 29.8,16.4 44.8,25 44.8,42.3 "/>
<linearGradient id="SVGID_2_" gradientUnits="userSpaceOnUse" x1="29.8687" y1="830.9004" x2="29.8687" y2="771.9404" gradientTransform="matrix(1 0 0 1 0 -771.8898)">
	<stop  offset="0" style="stop-color:#0056B3"/>
	<stop  offset="0.25" style="stop-color:#0056B3"/>
	<stop  offset="0.7" style="stop-color:#0088FB"/>
	<stop  offset="1" style="stop-color:#00ACFF"/>
</linearGradient>
<path class="st6" d="M58.9,16.9L58.9,16.9c-1.1-1.9-3-2.6-4.8-3.6L35.4,2.4C30-0.7,30-0.9,24.3,2.4l-9.4,5.4L44.8,25v17.3l-14.9,8.6
	L15,42.3V25L0,33.7v10.8C0,51,0.1,51,5.5,54.1l18.8,10.8c5.4,3.1,5.4,3.3,11.1,0l18.8-10.8c5.4-3.1,5.5-3.1,5.5-9.6V22.8
	C59.7,20.7,60,18.7,58.9,16.9z"/>
<path class="st4" d="M0,33.7v10.8C0,51,0.1,51,5.5,54.1l18.8,10.8c5.4,3.1,5.4,3.3,11.1,0l-5.5-14L15,42.3V25L0,33.7z"/>
<path class="st5" d="M58.9,16.9L58.9,16.9c-1.1-1.9-3-2.6-4.8-3.6L35.4,2.4C30-0.7,30-0.9,24.3,2.4l-9.4,5.4L44.8,25v17.3l-14.9,8.6
	L15,42.3V25L0,33.7v10.8C0,51,0.1,51,5.5,54.1l18.8,10.8c5.4,3.1,5.4,3.3,11.1,0l18.8-10.8c5.4-3.1,5.5-3.1,5.5-9.6V22.8
	C59.7,20.7,60,18.7,58.9,16.9z"/>
<path class="st0" d="M79.4,78.9h-5.3l-1,2.7h-2l4.8-11.7h1.9l4.8,11.7h-2.1L79.4,78.9z M78.7,77.2l-2-5.1l-2,5.1H78.7z"/>
<path class="st0" d="M88,69.9h4.6c1.1,0,2.1,0.2,3,0.7s1.6,1.2,2,2.1s0.7,1.9,0.7,3.1s-0.2,2.2-0.7,3.1s-1.2,1.6-2,2.1
	s-1.9,0.7-3,0.7H88V69.9z M92.5,79.8c0.8,0,1.5-0.2,2-0.5c0.6-0.3,1-0.8,1.4-1.4c0.3-0.6,0.5-1.3,0.5-2.1s-0.2-1.5-0.5-2.1
	c-0.3-0.6-0.8-1.1-1.4-1.4c-0.6-0.3-1.3-0.5-2-0.5H90v8H92.5z"/>
<path class="st0" d="M100.5,69.9h2v11.7h-2V69.9z"/>
<path class="st0" d="M114.9,69.9l-4.6,11.7h-1.9l-4.6-11.7h2.1l3.5,9.1l3.6-9.1H114.9z"/>
<path class="st0" d="M116,69.9h2v11.7h-2V69.9z"/>
<path class="st0" d="M121.8,81.4c-0.8-0.3-1.4-0.6-1.8-1l0.7-1.7c0.4,0.4,1,0.7,1.6,0.9s1.3,0.4,1.9,0.4c0.8,0,1.4-0.1,1.8-0.4
	s0.6-0.6,0.6-1.1c0-0.3-0.1-0.6-0.3-0.8c-0.2-0.2-0.5-0.4-0.8-0.5s-0.8-0.3-1.4-0.4c-0.8-0.2-1.5-0.4-2-0.6c-0.5-0.2-0.9-0.5-1.3-1
	c-0.4-0.5-0.5-1.1-0.5-1.8c0-0.6,0.2-1.2,0.5-1.8c0.3-0.5,0.8-1,1.4-1.3c0.6-0.3,1.4-0.5,2.4-0.5c0.6,0,1.3,0.1,1.9,0.3
	c0.6,0.2,1.2,0.4,1.6,0.8l-0.6,1.7c-0.5-0.3-0.9-0.5-1.5-0.7c-0.5-0.2-1-0.2-1.5-0.2c-0.8,0-1.4,0.1-1.7,0.4s-0.6,0.7-0.6,1.2
	c0,0.3,0.1,0.6,0.3,0.8c0.2,0.2,0.5,0.4,0.8,0.5c0.3,0.1,0.8,0.3,1.4,0.4c0.8,0.2,1.4,0.4,1.9,0.6c0.5,0.2,0.9,0.6,1.3,1
	c0.4,0.4,0.5,1.1,0.5,1.8c0,0.6-0.2,1.2-0.5,1.8c-0.3,0.5-0.8,0.9-1.4,1.3s-1.4,0.5-2.4,0.5C123.3,81.8,122.5,81.6,121.8,81.4z"/>
<path class="st0" d="M130.4,69.9h2v11.7h-2V69.9z"/>
<path class="st0" d="M137.2,81c-0.9-0.5-1.5-1.2-2-2.2c-0.5-0.9-0.7-2-0.7-3.1s0.2-2.2,0.7-3.1c0.5-0.9,1.2-1.6,2-2.2
	c0.9-0.5,1.8-0.8,2.9-0.8s2.1,0.3,2.9,0.8c0.9,0.5,1.5,1.2,2,2.2c0.5,0.9,0.7,2,0.7,3.1s-0.2,2.2-0.7,3.1c-0.5,0.9-1.2,1.6-2,2.2
	c-0.9,0.5-1.8,0.8-2.9,0.8S138.1,81.5,137.2,81z M142,79.3c0.6-0.4,1-0.8,1.3-1.5s0.5-1.3,0.5-2.1s-0.2-1.5-0.5-2.1
	s-0.8-1.1-1.3-1.5c-0.6-0.4-1.2-0.5-1.9-0.5s-1.3,0.2-1.9,0.5c-0.6,0.4-1,0.8-1.3,1.5c-0.3,0.6-0.5,1.3-0.5,2.1s0.2,1.5,0.5,2.1
	c0.3,0.6,0.8,1.1,1.3,1.5c0.6,0.4,1.2,0.5,1.9,0.5S141.5,79.7,142,79.3z"/>
<path class="st0" d="M157.3,69.9v11.7h-1.6l-5.8-7.9v7.9h-2V69.9h1.6l5.8,7.9v-7.9H157.3z"/>
<path class="st0" d="M166.4,81c-0.9-0.5-1.5-1.2-2-2.2c-0.5-0.9-0.7-2-0.7-3.1s0.2-2.2,0.7-3.1c0.5-0.9,1.2-1.6,2-2.2
	c0.9-0.5,1.8-0.8,2.9-0.8c1.1,0,2.1,0.3,2.9,0.8c0.9,0.5,1.5,1.2,2,2.2c0.5,0.9,0.7,2,0.7,3.1s-0.2,2.2-0.7,3.1
	c-0.5,0.9-1.2,1.6-2,2.2c-0.9,0.5-1.8,0.8-2.9,0.8C168.2,81.8,167.2,81.5,166.4,81z M171.2,79.3c0.6-0.4,1-0.8,1.3-1.5
	s0.5-1.3,0.5-2.1s-0.2-1.5-0.5-2.1s-0.8-1.1-1.3-1.5c-0.6-0.4-1.2-0.5-1.9-0.5c-0.7,0-1.3,0.2-1.9,0.5c-0.6,0.4-1,0.8-1.3,1.5
	c-0.3,0.6-0.5,1.3-0.5,2.1s0.2,1.5,0.5,2.1c0.3,0.6,0.8,1.1,1.3,1.5c0.6,0.4,1.2,0.5,1.9,0.5C170,79.9,170.6,79.7,171.2,79.3z"/>
<path class="st0" d="M179,71.7v3.6h5.1v1.8H179v4.5h-2V69.9h7.7v1.8H179z"/>
<path class="st0" d="M214.2,71.7L214.2,71.7l-0.3-1.7h-1.6v11.6h2.2v-7.4c0.5-1.4,1.6-2.2,3-2.4v-1.9
	C215.9,69.8,214.8,70.6,214.2,71.7z"/>

<path class="st0" d="M204.3,65.5l-5.6,12.8l-0.1,0.3h-0.1l-0.1-0.3l-5.7-12.8h-2.5l7.3,16.1h2l7.2-16.1H204.3z"/>
<path class="st0" d="M235.8,76.8c0,3.1-1.7,5.2-4.8,5.2c-3.2,0-4.9-2.1-4.8-5.2v-6.9h2.2v6.7c0,2.4,1.2,3.4,2.6,3.4
	c1.4,0,2.6-1,2.6-3.4v-6.7h2.2V76.8z"/>
<path class="st0" d="M208.8,69.9h-2.3v11.6h2.3V69.9z"/>
<path class="st0" d="M219,77.3c0,2.7,1.3,4.4,4.1,4.4h0.6v-1.9c-2,0-2.5-1-2.5-3.2v-4.8h2.8v-1.9h-2.8v-4.4H219V77.3z"/>
<path class="st0" d="M259.4,69.9h-7.3v1.8h4.1l-4.4,9.8h8v-1.8H255L259.4,69.9z"/>
<path class="st0" d="M268.6,69.9h-7.3v1.8h4.1l-4.4,9.8h8v-1.8h-4.8L268.6,69.9z"/>
<path class="st0" d="M244.3,69.4c-3.5,0-6.2,2.7-6.2,6.3c0,3.5,2.7,6.3,6.2,6.3c3.5,0,6.2-2.7,6.2-6.3
	C250.6,72.2,247.9,69.4,244.3,69.4z M244.3,80c-2.3,0-3.9-1.9-3.9-4.3c0-2.3,1.7-4.3,3.9-4.3c2.3,0,3.9,1.9,3.9,4.3
	S246.6,80,244.3,80z"/>
<path class="st0" d="M276,69.4c-3.5,0-6.2,2.7-6.2,6.3c0,3.5,2.7,6.3,6.2,6.3c3.5,0,6.2-2.7,6.2-6.3C282.2,72.2,279.5,69.4,276,69.4
	z M276,80c-2.3,0-3.9-1.9-3.9-4.3c0-2.3,1.7-4.3,3.9-4.3c2.3,0,3.9,1.9,3.9,4.3S278.3,80,276,80z"/>
</svg>
