<svg id="f0b3a2a2-69c3-4af1-bdd6-455db94bf768" data-name="Слой 1" xmlns="http://www.w3.org/2000/svg" width="30" height="40" viewBox="0 0 30 40"><ellipse cx="15" cy="15.57" rx="3.08" ry="3" fill="#6b87ba"/><path d="M27.54,0H2.46A2.42,2.42,0,0,0,0,2.39V37.61A2.42,2.42,0,0,0,2.46,40H27.54A2.42,2.42,0,0,0,30,37.61V2.39A2.42,2.42,0,0,0,27.54,0ZM4.23,3.26a1.44,1.44,0,1,1,0,2.87,1.44,1.44,0,1,1,0-2.87Zm0,33.8a1.44,1.44,0,1,1,0-2.87,1.44,1.44,0,1,1,0,2.87ZM15,26.81A11.39,11.39,0,0,1,3.46,15.57,11.39,11.39,0,0,1,15,4.33,11.39,11.39,0,0,1,26.54,15.57a11.09,11.09,0,0,1-4.07,8.56h0l-5-2.89a1.21,1.21,0,0,0-1.68,1.64l2.17,3.58A11.66,11.66,0,0,1,15,26.81Zm11.67,2.36-2.5,2.5-7.5-10Zm-1.2,7.89A1.44,1.44,0,1,1,27,35.62,1.46,1.46,0,0,1,25.47,37.06Zm0-30.93A1.44,1.44,0,1,1,27,4.69,1.46,1.46,0,0,1,25.47,6.13Z" fill="#6b87ba"/></svg>