<svg xmlns="http://www.w3.org/2000/svg" width="180" height="35" fill="none"><path d="M46.847 14.772h-.194l-.402-3.354h-3.205v22.628h4.203v-14.37c.999-2.757 3.056-4.278 5.948-4.605v-3.727c-3.011-.12-5.202 1.416-6.35 3.428z" fill="#fff"/><path d="M27.38 2.683L16.41 27.77l-.193.597h-.18l-.193-.597L4.8 2.683H0l14.175 31.363h3.905l14.1-31.363h-4.8zm61.634 22.121c0 6.097-3.235 10.196-9.45 10.196-6.216 0-9.48-4.1-9.45-10.196v-13.46h4.322v13.058c0 4.755 2.31 6.618 5.128 6.618 2.817 0 5.053-1.863 5.127-6.618V11.344h4.323v13.46zM36.19 11.344h-4.397v22.702h4.397V11.344zm19.973 14.399c0 5.351 2.563 8.526 7.93 8.526h1.192v-3.726c-3.831-.075-4.874-1.863-4.874-6.216v-9.332h5.544v-3.652h-5.544V2.668h-4.248v23.075zM135.13 11.33h-14.324v3.577h7.975l-8.526 19.124h15.546v-3.577H126.5l8.63-19.125zm17.931 0h-14.324v3.577h7.974l-8.525 19.124h15.59v-3.577h-9.3l8.585-19.125zm-47.398-.895c-6.916 0-12.163 5.35-12.163 12.282C93.5 29.634 98.747 35 105.663 35s12.162-5.351 12.162-12.283c0-6.916-5.246-12.282-12.162-12.282zm0 20.585c-4.427 0-7.662-3.756-7.662-8.303 0-4.531 3.235-8.302 7.662-8.302 4.426 0 7.661 3.756 7.661 8.302 0 4.547-3.235 8.303-7.661 8.303zm61.841-20.585c-6.916 0-12.162 5.35-12.162 12.282 0 6.917 5.246 12.283 12.162 12.283s12.163-5.351 12.163-12.283c0-6.916-5.247-12.282-12.163-12.282zm0 20.585c-4.427 0-7.661-3.756-7.661-8.303 0-4.531 3.234-8.302 7.661-8.302s7.661 3.756 7.661 8.302c0 4.547-3.234 8.303-7.661 8.303z" fill="#fff"/></svg>