<svg width="180" height="35" viewBox="0 0 180 35" fill="none" xmlns="http://www.w3.org/2000/svg">
<path d="M46.8467 14.7721H46.6529L46.2505 11.4182H43.0459V34.046H47.2492V19.6763C48.2478 16.9186 50.3047 15.3982 53.1963 15.0702V11.3437C50.1855 11.2244 47.9944 12.7598 46.8467 14.7721Z" fill="black"/>
<path d="M27.3808 2.68311L16.4106 27.7704L16.2168 28.3667H16.0379L15.8442 27.7704L4.79946 2.68311H0L14.1748 34.046H18.08L32.1802 2.68311H27.3808Z" fill="black"/>
<path d="M89.0132 24.8039C89.0132 30.9006 85.7788 34.9998 79.5634 34.9998C73.3479 34.9998 70.0837 30.9006 70.1135 24.8039V11.3435H74.436V24.4014C74.436 29.1565 76.7463 31.0198 79.5634 31.0198C82.3804 31.0198 84.6162 29.1565 84.6907 24.4014V11.3435H89.0132V24.8039Z" fill="black"/>
<path d="M36.19 11.3435H31.793V34.0458H36.19V11.3435Z" fill="black"/>
<path d="M56.1631 25.7432C56.1631 31.0946 58.7268 34.2696 64.0926 34.2696H65.285V30.543C61.4544 30.4685 60.4111 28.6797 60.4111 24.3271V14.9957H65.9558V11.3437H60.4111V2.66821H56.1631V25.7432Z" fill="black"/>
<path d="M135.13 11.3289H120.806V14.9064H128.781L120.255 34.0312H135.801V30.4537H126.5L135.13 11.3289Z" fill="black"/>
<path d="M153.061 11.3289H138.737V14.9064H146.711L138.186 34.0312H153.776V30.4537H144.476L153.061 11.3289Z" fill="black"/>
<path d="M105.663 10.4343C98.7466 10.4343 93.5 15.7857 93.5 22.7171C93.5 29.6337 98.7466 34.9999 105.663 34.9999C112.579 34.9999 117.825 29.6486 117.825 22.7171C117.825 15.8006 112.579 10.4343 105.663 10.4343ZM105.663 31.0199C101.236 31.0199 98.0014 27.2635 98.0014 22.7171C98.0014 18.1856 101.236 14.4143 105.663 14.4143C110.089 14.4143 113.324 18.1707 113.324 22.7171C113.324 27.2635 110.089 31.0199 105.663 31.0199Z" fill="black"/>
<path d="M167.504 10.4343C160.588 10.4343 155.342 15.7857 155.342 22.7171C155.342 29.6337 160.588 34.9999 167.504 34.9999C174.42 34.9999 179.667 29.6486 179.667 22.7171C179.667 15.8006 174.42 10.4343 167.504 10.4343ZM167.504 31.0199C163.078 31.0199 159.843 27.2635 159.843 22.7171C159.843 18.1856 163.078 14.4143 167.504 14.4143C171.931 14.4143 175.166 18.1707 175.166 22.7171C175.166 27.2635 171.931 31.0199 167.504 31.0199Z" fill="black"/>
</svg>
