<svg id="ae9ed5ef-40b3-4b50-b42b-e73410b30444" data-name="Слой 1" xmlns="http://www.w3.org/2000/svg" width="21" height="22.75" viewBox="0 0 21 22.75"><path d="M21,7V3.5C21,1.57,16.3,0,10.5,0S0,1.57,0,3.5V7A1.77,1.77,0,0,0,.77,8.31,1.79,1.79,0,0,0,0,9.62v3.5a1.79,1.79,0,0,0,.77,1.32A1.77,1.77,0,0,0,0,15.75v3.5c0,1.93,4.7,3.5,10.5,3.5S21,21.18,21,19.25v-3.5a1.77,1.77,0,0,0-.77-1.31A1.79,1.79,0,0,0,21,13.12V9.62a1.79,1.79,0,0,0-.77-1.31A1.77,1.77,0,0,0,21,7ZM10.5.61c5.29,0,9.59,1.29,9.59,2.89s-4.3,2.89-9.59,2.89S.91,5.1.91,3.5,5.21.61,10.5.61Zm9.59,15.14c0,1.6-4.3,2.89-9.59,2.89S.91,17.35.91,15.75a1.27,1.27,0,0,1,.48-.89c1.81,1.05,5.21,1.76,9.11,1.76s7.3-.71,9.11-1.76A1.27,1.27,0,0,1,20.09,15.75Zm0-6.13c0,1.6-4.3,2.9-9.59,2.9S.91,11.22.91,9.62a1.25,1.25,0,0,1,.48-.88c1.81,1,5.21,1.76,9.11,1.76s7.3-.71,9.11-1.76A1.25,1.25,0,0,1,20.09,9.62Z" fill="#86A2ED"/></svg>