<svg id="be8a5736-5d8a-4262-9f39-b6c04c3c738a" data-name="Слой 1" xmlns="http://www.w3.org/2000/svg" width="18" height="24" viewBox="0 0 18 24"><ellipse cx="9" cy="9.34" rx="1.85" ry="1.8" fill="#86A2ED"/><path d="M16.52,0h-15A1.46,1.46,0,0,0,0,1.44V22.56A1.46,1.46,0,0,0,1.48,24h15A1.46,1.46,0,0,0,18,22.56V1.44A1.46,1.46,0,0,0,16.52,0Zm-14,2a.88.88,0,0,1,.89.87.88.88,0,0,1-.89.86A.87.87,0,1,1,2.54,2Zm0,20.29a.87.87,0,1,1,.89-.87A.87.87,0,0,1,2.54,22.24ZM9,16.09A6.85,6.85,0,0,1,2.07,9.34,6.84,6.84,0,0,1,9,2.6a6.83,6.83,0,0,1,6.92,6.74,6.64,6.64,0,0,1-2.44,5.14h0l-3-1.73a.73.73,0,0,0-1,1l1.3,2.15A7.09,7.09,0,0,1,9,16.09Zm7,1.41L14.5,19,10,13Zm-.72,4.74a.87.87,0,1,1,.89-.87A.87.87,0,0,1,15.28,22.24Zm0-18.56a.87.87,0,1,1,0-1.73.88.88,0,0,1,.89.87A.88.88,0,0,1,15.28,3.68Z" fill="#86A2ED"/></svg>