<svg id="b24cf952-fbcb-4e5b-8aff-8065b42a60ea" data-name="00588ac8-bb8b-4919-be09-64ecc2b7f818" xmlns="http://www.w3.org/2000/svg" xmlns:xlink="http://www.w3.org/1999/xlink" width="31" height="12.53" viewBox="0 0 31 12.53"><defs><clipPath id="b5d3ada3-3323-41f9-8d55-a4296ba94763"><rect x="8.67" y="0.05" width="17.36" height="6.08" fill="none"/></clipPath><clipPath id="a36068fd-43c8-4207-9220-1ae84ae2f804"><rect x="8.67" y="0.05" width="17.35" height="6.08" fill="none"/></clipPath><clipPath id="e1968eaa-4089-42f7-8b2e-b01e2f32806d"><rect x="7.79" y="0.05" width="18.25" height="18.25" fill="none"/></clipPath><linearGradient id="f454c7ae-627c-45ad-8efd-44db3ee680ba" x1="-1629.32" y1="-471.99" x2="-1628.29" y2="-471.99" gradientTransform="translate(-2767.8 9613.21) rotate(90) scale(5.9)" gradientUnits="userSpaceOnUse"><stop offset="0" stop-color="#1d1d1b"/><stop offset="0.16" stop-color="#494947"/><stop offset="0.46" stop-color="#969695"/><stop offset="0.72" stop-color="#cfcfce"/><stop offset="0.9" stop-color="#f2f2f2"/><stop offset="1" stop-color="#fff"/></linearGradient><mask id="b68e3207-5390-4b95-b314-f3c5e04dc5a4" x="7.79" y="0.05" width="18.25" height="18.25" maskUnits="userSpaceOnUse"><g id="b28e3d12-5bc8-4b8c-b7d2-1e566626c132" data-name="61a24326-80ca-492a-89c0-d504b94d12d5"><g clip-path="url(#b5d3ada3-3323-41f9-8d55-a4296ba94763)"><g clip-path="url(#b5d3ada3-3323-41f9-8d55-a4296ba94763)"><g clip-path="url(#a36068fd-43c8-4207-9220-1ae84ae2f804)"><g clip-path="url(#e1968eaa-4089-42f7-8b2e-b01e2f32806d)"><rect x="7.79" y="0.05" width="18.25" height="18.25" fill="url(#f454c7ae-627c-45ad-8efd-44db3ee680ba)"/></g></g></g></g></g></mask><clipPath id="b1029e17-e620-410a-ba3e-2aaf72c5eaa4"><rect x="13.73" y="0.4" width="1.29" height="0.07" fill="#86A2ED"/></clipPath></defs><path d="M10.67,2.67c1.13,3.42,1.55,9.53,4.82,9.53h0a3.81,3.81,0,0,0,.75-.07h0c-3-.69-3.33-6.74-5.15-9.86h0l-.43.4" fill="#86A2ED"/><path d="M11.11,2.27c1.81,3.09,2.16,9.17,5.15,9.86h0a5.13,5.13,0,0,0,.7-.19h0c-2.67-1.31-3.41-7.22-5.46-10h0l-.37.33" fill="#86A2ED"/><path d="M13.72.4A4.77,4.77,0,0,0,13,.47a6,6,0,0,0-2.06.85,5.25,5.25,0,0,1,.53.62A7.24,7.24,0,0,1,13.49.69a5.07,5.07,0,0,1,.76-.22A3.07,3.07,0,0,0,13.72.4" fill="#86A2ED"/><path d="M19,10.73c.27-.22.55-.47.82-.73C18.73,6.6,18.32.4,15,.4a4.37,4.37,0,0,0-.72.06c3,.75,3.39,7.28,4.74,10.25" fill="#86A2ED"/><g mask="url(#b68e3207-5390-4b95-b314-f3c5e04dc5a4)"><rect x="13.73" y="0.4" width="1.29" height="0.07" fill="#86A2ED"/><g clip-path="url(#b1029e17-e620-410a-ba3e-2aaf72c5eaa4)"><path d="M14.3.47A2.87,2.87,0,0,0,13.72.4H15a4.37,4.37,0,0,0-.72.06" fill="#86A2ED"/></g></g><path d="M19,11.49a4.75,4.75,0,0,1-.38-.4,6.45,6.45,0,0,1-1.66.88,2.39,2.39,0,0,0,.62.21,3.17,3.17,0,0,0,.53.05,3.37,3.37,0,0,0,1.5-.31,2.92,2.92,0,0,1-.61-.43" fill="#86A2ED"/><path d="M13.54.69c2.68,1.4,3,7.78,5,10.37h0l.44-.32h0c-1.31-3-1.7-9.56-4.7-10.27h0a5.07,5.07,0,0,0-.76.22" fill="#86A2ED"/><path d="M11.48,1.94c2.06,2.82,2.79,8.68,5.46,10h0a6.82,6.82,0,0,0,1.62-.87h0c-2.06-2.59-2.34-9-5-10.37h0a7.24,7.24,0,0,0-2.06,1.25" fill="#86A2ED"/><path d="M10.61,1.55l-.29.2a7.9,7.9,0,0,1,.35.92l.43-.4a5.14,5.14,0,0,0-.5-.72" fill="#86A2ED"/><path d="M11,1.32l-.34.23a5.14,5.14,0,0,1,.5.72l.37-.33A5.25,5.25,0,0,0,11,1.32" fill="#86A2ED"/><path d="M29.29.14C27.77,6,24.6,10.71,21.92,11.91h0l-.14.06h-.44a1,1,0,0,0,.38.08c2.53,0,5.07-4.53,9.28-12Z" fill="#86A2ED"/><path d="M9.35,2.59a12.54,12.54,0,0,1,1-.84,3.61,3.61,0,0,0-.22-.44,5.31,5.31,0,0,0-.75,1.28" fill="#86A2ED"/><path d="M9.59.68a2.61,2.61,0,0,1,.51.63l.14-.13A2.86,2.86,0,0,0,9.56.66h0" fill="#86A2ED"/><path d="M1.76,9.65c2.6-5,3.83-8.15,6-9h0c-2.24.88-4.76,4.12-6,9" fill="#86A2ED"/><path d="M10.24,1.18l-.14.16a3.61,3.61,0,0,1,.22.44l.29-.2a3.51,3.51,0,0,0-.37-.4" fill="#86A2ED"/><path d="M3,12.52H2.74a4.27,4.27,0,0,0,4.42-3.3C7.61,7.78,8,6.56,8.3,5.54A53.09,53.09,0,0,0,5,11,2.71,2.71,0,0,1,2.93,12.5" fill="#86A2ED"/><path d="M3,12.52H3A2.71,2.71,0,0,0,5,11H5A53.34,53.34,0,0,1,8.3,5.53h0c.3-1,.64-2,1-2.95h0A35.17,35.17,0,0,0,3,12.52" fill="#86A2ED"/><path d="M8.59.42H7.76c-2.17.86-3.4,4-6,9h0a22.81,22.81,0,0,0-.54,3.08H3C5,8.17,7.18,4.7,9.36,2.62h0a5.31,5.31,0,0,1,.75-1.28h0A2.57,2.57,0,0,0,9.59.68H9.15L9.08.48h0l-.16,0H8.59" fill="#86A2ED"/><path d="M23.35,3.39c-.5,1.6-.9,2.94-1.25,4h0a42.54,42.54,0,0,0,4-7h0a4.14,4.14,0,0,0-2.74,3" fill="#86A2ED"/><path d="M22.14,11.81l-.2.1C24.6,10.71,27.77,6,29.29.14H29c-3.5,6.24-4.62,10.42-6.85,11.67" fill="#86A2ED"/><path d="M20.4,11.28a12.68,12.68,0,0,0,1.7-3.92A19.27,19.27,0,0,1,19.86,10h0a6.5,6.5,0,0,0,.55,1.27" fill="#86A2ED"/><path d="M20.4,11.28a2.63,2.63,0,0,1-.64.56l-.16.08a2.19,2.19,0,0,0,.82.26h.86a1.74,1.74,0,0,1-.88-.85" fill="#86A2ED"/><path d="M15.47,12.2a3.81,3.81,0,0,0,.75-.07,5.56,5.56,0,0,0,.7-.19,2.39,2.39,0,0,0,.62.21,3.17,3.17,0,0,0,.53,0Z" fill="#86A2ED"/><path d="M18.09,12.2a3.37,3.37,0,0,0,1.5-.28,2.19,2.19,0,0,0,.82.26H18.09Z" fill="#86A2ED"/><path d="M20.7,12.2h.58a1.21,1.21,0,0,0,.38.06Z" fill="#86A2ED"/><path d="M19.85,10h0c-.27.26-.55.51-.82.73l-.44.32a4.75,4.75,0,0,0,.38.4,2.89,2.89,0,0,0,.62.47l.16-.08a2.44,2.44,0,0,0,.64-.56A6.5,6.5,0,0,1,19.84,10" fill="#86A2ED"/><path d="M28,.14h-1.8L26.1.39h0a42.63,42.63,0,0,1-4,7h0a12.84,12.84,0,0,1-1.69,3.89h0a1.78,1.78,0,0,0,.88.85h.44l.14-.07h0l.21-.1h0C24.37,10.56,25.49,6.38,29,.14H28Z" fill="#86A2ED"/><path d="M8.68.42H9.2l.08.13h.16a2.86,2.86,0,0,1,.8.63L10.49,1A2.71,2.71,0,0,0,8.9.41H8.69" fill="#86A2ED"/><path d="M10.24,1.18a3.51,3.51,0,0,1,.37.4L11,1.35A4.31,4.31,0,0,0,10.49,1l-.25.22" fill="#86A2ED"/><path d="M8.68.42h.21a2.68,2.68,0,0,1,1.59.52A2.86,2.86,0,0,1,12.38.4H8.68" fill="#86A2ED"/><path d="M12.38.4a2.91,2.91,0,0,0-1.9.52,4.31,4.31,0,0,1,.46.39A6,6,0,0,1,13,.46,4.37,4.37,0,0,1,13.72.4Z" fill="#86A2ED"/><path d="M22.1,7.36c.35-1.08.75-2.4,1.26-4A4.1,4.1,0,0,1,26.1.4l.11-.26a4.14,4.14,0,0,0-4.12,3.23c-1,3.21-1.61,5.29-2.2,6.62A19.86,19.86,0,0,0,22.1,7.36" fill="#86A2ED"/><path d="M9.35,2.59c-.39,1-.73,2-1,3a22.44,22.44,0,0,1,2.37-2.87,8.1,8.1,0,0,0-.38-.92,11,11,0,0,0-1,.84" fill="#86A2ED"/><path d="M7.87.65h.69C5.68.41,1.76,5.68,0,12.52H.34c.57-1,1-2,1.54-2.86,1.21-4.83,3.75-8.13,6-9" fill="#86A2ED"/><path d="M1.89,9.65c-.47.9-1,1.84-1.54,2.87h1a25.31,25.31,0,0,1,.55-2.86" fill="#86A2ED"/></svg>