<svg id="b58c7746-98f7-48f9-a283-60813d4392c9" data-name="82d401cb-1007-42ae-b816-e910b0efff7c" xmlns="http://www.w3.org/2000/svg" width="34" height="12.85" viewBox="0 0 34 12.85"><path d="M2.56,3.87c-.06,0-.09,0,0-.08l.35-.45a.23.23,0,0,1,.18-.08H9c.07,0,.09,0,0,.09l-.27.44a.26.26,0,0,1-.17.09H2.56ZM.06,5.4C0,5.4,0,5.33,0,5.33l.35-.45A.23.23,0,0,1,.53,4.8H8.07a.08.08,0,0,1,.09.06v0L8,5.33a.13.13,0,0,1-.15.09Zm4,1.53c-.07,0-.09,0,0-.09l.18-.45a.2.2,0,0,1,.17-.09H7.73c.06,0,.1,0,.1.11v.41a.13.13,0,0,1-.12.11H4.07ZM21.24,3.58l-2.77.69c-.25.06-.27.08-.48-.17a2.17,2.17,0,0,0-.78-.63,2.86,2.86,0,0,0-3,.24A3.56,3.56,0,0,0,12.53,6.9a2.61,2.61,0,0,0,2.23,2.68,3.07,3.07,0,0,0,2.82-1.07c.14-.18.27-.38.44-.61H14.87c-.35,0-.43-.21-.32-.5.21-.51.61-1.38.84-1.81a.44.44,0,0,1,.41-.26h6a6.91,6.91,0,0,1-.09,1.35,7.13,7.13,0,0,1-1.36,3.26,6.87,6.87,0,0,1-4.72,2.82A5.81,5.81,0,0,1,11.2,11.7,5.2,5.2,0,0,1,9.08,8a6.56,6.56,0,0,1,1.39-5A7.39,7.39,0,0,1,15.1.14,5.67,5.67,0,0,1,19.49,1,5.19,5.19,0,0,1,21.41,3.3c.09.15,0,.23-.17.29Z" fill="#86A2ED"/><path d="M26.72,12.76a6.21,6.21,0,0,1-4-1.46A5.21,5.21,0,0,1,20.9,8.11a6.34,6.34,0,0,1,1.34-5A6.9,6.9,0,0,1,26.87.31a6.07,6.07,0,0,1,4.71.85,5.14,5.14,0,0,1,2.34,3.7A6.39,6.39,0,0,1,32,10.49a7.53,7.53,0,0,1-4,2.12C27.6,12.7,27.15,12.71,26.72,12.76Zm3.94-6.71a5,5,0,0,0,0-.55,2.73,2.73,0,0,0-3.13-2.26l-.25,0a3.62,3.62,0,0,0-2.9,2.89A2.74,2.74,0,0,0,25.9,9.36a3,3,0,0,0,2.7-.09,3.63,3.63,0,0,0,2.12-3.19Z" fill="#86A2ED"/></svg>