<svg id="fccf5033-8291-4f25-99a8-134380cb21dc" data-name="Capa 1" xmlns="http://www.w3.org/2000/svg" width="25" height="25.78" viewBox="0 0 25 25.78"><path d="M18.87,7.87H6.15a.73.73,0,0,0-.73.73v2.5a.73.73,0,0,0,.73.73H18.87a.72.72,0,0,0,.73-.73V8.6A.71.71,0,0,0,18.87,7.87ZM6.75,9.62a.44.44,0,0,1-.44-.44.45.45,0,0,1,.44-.45.44.44,0,0,1,.44.45A.42.42,0,0,1,6.75,9.62ZM17.67,11h-3.2V9.88h3.2V11Z" fill="#86A2ED"/><path d="M18.87,12.28H6.15a.73.73,0,0,0-.73.73v2.5a.73.73,0,0,0,.73.73H18.87a.73.73,0,0,0,.73-.73V13A.69.69,0,0,0,18.87,12.28ZM6.75,14a.43.43,0,0,1-.44-.44.44.44,0,1,1,.88,0A.43.43,0,0,1,6.75,14Zm10.92,1.31h-3.2V14.26h3.2v1.07Z" fill="#86A2ED"/><path d="M18.87,16.66H6.15a.73.73,0,0,0-.73.73v2.5a.73.73,0,0,0,.73.73H18.87a.73.73,0,0,0,.73-.73v-2.5A.71.71,0,0,0,18.87,16.66ZM6.75,18.4A.43.43,0,0,1,6.31,18a.44.44,0,0,1,.88,0A.43.43,0,0,1,6.75,18.4Zm10.92,1.33h-3.2V18.66h3.2v1.07Z" fill="#86A2ED"/><polygon points="14.73 23.04 13.37 23.04 13.37 21.06 11.68 21.06 11.68 23.04 10.32 23.04 10.32 23.57 5.58 23.57 5.58 25.26 10.32 25.26 10.32 25.78 14.73 25.78 14.73 25.26 19.47 25.26 19.47 23.57 14.73 23.57 14.73 23.04" fill="#86A2ED"/><path d="M20.05,3.83a.66.66,0,0,1-.47-.26,5.49,5.49,0,0,0-4.41-2.21h-.34a.58.58,0,0,1-.41-.13A6.08,6.08,0,0,0,10.74,0,6.17,6.17,0,0,0,5.19,3.52a.71.71,0,0,1-.5.36,5.46,5.46,0,0,0-.36,10.74V13a1.42,1.42,0,0,1,.1-.58A3.31,3.31,0,0,1,5.45,6a.72.72,0,0,1,.26,0,1.08,1.08,0,0,0,1.12-.81,4.07,4.07,0,0,1,3.91-3,3.9,3.9,0,0,1,2.79,1.15,1,1,0,0,0,1,.29,3.23,3.23,0,0,1,.68-.08,3.27,3.27,0,0,1,3,1.88,1.07,1.07,0,0,0,1.07.6l.34,0a3.31,3.31,0,0,1,1,6.46,2.2,2.2,0,0,1,.1.58v1.61A5.45,5.45,0,0,0,25,9.28,5.39,5.39,0,0,0,20.05,3.83Z" fill="#86A2ED"/></svg>