<svg id="e4268492-c114-480a-9786-299e382d8605" data-name="57a6192a-ea90-4b27-b2f1-67d6d8486d36" xmlns="http://www.w3.org/2000/svg" width="23.05" height="28.49" viewBox="0 0 23.05 28.49"><path d="M7.6,21.9s-1.1.7.8.8a14.46,14.46,0,0,0,6.2-.3,6.56,6.56,0,0,0,1.5.7c-5.8,2.3-13.1,0-8.5-1.2Zm-.7-3.1s-1.2.8.7,1.1a26.92,26.92,0,0,0,8-.4,2.4,2.4,0,0,0,1.2.7c-7.1,1.9-15,.3-9.9-1.4Zm13.8,5.3s.8.7-1,1.1c-3.3,1-14.1,1.2-17,0-1.1-.4,1-1,1.5-1.1.3,0,.6-.1,1-.1-1.1-.7-7.6,1.4-3.3,2.2,11.9,1.7,21.7-.9,18.8-2.1ZM8.1,15.7s-5.4,1.2-1.9,1.7c2.3.1,4.8.1,7.2,0a28.67,28.67,0,0,0,4.4-.6,4.59,4.59,0,0,0-1.4.7c-5.5,1.4-16.1.7-13.1-.7a11.6,11.6,0,0,1,4.8-1.1Zm9.7,4.9c5.5-2.6,3-5.2,1.2-5-.3,0-.4.1-.7.1a1.54,1.54,0,0,1,.6-.4c3.6-1,6.3,3.5-1.1,5.3ZM8.7,27.9c5.4.3,13.6-.1,13.8-2.5,0,0-.4,1-4.4,1.7a44.3,44.3,0,0,1-13.6.1c-.1,0,.6.6,4.2.7Z" transform="translate(0.05)" fill="#86A2ED" stroke="#86A2ED" stroke-linecap="round" stroke-linejoin="round"/><path d="M14.5.5s3.2,2.9-3,7.3c-4.7,3.6-1.1,5.5,0,7.9C8.7,13.3,6.6,11.3,8,9.3,10.1,6.4,15.7,5,14.5.5ZM12.8,13.7a1.87,1.87,0,0,1-.1,2.6l-.1.1-.1.1s3.7-1.8,1.9-3.9-2.8-3,3.7-6.5c.1.1-10.1,2.4-5.3,7.6Z" transform="translate(0.05)" fill="#86A2ED" stroke="#86A2ED" stroke-linecap="round" stroke-linejoin="round"/></svg>