<svg id="bfc9ecf0-1d6d-469c-b8a3-6e03f5ad98af" data-name="Слой 1" xmlns="http://www.w3.org/2000/svg" width="25" height="24.25" viewBox="0 0 25 24.25"><path d="M9.77,12.36a.46.46,0,0,0,.32-.34.44.44,0,0,0-.14-.45h0l-2-1.83a5.39,5.39,0,0,0-.76,3.39l2.63-.75Z" fill="#86A2ED"/><path d="M11.42,10.33a.47.47,0,0,0,.26-.39h0l.16-2.73h0a5.21,5.21,0,0,0-3.14,1.5L11,10.29A.43.43,0,0,0,11.42,10.33Z" fill="#86A2ED"/><polygon points="11.74 13.16 12.49 13.53 13.24 13.16 13.43 12.35 12.92 11.7 12.08 11.7 11.56 12.35 11.74 13.16" fill="#86A2ED"/><path d="M13.57,10.35a.46.46,0,0,0,.48-.06l2.22-1.58a5.49,5.49,0,0,0-3.12-1.5l.16,2.73A.46.46,0,0,0,13.57,10.35Z" fill="#86A2ED"/><polygon points="12.41 0 12.42 0 12.42 0 12.41 0" fill="#86A2ED"/><path d="M25,14.76,22.81,5.43a1.67,1.67,0,0,0-.9-1.12L13.22.17a1.7,1.7,0,0,0-.8-.17,1.6,1.6,0,0,0-.64.17L3.07,4.32a1.69,1.69,0,0,0-.9,1.12L0,14.76A1.59,1.59,0,0,0,.28,16l.09.13,6,7.48a1.65,1.65,0,0,0,1.3.61h9.65a1.69,1.69,0,0,0,1.3-.62l6-7.48A1.58,1.58,0,0,0,25,14.76Zm-3.33-.06A.52.52,0,0,1,21,15h0l-.13,0a2.68,2.68,0,0,1-.47-.18,6.8,6.8,0,0,0-.91-.26.41.41,0,0,0-.29.11l-.22,0a6.7,6.7,0,0,1-3,3.76l.09.21a.4.4,0,0,0-.05.32,5.12,5.12,0,0,0,.47.82,4.38,4.38,0,0,1,.28.42l.06.14a.5.5,0,0,1,0,.54.51.51,0,0,1-.25.21.54.54,0,0,1-.68-.31l-.06-.13a4.42,4.42,0,0,1-.15-.48,4.7,4.7,0,0,0-.36-.87A.37.37,0,0,0,15,19.1l-.11-.2a6.78,6.78,0,0,1-4.8,0L10,19.1a.39.39,0,0,0-.22.11,3.66,3.66,0,0,0-.4.93,4.42,4.42,0,0,1-.15.48l-.07.13a.5.5,0,0,1-.43.34A.48.48,0,0,1,8.41,21a.52.52,0,0,1-.2-.71l.07-.14a4.38,4.38,0,0,1,.28-.42A5.41,5.41,0,0,0,9,18.9a.53.53,0,0,0,0-.3l.1-.2a6.73,6.73,0,0,1-3-3.75l-.23,0a.54.54,0,0,0-.3-.1,4.74,4.74,0,0,0-.91.26,2.64,2.64,0,0,1-.47.17L4,15H4a.52.52,0,0,1-.53-.13.54.54,0,0,1-.15-.29.53.53,0,0,1,.45-.6h0l.13,0,.5,0a5,5,0,0,0,.94-.15.77.77,0,0,0,.22-.22l.22-.07A6.71,6.71,0,0,1,6.88,8.82l-.17-.15a.6.6,0,0,0-.1-.3,4.43,4.43,0,0,0-.78-.55c-.15-.08-.3-.16-.44-.25l-.1-.09a.55.55,0,0,1-.13-.77.49.49,0,0,1,.41-.18.57.57,0,0,1,.37.14l.11.09a2.9,2.9,0,0,1,.34.36,4.64,4.64,0,0,0,.7.63.38.38,0,0,0,.31,0l.19.14A6.59,6.59,0,0,1,11,6a7.36,7.36,0,0,1,.94-.15V5.61a.55.55,0,0,0,.17-.27,4.94,4.94,0,0,0,0-.94A4.29,4.29,0,0,1,12,3.9V3.75a.54.54,0,0,1,.51-.57h0a.55.55,0,0,1,.51.58v.16c0,.16,0,.33-.07.49a5,5,0,0,0-.06.94.39.39,0,0,0,.17.26s0,.16,0,.23a6.8,6.8,0,0,1,4.32,2.09l.2-.14a.58.58,0,0,0,.32,0,5.11,5.11,0,0,0,.68-.64,2.9,2.9,0,0,1,.34-.36L19,6.66a.52.52,0,0,1,.55-.13.53.53,0,0,1,.27.22.52.52,0,0,1-.17.72l-.11.09a3.7,3.7,0,0,1-.43.25,4.76,4.76,0,0,0-.78.55.39.39,0,0,0-.09.29l-.19.17a6.74,6.74,0,0,1,1.08,4.68l.22.07a.58.58,0,0,0,.22.22,6,6,0,0,0,.93.16,4.07,4.07,0,0,1,.5,0l.15,0a.52.52,0,0,1,.43.35A.47.47,0,0,1,21.62,14.7Z" fill="#86A2ED"/><path d="M14.76,13.92h0a.26.26,0,0,0-.15,0,.45.45,0,0,0-.25.6l1.05,2.53a5.33,5.33,0,0,0,2.17-2.73l-2.71-.45Z" fill="#86A2ED"/><path d="M17.09,9.74l-2,1.82a.46.46,0,0,0-.14.44.44.44,0,0,0,.32.34h0l2.63.76a5.42,5.42,0,0,0-.78-3.38Z" fill="#86A2ED"/><path d="M12.9,15.26a.47.47,0,0,0-.42-.24v0a.45.45,0,0,0-.39.23l-1.33,2.39a5.44,5.44,0,0,0,2.94.15l.53-.16-1.33-2.39Z" fill="#86A2ED"/><path d="M10.21,13.93h-.09l-2.69.45a5.38,5.38,0,0,0,2.16,2.7l1-2.51h0a.46.46,0,0,0-.42-.64Z" fill="#86A2ED"/></svg>