<svg id="b0abf872-f9c7-43a3-b992-d5dc01e030e0" data-name="Слой 1" xmlns="http://www.w3.org/2000/svg" width="20" height="19.19" viewBox="0 0 20 19.19"><path d="M1,0A89.33,89.33,0,0,0,.21,19.19H5.1C4.64,16.71,3,5.41,4.36,5.37,5.1,5.49,8.5,15,8.5,15a14.43,14.43,0,0,1,1.5-.09,14.43,14.43,0,0,1,1.5.09s3.4-9.47,4.14-9.59c1.39,0-.28,11.34-.74,13.82h4.89A89.33,89.33,0,0,0,19,0H14.52C13.65,0,10.38,5.76,10,5.76S6.35,0,5.49,0Z" fill="#86A2ED"/><path d="M9,18a1.16,1.16,0,1,1-1.16-1.15A1.16,1.16,0,0,1,9,18Z" fill="#86A2ED"/><path d="M13.28,18a1.16,1.16,0,1,1-1.16-1.15A1.16,1.16,0,0,1,13.28,18Z" fill="#86A2ED"/></svg>