<svg id="b17ad573-618d-475e-8567-cee04a584989" data-name="facbef17-e70d-47bd-ad74-79cdb30b9b01" xmlns="http://www.w3.org/2000/svg" width="23" height="16.82" viewBox="0 0 23 16.82"><path d="M23,3.38c0-.42-.45-.56-.74-.6a.68.68,0,0,0,0-.4.49.49,0,0,0-.48-.21,2.11,2.11,0,0,0-1.4.81h-1.9A5.21,5.21,0,0,0,17,1.86a6.85,6.85,0,0,0-3.24-.74h-4a2,2,0,0,0-2.09-1A2.49,2.49,0,0,0,7,.33a1.41,1.41,0,0,0-1-.32C5.08,0,4.07,1.12,3.85,1.39A4.58,4.58,0,0,0,.71,3,4.2,4.2,0,0,0,0,5.61v9.2a1.37,1.37,0,0,0,.26,1,1.49,1.49,0,0,0,1.14.35,1.44,1.44,0,0,0,1.2-.39.91.91,0,0,0,.21-.63l.33-3.94a1.61,1.61,0,0,1,.59-1.31,1.57,1.57,0,0,1,1-.22v3.92a2.64,2.64,0,0,0,.2,1,2.08,2.08,0,0,0,1.71,1.25l.14.18a3.14,3.14,0,0,0,2.4.76A2.85,2.85,0,0,0,11.51,16a1.72,1.72,0,0,0,.36-1.22V12.13a4.78,4.78,0,0,0,.75.08v1.87a2,2,0,0,0,.25.89,2.16,2.16,0,0,0,1.82,1,3.18,3.18,0,0,0,2.31.71,2.87,2.87,0,0,0,2.33-.79,1.54,1.54,0,0,0,.35-1V9.06a.24.24,0,0,0,0-.12,6.23,6.23,0,0,0-.42-5h1.13a1.68,1.68,0,0,0,1.29.78c.15,0,.59,0,.7-.32a.44.44,0,0,0,0-.39C22.63,3.91,23,3.76,23,3.38Zm-21.09,1S1.69,4.21,1.8,4a2,2,0,0,1,2.14-.48s.15,0,.09.12-.13.06-.13.06a1.67,1.67,0,0,0-1.72.5C2,4.43,1.91,4.33,1.91,4.33Zm.83,1.75c-.59-.67.13-1.54,1-1.53.11.18-.63.6-.63.6s.78-.38,1,.37S3,6.92,2.74,6.08Z" fill="#86A2ED"/></svg>