<svg id="b4220a57-87f0-4f6b-9a7c-d09523c66b5d" data-name="Слой 1" xmlns="http://www.w3.org/2000/svg" width="24mm" height="22mm" viewBox="0 0 68.03 62.36">
  <path d="M52.93,11.13a21.59,21.59,0,0,0-39.88,5.39A14.45,14.45,0,0,0,14.6,45.35h.31a7.12,7.12,0,0,1,.77-5.1l2.3-4a7.11,7.11,0,0,1,6.14-3.54,8.74,8.74,0,0,1,1,.07,7.1,7.1,0,0,1,6.58-4.46h4.59a7.09,7.09,0,0,1,6.58,4.46,8.74,8.74,0,0,1,1-.07,7.11,7.11,0,0,1,6.14,3.54l2.29,4a7,7,0,0,1,.8,4.91,17.15,17.15,0,0,0-.21-34Z" fill="#86A2ED"/>
  <path d="M44.51,49.52a9.83,9.83,0,0,0,.14-1.33,9.66,9.66,0,0,0-.14-1.33l2.56-1.93a1.41,1.41,0,0,0,.37-1.84l-2.3-4a1.41,1.41,0,0,0-1.77-.6l-2.94,1.24a10.46,10.46,0,0,0-2.32-1.38l-.4-3.12A1.41,1.41,0,0,0,36.31,34H31.73a1.42,1.42,0,0,0-1.41,1.24l-.39,3.12a10.24,10.24,0,0,0-2.32,1.38l-2.94-1.24a1.41,1.41,0,0,0-1.78.6l-2.29,4A1.42,1.42,0,0,0,21,44.93l2.55,1.93a11.52,11.52,0,0,0-.13,1.33,11.52,11.52,0,0,0,.13,1.33L21,51.45a1.43,1.43,0,0,0-.38,1.84l2.3,4a1.41,1.41,0,0,0,1.77.6l2.94-1.24A10.68,10.68,0,0,0,29.93,58l.39,3.12a1.41,1.41,0,0,0,1.4,1.24h4.59a1.41,1.41,0,0,0,1.4-1.24L38.1,58a10.39,10.39,0,0,0,2.32-1.38l2.94,1.24a1.42,1.42,0,0,0,1.78-.6l2.29-4a1.41,1.41,0,0,0-.37-1.84ZM34,53.86a5.67,5.67,0,1,1,5.67-5.67A5.67,5.67,0,0,1,34,53.86Z" fill="#86A2ED"/>
</svg>
