<svg id="f0810da5-ceec-416b-9b5f-9a2907391783" data-name="Capa 1" xmlns="http://www.w3.org/2000/svg" width="27mm" height="22.15mm" viewBox="0 0 76.54 62.78">
  <path d="M49.21,46a2.24,2.24,0,0,0-2-1.19H45V33.63a2.24,2.24,0,0,0-2.24-2.24h-9a2.24,2.24,0,0,0-2.24,2.24V44.84H29.3a2.25,2.25,0,0,0-1.87,3.49l9,13.45a2.24,2.24,0,0,0,1.87,1,2.21,2.21,0,0,0,1.86-1l9-13.45A2.24,2.24,0,0,0,49.21,46Z" fill="#86A2ED"/>
  <path d="M65.09,19.35a11.05,11.05,0,0,0-3.2-7.1A11.41,11.41,0,0,0,50.8,9.56,20,20,0,0,0,33.78,0,20.2,20.2,0,0,0,13.7,18.55,18.13,18.13,0,0,0,0,35.88,18.08,18.08,0,0,0,18.09,53.81H25.7l-2-3a6.74,6.74,0,0,1,3.36-10.08V33.63a6.72,6.72,0,0,1,6.72-6.72h9a6.73,6.73,0,0,1,6.73,6.72v7.11a6.74,6.74,0,0,1,3.36,10.08l-2,3h7.61A18.08,18.08,0,0,0,76.54,35.88,17.87,17.87,0,0,0,65.09,19.35Z" fill="#86A2ED"/>
</svg>
