<svg id="a615f43e-c4b3-44ae-87d9-04e036ffc40e" data-name="89ae4354-c3f1-4829-b8f8-769147936e6c" xmlns="http://www.w3.org/2000/svg" width="22" height="22.01" viewBox="0 0 22 22.01"><path d="M13.64.21a16.89,16.89,0,0,0-5.31,0C6.11.6,5.68,1.45,5.68,3h0V5H11v.66H3.66A3.31,3.31,0,0,0,.37,8.3a9.88,9.88,0,0,0,0,5.34,3,3,0,0,0,2.81,2.63H5V13.91a3.36,3.36,0,0,1,3.32-3.27h5.31A2.65,2.65,0,0,0,16.29,8h0V3A3,3,0,0,0,13.64.21ZM8,3.67a1,1,0,1,1,0-2,1,1,0,0,1,1,1H9A1,1,0,0,1,8,3.67Z" fill="#86A2ED"/><path d="M21.6,8.3c-.38-1.53-1.11-2.67-2.66-2.67H17V8a3.37,3.37,0,0,1-3.31,3.3H8.33a2.7,2.7,0,0,0-2.65,2.69v5c0,1.43,1.22,2.26,2.65,2.66a8.9,8.9,0,0,0,5.31,0c1.33-.39,2.65-1.15,2.65-2.66V17H11v-.68h7.94c1.55,0,2.12-1.08,2.66-2.67A9,9,0,0,0,21.6,8.3ZM14,18.35a1,1,0,1,1-1,1h0a1,1,0,0,1,1-1Z" fill="#86A2ED"/></svg>