<svg id="b57b791b-8e0a-4924-8844-72daf56c2794" data-name="ddb0e6ea-63e8-46fc-9d7e-3f0c15ae7442" xmlns="http://www.w3.org/2000/svg" xmlns:xlink="http://www.w3.org/1999/xlink" width="20" height="20.01" viewBox="0 0 20 20.01"><defs><clipPath id="e44db63d-55a7-4a31-b1d9-a74349392f78" transform="translate(0 0.05)"><polygon points="4.09 19.92 18.86 18.92 20 3.98 15.51 13.13 4.09 19.92 4.09 19.92" fill="#86A2ED"/></clipPath><clipPath id="f557633a-1f5f-48dd-8aeb-31bc82ec821b" transform="translate(0 0.05)"><polygon points="14.16 14.7 18.89 18.91 17.62 10.12 14.16 14.7 14.16 14.7" fill="#86A2ED"/></clipPath><clipPath id="bb42c6ef-1cbd-4e11-a6e7-7347600d72e4" transform="translate(0 0.05)"><polygon points="4.14 19.91 18.9 18.91 9.6 18.17 4.14 19.91 4.14 19.91" fill="#86A2ED"/></clipPath><clipPath id="a3b5f85b-fe26-4ba9-8ea7-20329018c492" transform="translate(0 0.05)"><polygon points="1.36 13.37 4.16 19.91 6.49 12.27 1.36 13.37" fill="#86A2ED"/></clipPath><clipPath id="a5a55bac-0524-4dcc-9c9c-cd8e0a2e8c43" transform="translate(0 0.05)"><polygon points="6.46 12.25 14.16 14.73 12.17 6.89 6.46 12.25" fill="#86A2ED"/></clipPath><clipPath id="a59e5405-8e0d-4f18-9eb1-63466b483850" transform="translate(0 0.05)"><polygon points="12.12 6.92 19.52 6.44 13.73 1.71 12.12 6.92 12.12 6.92" fill="#86A2ED"/></clipPath><clipPath id="adb14dbe-7dba-46df-b770-31a2998df53e" transform="translate(0 0.05)"><polygon points="11.85 0 16.8 0.01 13.76 1.71 11.85 0 11.85 0" fill="#86A2ED"/></clipPath><clipPath id="bbda8cae-b24d-4f73-9c73-917f8b8a0dd0" transform="translate(0 0.05)"><polygon points="0.28 10.56 0.02 15.93 1.36 13.48 0.28 10.56" fill="#86A2ED"/></clipPath><clipPath id="a6a137ea-6ec3-48c1-8fb3-b7085428f7fa" transform="translate(0 0.05)"><path d="M4.3,4.22c3-3,6.78-4.72,8.25-3.24s-.08,5.1-3.05,8-6.75,4.78-8.22,3.3S1.32,7.08,4.3,4.22Z" fill="#86A2ED"/></clipPath><clipPath id="a52f5f01-03be-4d79-9c30-df952701f439" transform="translate(0 0.05)"><path d="M4.16,19.92l2.3-7.68,7.65,2.47c-2.77,2.6-5.85,4.81-10,5.2Z" fill="#86A2ED"/></clipPath><clipPath id="f056b2b5-cf62-4bfd-beb7-6f6b808d9d7a" transform="translate(0 0.05)"><path d="M12.18,6.91l2,7.8a21.66,21.66,0,0,0,5.41-8.3l-7.37.5Z" fill="#86A2ED"/></clipPath><clipPath id="b2a25c3d-fa1e-4108-a4ec-83af044b0150" transform="translate(0 0.05)"><path d="M19.53,6.45c.78-2.38,1-5.79-2.74-6.44l-3,1.7Z" fill="#86A2ED"/></clipPath><clipPath id="b0d81e28-b42a-4bf9-8c33-0b3a99042713" transform="translate(0 0.05)"><path d="M12.19,6.92l5.44,3.34A12.46,12.46,0,0,0,19.5,6.44l-7.29.48Z" fill="#86A2ED"/></clipPath><clipPath id="a6ea54ec-b3f5-4442-996e-23bb42bea2c8" transform="translate(0 0.05)"><path d="M6.46,12.24l3.08,6a19.86,19.86,0,0,0,4.55-3.5Z" fill="#86A2ED"/></clipPath><clipPath id="a64f5ce2-5496-4b83-b053-a91ca62ff1ed" transform="translate(0 0.05)"><path d="M1.36,13.41.93,18.62a3.16,3.16,0,0,0,3.14,1.14C3.22,17.61,1.45,13.33,1.36,13.41Z" fill="#86A2ED"/></clipPath><clipPath id="b73dce4f-e7b8-46e4-ab5a-20d831d35a20" transform="translate(0 0.05)"><path d="M13.72,1.73l6.12.85A3.35,3.35,0,0,0,16.8,0Z" fill="#86A2ED"/></clipPath></defs><polygon points="4.09 19.97 18.86 18.97 20 4.03 15.51 13.18 4.09 19.97 4.09 19.97" fill="#86A2ED"/><polygon points="4.09 19.97 18.86 18.97 20 4.03 15.51 13.18 4.09 19.97 4.09 19.97" fill="#86A2ED"/><g clip-path="url(#e44db63d-55a7-4a31-b1d9-a74349392f78)"><path d="M4.09,19.92l14.77-1L20,4l-4.5,9.15Z" transform="translate(0 0.05)" fill="#86A2ED"/></g><polygon points="14.16 14.75 18.89 18.96 17.62 10.17 14.16 14.75 14.16 14.75" fill="#86A2ED"/><g clip-path="url(#f557633a-1f5f-48dd-8aeb-31bc82ec821b)"><path d="M14.16,14.7l4.73,4.21-1.27-8.79Z" transform="translate(0 0.05)" fill="#86A2ED"/></g><polygon points="4.14 19.96 18.9 18.96 9.6 18.22 4.14 19.96 4.14 19.96" fill="#86A2ED"/><g clip-path="url(#bb42c6ef-1cbd-4e11-a6e7-7347600d72e4)"><path d="M4.15,19.92l14.75-1L9.6,18.2Z" transform="translate(0 0.05)" fill="#86A2ED"/></g><polygon points="1.36 13.42 4.16 19.96 6.49 12.32 1.36 13.42" fill="#86A2ED"/><g clip-path="url(#a3b5f85b-fe26-4ba9-8ea7-20329018c492)"><path d="M1.36,13.37l2.8,6.55,2.33-7.65Z" transform="translate(0 0.05)" fill="#86A2ED"/></g><polygon points="6.46 12.3 14.16 14.78 12.17 6.94 6.46 12.3" fill="#86A2ED"/><g clip-path="url(#a5a55bac-0524-4dcc-9c9c-cd8e0a2e8c43)"><path d="M6.46,12.25l7.69,2.46-2-7.82Z" transform="translate(0 0.05)" fill="#86A2ED"/></g><polygon points="12.12 6.97 19.52 6.49 13.73 1.76 12.12 6.97 12.12 6.97" fill="#86A2ED"/><g clip-path="url(#a59e5405-8e0d-4f18-9eb1-63466b483850)"><path d="M12.12,6.92l7.39-.48L13.74,1.71Z" transform="translate(0 0.05)" fill="#86A2ED"/></g><polygon points="11.85 0.05 16.8 0.06 13.76 1.76 11.85 0.05 11.85 0.05" fill="#86A2ED"/><g clip-path="url(#adb14dbe-7dba-46df-b770-31a2998df53e)"><path d="M11.84,0h5L13.76,1.7Z" transform="translate(0 0.05)" fill="#86A2ED"/></g><polygon points="0.28 10.61 0.02 15.98 1.36 13.54 0.28 10.61" fill="#86A2ED"/><g clip-path="url(#bbda8cae-b24d-4f73-9c73-917f8b8a0dd0)"><path d="M.28,10.56,0,15.93l1.34-2.45Z" transform="translate(0 0.05)" fill="#86A2ED"/></g><path d="M4.3,4.22c3-3,6.78-4.72,8.25-3.24s-.08,5.1-3.05,8-6.75,4.78-8.22,3.3S1.32,7.08,4.3,4.22Z" transform="translate(0 0.05)" fill="#86A2ED"/><g clip-path="url(#a6a137ea-6ec3-48c1-8fb3-b7085428f7fa)"><path d="M4.3,4.22c3-3,6.78-4.72,8.25-3.24s-.08,5.1-3.05,8-6.75,4.78-8.22,3.3S1.32,7.08,4.3,4.22Z" transform="translate(0 0.05)" fill="#86A2ED"/></g><path d="M4.16,19.92l2.3-7.68,7.65,2.47c-2.77,2.6-5.85,4.81-10,5.2Z" transform="translate(0 0.05)" fill="#86A2ED"/><g clip-path="url(#a52f5f01-03be-4d79-9c30-df952701f439)"><path d="M4.16,19.92l2.3-7.68,7.65,2.47c-2.77,2.6-5.85,4.81-10,5.2Z" transform="translate(0 0.05)" fill="#86A2ED"/></g><path d="M12.18,6.91l2,7.8a21.66,21.66,0,0,0,5.41-8.3l-7.37.5Z" transform="translate(0 0.05)" fill="#86A2ED"/><g clip-path="url(#f056b2b5-cf62-4bfd-beb7-6f6b808d9d7a)"><path d="M12.18,6.91l2,7.8a21.66,21.66,0,0,0,5.41-8.3l-7.37.5Z" transform="translate(0 0.05)" fill="#86A2ED"/></g><path d="M19.53,6.45c.78-2.38,1-5.79-2.74-6.44l-3,1.7Z" transform="translate(0 0.05)" fill="#86A2ED"/><g clip-path="url(#b2a25c3d-fa1e-4108-a4ec-83af044b0150)"><path d="M19.53,6.45c.78-2.38,1-5.79-2.74-6.44l-3,1.7Z" transform="translate(0 0.05)" fill="#86A2ED"/></g><path d="M0,15.9a3.66,3.66,0,0,0,3.26,4,3.24,3.24,0,0,0,.88,0L1.45,13.4Z" transform="translate(0 0.05)" fill="#86A2ED"/><path d="M12.19,6.92l5.44,3.34A12.46,12.46,0,0,0,19.5,6.44l-7.29.48Z" transform="translate(0 0.05)" fill="#86A2ED"/><g clip-path="url(#b0d81e28-b42a-4bf9-8c33-0b3a99042713)"><path d="M12.19,6.92l5.44,3.34A12.46,12.46,0,0,0,19.5,6.44l-7.29.48Z" transform="translate(0 0.05)" fill="#86A2ED"/></g><path d="M6.46,12.24l3.08,6a19.86,19.86,0,0,0,4.55-3.5Z" transform="translate(0 0.05)" fill="#86A2ED"/><g clip-path="url(#a6ea54ec-b3f5-4442-996e-23bb42bea2c8)"><path d="M6.46,12.24l3.08,6a19.86,19.86,0,0,0,4.55-3.5Z" transform="translate(0 0.05)" fill="#86A2ED"/></g><path d="M1.36,13.41.93,18.62a3.16,3.16,0,0,0,3.14,1.14C3.22,17.61,1.45,13.33,1.36,13.41Z" transform="translate(0 0.05)" fill="#86A2ED"/><g clip-path="url(#a64f5ce2-5496-4b83-b053-a91ca62ff1ed)"><path d="M1.36,13.41.93,18.62a3.16,3.16,0,0,0,3.14,1.14C3.22,17.61,1.45,13.33,1.36,13.41Z" transform="translate(0 0.05)" fill="#86A2ED"/></g><path d="M13.72,1.73l6.12.85A3.35,3.35,0,0,0,16.8,0Z" transform="translate(0 0.05)" fill="#86A2ED"/><g clip-path="url(#b73dce4f-e7b8-46e4-ab5a-20d831d35a20)"><path d="M13.72,1.73l6.12.85A3.35,3.35,0,0,0,16.8,0Z" transform="translate(0 0.05)" fill="#86A2ED"/></g></svg>