<svg id="b24e510c-fcd5-4360-b051-ddfe15bf014c" data-name="Layer 1" xmlns="http://www.w3.org/2000/svg" width="20mm" height="22.47mm" viewBox="0 0 56.69 63.7">
  <g>
    <path d="M46.33,41.16a13.85,13.85,0,0,1-11.22,5.72H28.65a5.15,5.15,0,0,1-4.85-3.4,16.08,16.08,0,0,1-2.61-1,17.48,17.48,0,0,1-4.87-3.6A20.81,20.81,0,0,0,0,59.16v1.3A3.24,3.24,0,0,0,3.24,63.7H53.46a3.24,3.24,0,0,0,3.23-3.24v-1.3A20.8,20.8,0,0,0,46.33,41.16Z" fill="#86A2ED"/>
    <path d="M12.88,32.17a3.69,3.69,0,0,0,3.23-1.91.78.78,0,0,0,.05.14v0A14.41,14.41,0,0,0,24.28,39a5.17,5.17,0,0,1,4.37-2.42h6.46a3.62,3.62,0,0,0,1.77-.47A7.33,7.33,0,0,0,39,33.68a18.2,18.2,0,0,0,1.61-3.42,4,4,0,0,0,1,1.18V33a6.5,6.5,0,0,1-6.49,6.49H28.65a2.21,2.21,0,1,0,0,4.42h6.46A10.93,10.93,0,0,0,46,33V31.44a3.71,3.71,0,0,0,1.47-3V19.26a3.67,3.67,0,0,0-1.53-3,17.68,17.68,0,0,0-35.25,0,3.7,3.7,0,0,0-1.53,3v9.23A3.69,3.69,0,0,0,12.88,32.17ZM28.35,4.42a13.28,13.28,0,0,1,13.19,12,3.61,3.61,0,0,0-1,1.28c-2.08-5.45-6.74-9.24-12.15-9.24S18.23,12.33,16.2,17.62v0a3.61,3.61,0,0,0-1-1.28A13.29,13.29,0,0,1,28.35,4.42Z" fill="#86A2ED"/>
  </g>
</svg>
