<svg id="eb794c3c-f590-41e9-a17d-75902413ff2d" data-name="Capa 1" xmlns="http://www.w3.org/2000/svg" width="22" height="21.3" viewBox="0 0 22 21.3"><path d="M14.47,9.75A2.28,2.28,0,0,1,16,9.38l6-6L18.63,0l-6,6a2.28,2.28,0,0,1-.39,1.55Z" fill="#86A2ED"/><polygon points="3.98 17.08 3.76 16.86 2.62 17.78 0.7 20.81 1.19 21.3 4.22 19.38 5.14 18.24 4.92 18.02 8.75 14.2 7.8 13.26 3.98 17.08" fill="#86A2ED"/><path d="M9.21,6.48A4.68,4.68,0,0,0,3.46.69L6.12,3.34l-.7,2.6-2.6.7L.16,4a4.69,4.69,0,0,0,6,5.68l0,0L17.1,20.62a2.22,2.22,0,0,0,3.13-3.14Zm9.64,13.76A.84.84,0,0,1,18,19.4a.85.85,0,1,1,.84.84Z" fill="#86A2ED"/></svg>