<svg id="f4a950b1-5702-41b7-9b98-13cab07eed38" data-name="bold" xmlns="http://www.w3.org/2000/svg" width="24mm" height="22mm" viewBox="0 0 68.03 62.36">
  <path d="M51.73,22.68H31.18V34H51.73a2.15,2.15,0,0,0,2.13-2.13V24.8A2.14,2.14,0,0,0,51.73,22.68ZM14.17,24.8v7.09A2.15,2.15,0,0,0,16.3,34h9.21V22.68H16.3A2.14,2.14,0,0,0,14.17,24.8Z" fill="#86A2ED"/>
  <path d="M51.73,39.69H31.18V51H51.73a2.14,2.14,0,0,0,2.13-2.12V41.81A2.14,2.14,0,0,0,51.73,39.69ZM14.17,41.81V48.9A2.14,2.14,0,0,0,16.3,51h9.21V39.69H16.3A2.14,2.14,0,0,0,14.17,41.81Z" fill="#86A2ED"/>
  <path d="M59.53,0H8.5A8.52,8.52,0,0,0,0,8.5V53.86a8.51,8.51,0,0,0,8.5,8.5h51a8.51,8.51,0,0,0,8.5-8.5V8.5A8.51,8.51,0,0,0,59.53,0Zm0,56.69H8.5a2.83,2.83,0,0,1-2.83-2.83V14.17H62.36V53.86A2.83,2.83,0,0,1,59.53,56.69Z" fill="#86A2ED"/>
</svg>
