<?xml version="1.0" encoding="utf-8"?>
<!-- Generator: Adobe Illustrator 24.1.0, SVG Export Plug-In . SVG Version: 6.00 Build 0)  -->
<svg version="1.1" id="Capa_1" xmlns="http://www.w3.org/2000/svg" xmlns:xlink="http://www.w3.org/1999/xlink" x="0px" y="0px"
	 viewBox="0 0 50 44.4" style="enable-background:new 0 0 50 44.4;" xml:space="preserve">
<style type="text/css">
	.st0{fill:#CB333B;}
</style>
<g>
	<g>
		<path class="st0" d="M49.2,37.9L28.7,2.5C27.7,0.9,26.4,0,25,0c-1.5,0-2.8,0.9-3.7,2.5L0.8,37.9c-0.9,1.6-1.1,3.2-0.3,4.5
			c0.7,1.2,2.2,1.9,4.1,1.9h40.9c1.8,0,3.3-0.7,4.1-1.9C50.2,41.2,50.1,39.5,49.2,37.9z M47.3,41.2c-0.3,0.5-0.9,0.7-1.9,0.7H4.5
			c-0.9,0-1.7-0.3-1.9-0.7c-0.3-0.5-0.2-1.2,0.3-2L23.4,3.8c0.4-0.8,1-1.3,1.6-1.3s1.1,0.5,1.6,1.3L47,39.2
			C47.5,40,47.6,40.7,47.3,41.2z"/>
	</g>
</g>
<g>
	<g>
		<path class="st0" d="M25,11.6c-0.7,0-1.2,0.5-1.2,1.2v16.4c0,0.7,0.5,1.2,1.2,1.2s1.2-0.5,1.2-1.2V12.9
			C26.2,12.2,25.7,11.6,25,11.6z"/>
	</g>
</g>
<g>
	<g>
		<circle class="st0" cx="25" cy="35.5" r="2.2"/>
	</g>
</g>
</svg>
