<svg id="f85a6daf-2669-41cd-b079-6fa2eb0ee2f8" data-name="light" xmlns="http://www.w3.org/2000/svg" width="50" height="50" viewBox="0 0 50 50"><path d="M30.21,43.75H19.79a1,1,0,0,1,0-2.08H30.21a1,1,0,0,1,0,2.08Z" fill="#86A2ED"/><path d="M39,12.08a1.27,1.27,0,0,1-.83-.2,1,1,0,0,1,0-1.46L41,7.5A1,1,0,0,1,42.5,9l-2.92,2.92a2.09,2.09,0,0,1-.62.2Z" fill="#86A2ED"/><path d="M49,26H44.79a1,1,0,1,1,0-2.08H49A1,1,0,1,1,49,26Z" fill="#86A2ED"/><path d="M41.88,42.92a1.26,1.26,0,0,1-.84-.21l-2.91-2.92a1,1,0,0,1,1.45-1.46l2.92,2.92a1,1,0,0,1,0,1.46c0,.21-.21.21-.62.21Z" fill="#86A2ED"/><path d="M8.13,42.92a1.26,1.26,0,0,1-.84-.21,1,1,0,0,1,0-1.46l2.92-2.92a1,1,0,0,1,1.46,1.46L8.75,42.71A.76.76,0,0,1,8.13,42.92Z" fill="#86A2ED"/><path d="M5.21,26H1A1,1,0,1,1,1,24H5.21a1,1,0,1,1,0,2.08Z" fill="#86A2ED"/><path d="M11,12.08a1.28,1.28,0,0,1-.83-.2L7.29,8.75a1,1,0,0,1,0-1.46,1,1,0,0,1,1.46,0l2.92,2.92a1,1,0,0,1,0,1.46c-.21.2-.42.41-.63.41Z" fill="#86A2ED"/><path d="M28.12,50H21.88c-1.46,0-3.13-1.25-3.13-3.75V41.88A7.22,7.22,0,0,0,16,36.46a14.4,14.4,0,0,1-5.62-11.67A14.8,14.8,0,0,1,24.79,10.42a14.64,14.64,0,0,1,10.42,4.16A14.83,14.83,0,0,1,39.58,25a14,14,0,0,1-5.41,11.25,7.6,7.6,0,0,0-2.92,5.83v4.79A3.21,3.21,0,0,1,28.12,50ZM25,12.5A12.77,12.77,0,0,0,12.5,24.79a12.25,12.25,0,0,0,4.79,10,9.1,9.1,0,0,1,3.54,7.09v4.37c0,.42,0,1.67,1.05,1.67h6.24a1,1,0,0,0,1.05-1v-4.8a10.12,10.12,0,0,1,3.75-7.5A12.16,12.16,0,0,0,37.5,25a12.46,12.46,0,0,0-3.75-9A12.29,12.29,0,0,0,25,12.5Z" fill="#86A2ED"/><path d="M25,6.25a1,1,0,0,1-1-1V1A1,1,0,1,1,26,1V5.21A1,1,0,0,1,25,6.25Z" fill="#86A2ED"/><path d="M33.36,23.57l-2-.5a8.45,8.45,0,0,0-.43-1l1-1.73a.51.51,0,0,0-.07-.62l-1.45-1.45a.51.51,0,0,0-.62-.07l-1.74,1a6.32,6.32,0,0,0-1-.43l-.49-2a.51.51,0,0,0-.5-.39H24a.51.51,0,0,0-.5.39l-.49,2a6.32,6.32,0,0,0-1,.43l-1.74-1a.51.51,0,0,0-.62.07l-1.45,1.45a.51.51,0,0,0-.07.62l1,1.73a8.45,8.45,0,0,0-.43,1l-2,.5a.5.5,0,0,0-.39.49v2a.49.49,0,0,0,.39.49l2,.5a7.33,7.33,0,0,0,.43,1l-1,1.74a.51.51,0,0,0,.07.62l1.45,1.44a.5.5,0,0,0,.62.08L22,31a6.28,6.28,0,0,0,1,.42l.49,2a.51.51,0,0,0,.5.39h2a.51.51,0,0,0,.5-.39l.49-2a6.28,6.28,0,0,0,1-.42l1.74,1a.5.5,0,0,0,.62-.08l1.45-1.44a.51.51,0,0,0,.07-.62l-1-1.74a7.33,7.33,0,0,0,.43-1l2-.5a.49.49,0,0,0,.39-.49v-2A.5.5,0,0,0,33.36,23.57ZM25,29.84a4.76,4.76,0,1,1,4.76-4.76A4.76,4.76,0,0,1,25,29.84Z" fill="#86A2ED"/></svg>